<svg width="12" height="13" viewBox="0 0 12 13" fill="none" xmlns="http://www.w3.org/2000/svg">
<path d="M6 0.692383C9.1875 0.692383 11.8125 3.31738 11.8125 6.50488C11.8125 9.71582 9.1875 12.3174 6 12.3174C2.78906 12.3174 0.1875 9.71582 0.1875 6.50488C0.1875 3.31738 2.78906 0.692383 6 0.692383ZM6 11.1924C8.57812 11.1924 10.6875 9.10645 10.6875 6.50488C10.6875 3.92676 8.57812 1.81738 6 1.81738C3.39844 1.81738 1.3125 3.92676 1.3125 6.50488C1.3125 9.10645 3.39844 11.1924 6 11.1924ZM8.50781 8.8252C8.27344 9.05957 7.42969 9.80957 6.07031 9.80957C4.125 9.80957 2.76562 8.35645 2.76562 6.48145C2.76562 4.62988 4.19531 3.22363 6.04688 3.22363C7.35938 3.22363 8.13281 3.83301 8.34375 4.04395C8.39062 4.09082 8.4375 4.16113 8.4375 4.23145C8.4375 4.30176 8.41406 4.34863 8.39062 4.39551L7.94531 5.05176C7.875 5.19238 7.66406 5.21582 7.54688 5.12207C7.33594 4.95801 6.79688 4.58301 6.09375 4.58301C4.96875 4.58301 4.26562 5.42676 4.26562 6.48145C4.26562 7.44238 4.89844 8.42676 6.11719 8.42676C6.86719 8.42676 7.42969 7.98145 7.64062 7.79395C7.78125 7.67676 7.96875 7.7002 8.0625 7.84082L8.53125 8.47363C8.55469 8.52051 8.57812 8.56738 8.57812 8.6377C8.57812 8.70801 8.55469 8.77832 8.50781 8.8252Z" fill="white"/>
</svg>
