<svg width="13" height="13" viewBox="0 0 13 13" fill="none" xmlns="http://www.w3.org/2000/svg">
<path d="M7.42969 1.58203L6.82813 0.980469C6.55469 0.734375 6.14453 0.734375 5.89844 0.980469L0.566406 6.28516C0.320313 6.55859 0.320313 6.96875 0.566406 7.21484L5.89844 12.5469C6.14453 12.793 6.55469 12.793 6.82813 12.5469L7.42969 11.9453C7.67578 11.6719 7.67578 11.2617 7.42969 10.9883L4.12109 7.84375L11.9688 7.84375C12.3516 7.84375 12.625 7.57031 12.625 7.1875L12.625 6.3125C12.625 5.95703 12.3516 5.65625 11.9688 5.65625L4.12109 5.65625L7.42969 2.53906C7.67578 2.26563 7.70313 1.85547 7.42969 1.58203Z" fill="#141414"/>
</svg>
