<svg width="354" height="50" viewBox="0 0 354 50" fill="none" xmlns="http://www.w3.org/2000/svg">
<mask id="path-1-outside-1_406_67588" maskUnits="userSpaceOnUse" x="-1" y="-1" width="357" height="52" fill="black">
<rect fill="white" x="-1" y="-1" width="357" height="52"/>
<path d="M0.776 20.248C0.776 16.984 1.528 14.056 3.032 11.464C4.568 8.872 6.632 6.856 9.224 5.416C11.848 3.944 14.712 3.208 17.816 3.208C21.368 3.208 24.52 4.088 27.272 5.848C30.056 7.576 32.072 10.04 33.32 13.24H26.744C25.88 11.48 24.68 10.168 23.144 9.304C21.608 8.44 19.832 8.008 17.816 8.008C15.608 8.008 13.64 8.504 11.912 9.496C10.184 10.488 8.824 11.912 7.832 13.768C6.872 15.624 6.392 17.784 6.392 20.248C6.392 22.712 6.872 24.872 7.832 26.728C8.824 28.584 10.184 30.024 11.912 31.048C13.64 32.04 15.608 32.536 17.816 32.536C19.832 32.536 21.608 32.104 23.144 31.24C24.68 30.376 25.88 29.064 26.744 27.304H33.32C32.072 30.504 30.056 32.968 27.272 34.696C24.52 36.424 21.368 37.288 17.816 37.288C14.68 37.288 11.816 36.568 9.224 35.128C6.632 33.656 4.568 31.624 3.032 29.032C1.528 26.44 0.776 23.512 0.776 20.248ZM51.197 37.432C48.701 37.432 46.445 36.872 44.429 35.752C42.413 34.6 40.829 33 39.677 30.952C38.525 28.872 37.949 26.472 37.949 23.752C37.949 21.064 38.541 18.68 39.725 16.6C40.909 14.52 42.525 12.92 44.573 11.8C46.621 10.68 48.909 10.12 51.437 10.12C53.965 10.12 56.253 10.68 58.301 11.8C60.349 12.92 61.965 14.52 63.149 16.6C64.333 18.68 64.925 21.064 64.925 23.752C64.925 26.44 64.317 28.824 63.101 30.904C61.885 32.984 60.221 34.6 58.109 35.752C56.029 36.872 53.725 37.432 51.197 37.432ZM51.197 32.68C52.605 32.68 53.917 32.344 55.133 31.672C56.381 31 57.389 29.992 58.157 28.648C58.925 27.304 59.309 25.672 59.309 23.752C59.309 21.832 58.941 20.216 58.205 18.904C57.469 17.56 56.493 16.552 55.277 15.88C54.061 15.208 52.749 14.872 51.341 14.872C49.933 14.872 48.621 15.208 47.405 15.88C46.221 16.552 45.277 17.56 44.573 18.904C43.869 20.216 43.517 21.832 43.517 23.752C43.517 26.6 44.237 28.808 45.677 30.376C47.149 31.912 48.989 32.68 51.197 32.68ZM68.5104 23.656C68.5104 21 69.0544 18.648 70.1424 16.6C71.2624 14.552 72.7664 12.968 74.6544 11.848C76.5744 10.696 78.7024 10.12 81.0384 10.12C82.7664 10.12 84.4624 10.504 86.1264 11.272C87.8224 12.008 89.1664 13 90.1584 14.248V1.48H95.6784V37H90.1584V33.016C89.2624 34.296 88.0144 35.352 86.4144 36.184C84.8464 37.016 83.0384 37.432 80.9904 37.432C78.6864 37.432 76.5744 36.856 74.6544 35.704C72.7664 34.52 71.2624 32.888 70.1424 30.808C69.0544 28.696 68.5104 26.312 68.5104 23.656ZM90.1584 23.752C90.1584 21.928 89.7744 20.344 89.0064 19C88.2704 17.656 87.2944 16.632 86.0784 15.928C84.8624 15.224 83.5504 14.872 82.1424 14.872C80.7344 14.872 79.4224 15.224 78.2064 15.928C76.9904 16.6 75.9984 17.608 75.2304 18.952C74.4944 20.264 74.1264 21.832 74.1264 23.656C74.1264 25.48 74.4944 27.08 75.2304 28.456C75.9984 29.832 76.9904 30.888 78.2064 31.624C79.4544 32.328 80.7664 32.68 82.1424 32.68C83.5504 32.68 84.8624 32.328 86.0784 31.624C87.2944 30.92 88.2704 29.896 89.0064 28.552C89.7744 27.176 90.1584 25.576 90.1584 23.752ZM127.106 23.128C127.106 24.12 127.042 25.016 126.914 25.816H106.706C106.866 27.928 107.65 29.624 109.058 30.904C110.466 32.184 112.194 32.824 114.242 32.824C117.186 32.824 119.266 31.592 120.482 29.128H126.386C125.586 31.56 124.13 33.56 122.018 35.128C119.938 36.664 117.346 37.432 114.242 37.432C111.714 37.432 109.442 36.872 107.426 35.752C105.442 34.6 103.874 33 102.722 30.952C101.602 28.872 101.042 26.472 101.042 23.752C101.042 21.032 101.586 18.648 102.674 16.6C103.794 14.52 105.346 12.92 107.33 11.8C109.346 10.68 111.65 10.12 114.242 10.12C116.738 10.12 118.962 10.664 120.914 11.752C122.866 12.84 124.386 14.376 125.474 16.36C126.562 18.312 127.106 20.568 127.106 23.128ZM121.394 21.4C121.362 19.384 120.642 17.768 119.234 16.552C117.826 15.336 116.082 14.728 114.002 14.728C112.114 14.728 110.498 15.336 109.154 16.552C107.81 17.736 107.01 19.352 106.754 21.4H121.394ZM188.399 3.64L178.511 37H172.319L165.311 11.752L157.871 37L151.727 37.048L142.271 3.64H148.079L154.991 30.808L162.479 3.64H168.623L175.583 30.664L182.543 3.64H188.399ZM195.697 7.048C194.705 7.048 193.873 6.712 193.201 6.04C192.529 5.368 192.193 4.536 192.193 3.544C192.193 2.552 192.529 1.72 193.201 1.048C193.873 0.375998 194.705 0.0399981 195.697 0.0399981C196.657 0.0399981 197.473 0.375998 198.145 1.048C198.817 1.72 199.153 2.552 199.153 3.544C199.153 4.536 198.817 5.368 198.145 6.04C197.473 6.712 196.657 7.048 195.697 7.048ZM198.385 10.552V37H192.913V10.552H198.385ZM210.417 32.536H222.417V37H204.081V32.536L216.129 15.016H204.081V10.552H222.417V15.016L210.417 32.536ZM226.339 23.656C226.339 21 226.883 18.648 227.971 16.6C229.091 14.552 230.595 12.968 232.483 11.848C234.403 10.696 236.515 10.12 238.819 10.12C240.899 10.12 242.707 10.536 244.243 11.368C245.811 12.168 247.059 13.176 247.987 14.392V10.552H253.507V37H247.987V33.064C247.059 34.312 245.795 35.352 244.195 36.184C242.595 37.016 240.771 37.432 238.723 37.432C236.451 37.432 234.371 36.856 232.483 35.704C230.595 34.52 229.091 32.888 227.971 30.808C226.883 28.696 226.339 26.312 226.339 23.656ZM247.987 23.752C247.987 21.928 247.603 20.344 246.835 19C246.099 17.656 245.123 16.632 243.907 15.928C242.691 15.224 241.379 14.872 239.971 14.872C238.563 14.872 237.251 15.224 236.035 15.928C234.819 16.6 233.827 17.608 233.059 18.952C232.323 20.264 231.955 21.832 231.955 23.656C231.955 25.48 232.323 27.08 233.059 28.456C233.827 29.832 234.819 30.888 236.035 31.624C237.283 32.328 238.595 32.68 239.971 32.68C241.379 32.68 242.691 32.328 243.907 31.624C245.123 30.92 246.099 29.896 246.835 28.552C247.603 27.176 247.987 25.576 247.987 23.752ZM266.166 14.392C266.966 13.048 268.022 12.008 269.334 11.272C270.678 10.504 272.262 10.12 274.086 10.12V15.784H272.694C270.55 15.784 268.918 16.328 267.798 17.416C266.71 18.504 266.166 20.392 266.166 23.08V37H260.694V10.552H266.166V14.392ZM277.292 23.656C277.292 21 277.836 18.648 278.924 16.6C280.044 14.552 281.548 12.968 283.436 11.848C285.356 10.696 287.484 10.12 289.82 10.12C291.548 10.12 293.244 10.504 294.908 11.272C296.604 12.008 297.948 13 298.94 14.248V1.48H304.46V37H298.94V33.016C298.044 34.296 296.796 35.352 295.196 36.184C293.628 37.016 291.82 37.432 289.772 37.432C287.468 37.432 285.356 36.856 283.436 35.704C281.548 34.52 280.044 32.888 278.924 30.808C277.836 28.696 277.292 26.312 277.292 23.656ZM298.94 23.752C298.94 21.928 298.556 20.344 297.788 19C297.052 17.656 296.076 16.632 294.86 15.928C293.644 15.224 292.332 14.872 290.924 14.872C289.516 14.872 288.204 15.224 286.988 15.928C285.772 16.6 284.78 17.608 284.012 18.952C283.276 20.264 282.908 21.832 282.908 23.656C282.908 25.48 283.276 27.08 284.012 28.456C284.78 29.832 285.772 30.888 286.988 31.624C288.236 32.328 289.548 32.68 290.924 32.68C292.332 32.68 293.644 32.328 294.86 31.624C296.076 30.92 297.052 29.896 297.788 28.552C298.556 27.176 298.94 25.576 298.94 23.752ZM317.119 14.392C317.919 13.048 318.975 12.008 320.287 11.272C321.631 10.504 323.215 10.12 325.039 10.12V15.784H323.647C321.503 15.784 319.871 16.328 318.751 17.416C317.663 18.504 317.119 20.392 317.119 23.08V37H311.647V10.552H317.119V14.392ZM353.877 10.552L337.653 49.432H331.989L337.365 36.568L326.949 10.552H333.045L340.485 30.712L348.213 10.552H353.877Z"/>
</mask>
<path d="M3.032 11.464L2.17167 10.9542L2.16706 10.9621L3.032 11.464ZM9.224 5.416L9.70965 6.29016L9.71325 6.28814L9.224 5.416ZM27.272 5.848L26.7332 6.69052L26.7446 6.69764L27.272 5.848ZM33.32 13.24V14.24H34.7834L34.2517 12.8767L33.32 13.24ZM26.744 13.24L25.8463 13.6807L26.1209 14.24H26.744V13.24ZM23.144 9.304L23.6343 8.43242L23.144 9.304ZM11.912 9.496L12.4099 10.3633H12.4099L11.912 9.496ZM7.832 13.768L6.94999 13.2966L6.94378 13.3086L7.832 13.768ZM7.832 26.728L6.9437 27.1875L6.95007 27.1994L7.832 26.728ZM11.912 31.048L11.4022 31.9084L11.4141 31.9153L11.912 31.048ZM23.144 31.24L23.6343 32.1116L23.144 31.24ZM26.744 27.304V26.304H26.1209L25.8463 26.8633L26.744 27.304ZM33.32 27.304L34.2517 27.6673L34.7834 26.304H33.32V27.304ZM27.272 34.696L26.7446 33.8463L26.7402 33.8491L27.272 34.696ZM9.224 35.128L8.73015 35.9976L8.73836 36.0022L9.224 35.128ZM3.032 29.032L2.16703 29.5339L2.17171 29.5418L3.032 29.032ZM1.776 20.248C1.776 17.1441 2.4892 14.392 3.89694 11.9659L2.16706 10.9621C0.566804 13.72 -0.224 16.8239 -0.224 20.248H1.776ZM3.89229 11.9738C5.33944 9.53173 7.27522 7.64261 9.70964 6.29016L8.73836 4.54184C5.98878 6.06938 3.79656 8.21227 2.17171 10.9542L3.89229 11.9738ZM9.71325 6.28814C12.183 4.9027 14.8777 4.208 17.816 4.208V2.208C14.5463 2.208 11.513 2.9853 8.73475 4.54385L9.71325 6.28814ZM17.816 4.208C21.1944 4.208 24.1561 5.04229 26.7332 6.69045L27.8108 5.00555C24.8839 3.1337 21.5416 2.208 17.816 2.208V4.208ZM26.7446 6.69764C29.3356 8.30579 31.2149 10.5945 32.3883 13.6033L34.2517 12.8767C32.9291 9.48549 30.7764 6.8462 27.7994 4.99836L26.7446 6.69764ZM33.32 12.24H26.744V14.24H33.32V12.24ZM27.6417 12.7993C26.699 10.8791 25.3661 9.40658 23.6343 8.43242L22.6537 10.1756C23.9939 10.9294 25.061 12.0809 25.8463 13.6807L27.6417 12.7993ZM23.6343 8.43242C21.9282 7.47274 19.9787 7.008 17.816 7.008V9.008C19.6853 9.008 21.2878 9.40725 22.6537 10.1756L23.6343 8.43242ZM17.816 7.008C15.4527 7.008 13.3096 7.54061 11.4141 8.62875L12.4099 10.3633C13.9704 9.46739 15.7633 9.008 17.816 9.008V7.008ZM11.4141 8.62875C9.51423 9.71943 8.02525 11.285 6.95007 13.2966L8.71393 14.2394C9.62275 12.539 10.8538 11.2566 12.4099 10.3633L11.4141 8.62875ZM6.94378 13.3086C5.89824 15.33 5.392 17.6527 5.392 20.248H7.392C7.392 17.9153 7.84576 15.918 8.72022 14.2274L6.94378 13.3086ZM5.392 20.248C5.392 22.8433 5.89824 25.166 6.94378 27.1874L8.72022 26.2686C7.84576 24.578 7.392 22.5807 7.392 20.248H5.392ZM6.95007 27.1994C8.02394 29.2085 9.50928 30.7866 11.4022 31.9083L12.4218 30.1877C10.8587 29.2614 9.62407 27.9595 8.71393 26.2566L6.95007 27.1994ZM11.4141 31.9153C13.3096 33.0034 15.4527 33.536 17.816 33.536V31.536C15.7633 31.536 13.9704 31.0766 12.4099 30.1807L11.4141 31.9153ZM17.816 33.536C19.9787 33.536 21.9282 33.0713 23.6343 32.1116L22.6537 30.3684C21.2878 31.1367 19.6853 31.536 17.816 31.536V33.536ZM23.6343 32.1116C25.3661 31.1374 26.699 29.6649 27.6417 27.7447L25.8463 26.8633C25.061 28.4631 23.9939 29.6146 22.6537 30.3684L23.6343 32.1116ZM26.744 28.304H33.32V26.304H26.744V28.304ZM32.3883 26.9407C31.2149 29.9495 29.3356 32.2382 26.7446 33.8464L27.7994 35.5456C30.7764 33.6978 32.9291 31.0585 34.2517 27.6673L32.3883 26.9407ZM26.7402 33.8491C24.1623 35.4678 21.198 36.288 17.816 36.288V38.288C21.538 38.288 24.8777 37.3802 27.8038 35.5429L26.7402 33.8491ZM17.816 36.288C14.8398 36.288 12.1445 35.6065 9.70964 34.2538L8.73836 36.0022C11.4875 37.5295 14.5202 38.288 17.816 38.288V36.288ZM9.71783 34.2584C7.27892 32.8734 5.34054 30.9661 3.89229 28.5222L2.17171 29.5418C3.79546 32.2819 5.98508 34.4386 8.73018 35.9976L9.71783 34.2584ZM3.89694 28.5301C2.4892 26.104 1.776 23.3519 1.776 20.248H-0.224C-0.224 23.6721 0.566804 26.776 2.16706 29.5339L3.89694 28.5301ZM44.429 35.752L43.9328 36.6203L43.9434 36.6262L44.429 35.752ZM39.677 30.952L38.8022 31.4365L38.8054 31.4423L39.677 30.952ZM44.573 11.8L44.0932 10.9226L44.573 11.8ZM58.301 11.8L58.7808 10.9226L58.301 11.8ZM63.101 30.904L62.2377 30.3993L63.101 30.904ZM58.109 35.752L58.5831 36.6325L58.5879 36.6299L58.109 35.752ZM55.133 31.672L54.6589 30.7915L54.6493 30.7968L55.133 31.672ZM58.157 28.648L57.2888 28.1519L58.157 28.648ZM58.205 18.904L57.3279 19.3843L57.3329 19.3933L58.205 18.904ZM47.405 15.88L46.9213 15.0047L46.9114 15.0103L47.405 15.88ZM44.573 18.904L45.4542 19.3768L45.4588 19.368L44.573 18.904ZM45.677 30.376L44.9405 31.0524L44.9477 31.0602L44.955 31.0679L45.677 30.376ZM51.197 36.432C48.8566 36.432 46.77 35.9086 44.9146 34.8778L43.9434 36.6262C46.12 37.8354 48.5454 38.432 51.197 38.432V36.432ZM44.9251 34.8838C43.0681 33.8226 41.613 32.3541 40.5486 30.4617L38.8054 31.4423C40.045 33.6459 41.7579 35.3774 43.9329 36.6202L44.9251 34.8838ZM40.5518 30.4675C39.4931 28.556 38.949 26.3272 38.949 23.752H36.949C36.949 26.6168 37.5569 29.188 38.8022 31.4365L40.5518 30.4675ZM38.949 23.752C38.949 21.2157 39.506 19.0061 40.5941 17.0947L38.8559 16.1053C37.576 18.3539 36.949 20.9123 36.949 23.752H38.949ZM40.5941 17.0947C41.6888 15.1716 43.1718 13.706 45.0528 12.6774L44.0932 10.9226C41.8782 12.134 40.1292 13.8684 38.8559 16.1053L40.5941 17.0947ZM45.0528 12.6774C46.9416 11.6444 49.0624 11.12 51.437 11.12V9.12C48.7556 9.12 46.3004 9.71558 44.0932 10.9226L45.0528 12.6774ZM51.437 11.12C53.8116 11.12 55.9324 11.6444 57.8212 12.6774L58.7808 10.9226C56.5736 9.71558 54.1184 9.12 51.437 9.12V11.12ZM57.8212 12.6774C59.7022 13.706 61.1852 15.1716 62.2799 17.0947L64.0181 16.1053C62.7448 13.8684 60.9958 12.134 58.7808 10.9226L57.8212 12.6774ZM62.2799 17.0947C63.368 19.0061 63.925 21.2157 63.925 23.752H65.925C65.925 20.9123 65.298 18.3539 64.0181 16.1053L62.2799 17.0947ZM63.925 23.752C63.925 26.2836 63.3541 28.4896 62.2377 30.3993L63.9643 31.4087C65.2799 29.1584 65.925 26.5964 65.925 23.752H63.925ZM62.2377 30.3993C61.1134 32.3225 59.5822 33.8094 57.6301 34.8741L58.5879 36.6299C60.8598 35.3906 62.6566 33.6455 63.9643 31.4087L62.2377 30.3993ZM57.6349 34.8715C55.7108 35.9076 53.5714 36.432 51.197 36.432V38.432C53.8786 38.432 56.3472 37.8364 58.5831 36.6325L57.6349 34.8715ZM51.197 33.68C52.7718 33.68 54.2505 33.3022 55.6167 32.5472L54.6493 30.7968C53.5835 31.3858 52.4382 31.68 51.197 31.68V33.68ZM55.6071 32.5525C57.0349 31.7837 58.1733 30.6351 59.0252 29.1441L57.2888 28.1519C56.6047 29.3489 55.7271 30.2163 54.6589 30.7915L55.6071 32.5525ZM59.0252 29.1441C59.898 27.6168 60.309 25.8046 60.309 23.752H58.309C58.309 25.5394 57.952 26.9912 57.2888 28.1519L59.0252 29.1441ZM60.309 23.752C60.309 21.707 59.9171 19.912 59.0771 18.4147L57.3329 19.3933C57.9649 20.52 58.309 21.957 58.309 23.752H60.309ZM59.0821 18.4237C58.2647 16.9311 57.1594 15.7778 55.7607 15.0048L54.7933 16.7552C55.8266 17.3262 56.6733 18.1889 57.3279 19.3843L59.0821 18.4237ZM55.7607 15.0048C54.3945 14.2498 52.9158 13.872 51.341 13.872V15.872C52.5822 15.872 53.7275 16.1662 54.7933 16.7552L55.7607 15.0048ZM51.341 13.872C49.7662 13.872 48.2875 14.2498 46.9213 15.0048L47.8887 16.7552C48.9545 16.1662 50.0998 15.872 51.341 15.872V13.872ZM46.9114 15.0103C45.5417 15.7877 44.4697 16.946 43.6872 18.44L45.4588 19.368C46.0843 18.174 46.9003 17.3163 47.8986 16.7497L46.9114 15.0103ZM43.6918 18.4312C42.8905 19.9246 42.517 21.7134 42.517 23.752H44.517C44.517 21.9506 44.8475 20.5074 45.4542 19.3768L43.6918 18.4312ZM42.517 23.752C42.517 26.7643 43.2806 29.2449 44.9405 31.0524L46.4135 29.6996C45.1934 28.371 44.517 26.4357 44.517 23.752H42.517ZM44.955 31.0679C46.6235 32.8089 48.728 33.68 51.197 33.68V31.68C49.25 31.68 47.6745 31.0151 46.399 29.6841L44.955 31.0679ZM70.1424 16.6L69.2649 16.1202L69.2593 16.1308L70.1424 16.6ZM74.6544 11.848L75.1646 12.7081L75.1689 12.7055L74.6544 11.848ZM86.1264 11.272L85.7073 12.18L85.7177 12.1848L85.7283 12.1893L86.1264 11.272ZM90.1584 14.248L89.3756 14.8702L91.1584 17.1131V14.248H90.1584ZM90.1584 1.48V0.48H89.1584V1.48H90.1584ZM95.6784 1.48H96.6784V0.48H95.6784V1.48ZM95.6784 37V38H96.6784V37H95.6784ZM90.1584 37H89.1584V38H90.1584V37ZM90.1584 33.016H91.1584V29.8436L89.3391 32.4425L90.1584 33.016ZM86.4144 36.184L85.953 35.2968L85.9457 35.3007L86.4144 36.184ZM74.6544 35.704L74.1231 36.5512L74.1314 36.5564L74.1399 36.5615L74.6544 35.704ZM70.1424 30.808L69.2534 31.266L69.2576 31.2741L69.2619 31.2821L70.1424 30.808ZM89.0064 19L88.1293 19.4803L88.1336 19.4883L88.1381 19.4961L89.0064 19ZM86.0784 15.928L85.5773 16.7934L86.0784 15.928ZM78.2064 15.928L78.6901 16.8032L78.6988 16.7984L78.7074 16.7934L78.2064 15.928ZM75.2304 18.952L74.3621 18.4558L74.3582 18.4627L75.2304 18.952ZM75.2304 28.456L74.3486 28.9277L74.3528 28.9355L74.3572 28.9434L75.2304 28.456ZM78.2064 31.624L77.6886 32.4795L77.7017 32.4874L77.7151 32.495L78.2064 31.624ZM86.0784 31.624L86.5794 32.4894L86.0784 31.624ZM89.0064 28.552L88.1331 28.0646L88.1293 28.0717L89.0064 28.552ZM69.5104 23.656C69.5104 21.1396 70.0247 18.9529 71.0255 17.0692L69.2593 16.1308C68.084 18.3431 67.5104 20.8604 67.5104 23.656H69.5104ZM71.0197 17.0798C72.0593 15.1788 73.4407 13.7307 75.1646 12.7081L74.1442 10.9879C72.092 12.2053 70.4654 13.9252 69.265 16.1202L71.0197 17.0798ZM75.1689 12.7055C76.9266 11.6509 78.8754 11.12 81.0384 11.12V9.12C78.5293 9.12 76.2222 9.74113 74.1399 10.9905L75.1689 12.7055ZM81.0384 11.12C82.613 11.12 84.1666 11.4688 85.7073 12.18L86.5454 10.364C84.7582 9.53915 82.9198 9.12 81.0384 9.12V11.12ZM85.7283 12.1893C87.2979 12.8705 88.5009 13.7698 89.3756 14.8702L90.9412 13.6258C89.8319 12.2302 88.3468 11.1455 86.5245 10.3547L85.7283 12.1893ZM91.1584 14.248V1.48H89.1584V14.248H91.1584ZM90.1584 2.48H95.6784V0.48H90.1584V2.48ZM94.6784 1.48V37H96.6784V1.48H94.6784ZM95.6784 36H90.1584V38H95.6784V36ZM91.1584 37V33.016H89.1584V37H91.1584ZM89.3391 32.4425C88.5488 33.5717 87.4323 34.5275 85.953 35.2968L86.8757 37.0712C88.5964 36.1765 89.976 35.0203 90.9776 33.5895L89.3391 32.4425ZM85.9457 35.3007C84.5428 36.045 82.9002 36.432 80.9904 36.432V38.432C83.1765 38.432 85.1499 37.987 86.8831 37.0673L85.9457 35.3007ZM80.9904 36.432C78.8621 36.432 76.9288 35.9025 75.1689 34.8465L74.1399 36.5615C76.22 37.8095 78.5106 38.432 80.9904 38.432V36.432ZM75.1857 34.8568C73.4533 33.7704 72.0658 32.2709 71.0228 30.3339L69.2619 31.2821C70.4589 33.5051 72.0795 35.2696 74.1231 36.5512L75.1857 34.8568ZM71.0313 30.35C70.0246 28.3957 69.5104 26.1717 69.5104 23.656H67.5104C67.5104 26.4523 68.0842 28.9963 69.2534 31.266L71.0313 30.35ZM91.1584 23.752C91.1584 21.7852 90.7432 20.0239 89.8746 18.5039L88.1381 19.4961C88.8055 20.6641 89.1584 22.0708 89.1584 23.752H91.1584ZM89.8835 18.5197C89.0679 17.0304 87.9678 15.8664 86.5794 15.0626L85.5773 16.7934C86.621 17.3976 87.4729 18.2816 88.1293 19.4803L89.8835 18.5197ZM86.5794 15.0626C85.2108 14.2702 83.7259 13.872 82.1424 13.872V15.872C83.3748 15.872 84.5139 16.1778 85.5773 16.7934L86.5794 15.0626ZM82.1424 13.872C80.5588 13.872 79.0739 14.2702 77.7053 15.0626L78.7074 16.7934C79.7708 16.1778 80.9099 15.872 82.1424 15.872V13.872ZM77.7227 15.0528C76.3283 15.8233 75.2104 16.9713 74.3621 18.4559L76.0986 19.4481C76.7863 18.2447 77.6524 17.3767 78.6901 16.8032L77.7227 15.0528ZM74.3582 18.4627C73.5223 19.9529 73.1264 21.6969 73.1264 23.656H75.1264C75.1264 21.9671 75.4665 20.5751 76.1025 19.4412L74.3582 18.4627ZM73.1264 23.656C73.1264 25.6167 73.5228 27.3838 74.3486 28.9277L76.1122 27.9843C75.4659 26.7762 75.1264 25.3433 75.1264 23.656H73.1264ZM74.3572 28.9434C75.2003 30.454 76.3085 31.6442 77.6886 32.4795L78.7242 30.7685C77.6722 30.1318 76.7964 29.21 76.1036 27.9686L74.3572 28.9434ZM77.7151 32.495C79.1065 33.2799 80.587 33.68 82.1424 33.68V31.68C80.9458 31.68 79.8022 31.3761 78.6977 30.753L77.7151 32.495ZM82.1424 33.68C83.7259 33.68 85.2108 33.2818 86.5794 32.4894L85.5773 30.7586C84.5139 31.3742 83.3748 31.68 82.1424 31.68V33.68ZM86.5794 32.4894C87.9678 31.6856 89.0679 30.5216 89.8835 29.0323L88.1293 28.0717C87.4729 29.2704 86.621 30.1544 85.5773 30.7586L86.5794 32.4894ZM89.8796 29.0394C90.743 27.4924 91.1584 25.7195 91.1584 23.752H89.1584C89.1584 25.4325 88.8057 26.8596 88.1332 28.0646L89.8796 29.0394ZM126.914 25.816V26.816H127.766L127.901 25.974L126.914 25.816ZM106.706 25.816V24.816H105.627L105.708 25.8915L106.706 25.816ZM109.058 30.904L108.385 31.6439L109.058 30.904ZM120.482 29.128V28.128H119.86L119.585 28.6855L120.482 29.128ZM126.386 29.128L127.336 29.4405L127.767 28.128H126.386V29.128ZM122.018 35.128L122.612 35.9324L122.614 35.9309L122.018 35.128ZM107.426 35.752L106.923 36.6168L106.932 36.6216L106.94 36.6262L107.426 35.752ZM102.722 30.952L101.841 31.4261L101.846 31.4342L101.85 31.4423L102.722 30.952ZM102.674 16.6L101.793 16.1259L101.791 16.1308L102.674 16.6ZM107.33 11.8L106.844 10.9258L106.838 10.9292L107.33 11.8ZM120.914 11.752L121.4 10.8785L120.914 11.752ZM125.474 16.36L124.597 16.8408L124.6 16.8469L125.474 16.36ZM121.394 21.4V22.4H122.41L122.394 21.3841L121.394 21.4ZM119.234 16.552L119.887 15.7952L119.234 16.552ZM109.154 16.552L109.815 17.3024L109.825 17.2935L109.154 16.552ZM106.754 21.4L105.761 21.276L105.621 22.4H106.754V21.4ZM126.106 23.128C126.106 24.0784 126.044 24.9203 125.926 25.658L127.901 25.974C128.039 25.1117 128.106 24.1616 128.106 23.128H126.106ZM126.914 24.816H106.706V26.816H126.914V24.816ZM105.708 25.8915C105.885 28.227 106.766 30.1721 108.385 31.6439L109.73 30.1641C108.533 29.0759 107.846 27.629 107.703 25.7405L105.708 25.8915ZM108.385 31.6439C109.992 33.1047 111.966 33.824 114.242 33.824V31.824C112.422 31.824 110.939 31.2633 109.73 30.1641L108.385 31.6439ZM114.242 33.824C115.854 33.824 117.295 33.4858 118.519 32.7604C119.748 32.0326 120.697 30.952 121.378 29.5705L119.585 28.6855C119.051 29.768 118.351 30.5354 117.5 31.0396C116.645 31.5462 115.573 31.824 114.242 31.824V33.824ZM120.482 30.128H126.386V28.128H120.482V30.128ZM125.436 28.8155C124.702 31.0458 123.373 32.8765 121.422 34.3251L122.614 35.9309C124.887 34.2435 126.469 32.0742 127.336 29.4405L125.436 28.8155ZM121.424 34.3236C119.548 35.7087 117.176 36.432 114.242 36.432V38.432C117.515 38.432 120.327 37.6193 122.612 35.9324L121.424 34.3236ZM114.242 36.432C111.867 36.432 109.765 35.9075 107.911 34.8778L106.94 36.6262C109.119 37.8365 111.56 38.432 114.242 38.432V36.432ZM107.928 34.8872C106.102 33.8271 104.66 32.3581 103.593 30.4617L101.85 31.4423C103.087 33.6419 104.781 35.3729 106.923 36.6168L107.928 34.8872ZM103.602 30.4779C102.572 28.5643 102.042 26.3318 102.042 23.752H100.042C100.042 26.6122 100.632 29.1797 101.841 31.4261L103.602 30.4779ZM102.042 23.752C102.042 21.1673 102.558 18.9496 103.557 17.0692L101.791 16.1308C100.613 18.3464 100.042 20.8967 100.042 23.752H102.042ZM103.554 17.0741C104.588 15.154 106.008 13.6944 107.821 12.6708L106.838 10.9292C104.683 12.1456 102.999 13.886 101.793 16.1259L103.554 17.0741ZM107.815 12.6742C109.665 11.6465 111.798 11.12 114.242 11.12V9.12C111.501 9.12 109.026 9.71349 106.844 10.9258L107.815 12.6742ZM114.242 11.12C116.588 11.12 118.64 11.6298 120.427 12.6255L121.4 10.8785C119.283 9.69819 116.888 9.12 114.242 9.12V11.12ZM120.427 12.6255C122.212 13.6207 123.598 15.0196 124.597 16.8408L126.35 15.8792C125.173 13.7324 123.519 12.0593 121.4 10.8785L120.427 12.6255ZM124.6 16.8469C125.594 18.6295 126.106 20.7133 126.106 23.128H128.106C128.106 20.4227 127.529 17.9945 126.347 15.8731L124.6 16.8469ZM122.394 21.3841C122.357 19.1099 121.531 17.2144 119.887 15.7952L118.58 17.3088C119.753 18.3216 120.366 19.6581 120.394 21.4159L122.394 21.3841ZM119.887 15.7952C118.276 14.4036 116.291 13.728 114.002 13.728V15.728C115.872 15.728 117.375 16.2684 118.58 17.3088L119.887 15.7952ZM114.002 13.728C111.877 13.728 110.019 14.4207 108.483 15.8105L109.825 17.2935C110.976 16.2513 112.35 15.728 114.002 15.728V13.728ZM108.493 15.8016C106.938 17.1714 106.043 19.025 105.761 21.276L107.746 21.524C107.977 19.679 108.681 18.3006 109.815 17.3024L108.493 15.8016ZM106.754 22.4H121.394V20.4H106.754V22.4ZM188.399 3.64L189.358 3.92418L189.739 2.64H188.399V3.64ZM178.511 37V38H179.258L179.47 37.2842L178.511 37ZM172.319 37L171.356 37.2675L171.559 38H172.319V37ZM165.311 11.752L166.275 11.4845L165.34 8.11662L164.352 11.4693L165.311 11.752ZM157.871 37L157.879 38L158.621 37.9942L158.831 37.2827L157.871 37ZM151.727 37.048L150.765 37.3203L150.973 38.0539L151.735 38.048L151.727 37.048ZM142.271 3.64V2.64H140.949L141.309 3.91234L142.271 3.64ZM148.079 3.64L149.049 3.39344L148.857 2.64H148.079V3.64ZM154.991 30.808L154.022 31.0546L154.953 34.7118L155.955 31.0737L154.991 30.808ZM162.479 3.64V2.64H161.718L161.515 3.37429L162.479 3.64ZM168.623 3.64L169.592 3.39059L169.398 2.64H168.623V3.64ZM175.583 30.664L174.615 30.9134H176.552L175.583 30.664ZM182.543 3.64V2.64H181.768L181.575 3.39059L182.543 3.64ZM187.441 3.35581L177.553 36.7158L179.47 37.2842L189.358 3.92418L187.441 3.35581ZM178.511 36H172.319V38H178.511V36ZM173.283 36.7325L166.275 11.4845L164.348 12.0195L171.356 37.2675L173.283 36.7325ZM164.352 11.4693L156.912 36.7173L158.831 37.2827L166.271 12.0347L164.352 11.4693ZM157.864 36L151.72 36.048L151.735 38.048L157.879 38L157.864 36ZM152.69 36.7757L143.234 3.36765L141.309 3.91234L150.765 37.3203L152.69 36.7757ZM142.271 4.64H148.079V2.64H142.271V4.64ZM147.11 3.88656L154.022 31.0546L155.96 30.5614L149.049 3.39344L147.11 3.88656ZM155.955 31.0737L163.443 3.90571L161.515 3.37429L154.027 30.5423L155.955 31.0737ZM162.479 4.64H168.623V2.64H162.479V4.64ZM167.655 3.88941L174.615 30.9134L176.552 30.4146L169.592 3.39059L167.655 3.88941ZM176.552 30.9134L183.512 3.88941L181.575 3.39059L174.615 30.4146L176.552 30.9134ZM182.543 4.64H188.399V2.64H182.543V4.64ZM193.201 6.04L193.908 5.33289V5.33289L193.201 6.04ZM193.201 1.048L193.908 1.75511V1.75511L193.201 1.048ZM198.145 1.048L197.437 1.75511V1.75511L198.145 1.048ZM198.145 6.04L197.437 5.33289V5.33289L198.145 6.04ZM198.385 10.552H199.385V9.552H198.385V10.552ZM198.385 37V38H199.385V37H198.385ZM192.913 37H191.913V38H192.913V37ZM192.913 10.552V9.552H191.913V10.552H192.913ZM195.697 6.048C194.957 6.048 194.383 5.80839 193.908 5.33289L192.493 6.7471C193.362 7.61561 194.452 8.048 195.697 8.048V6.048ZM193.908 5.33289C193.432 4.85739 193.193 4.28374 193.193 3.544H191.193C191.193 4.78826 191.625 5.8786 192.493 6.7471L193.908 5.33289ZM193.193 3.544C193.193 2.80426 193.432 2.2306 193.908 1.75511L192.493 0.340892C191.625 1.20939 191.193 2.29974 191.193 3.544H193.193ZM193.908 1.75511C194.383 1.27961 194.957 1.04 195.697 1.04V-0.960002C194.452 -0.960002 193.362 -0.527611 192.493 0.340893L193.908 1.75511ZM195.697 1.04C196.394 1.04 196.955 1.27277 197.437 1.75511L198.852 0.340893C197.99 -0.520774 196.919 -0.960002 195.697 -0.960002V1.04ZM197.437 1.75511C197.913 2.2306 198.152 2.80426 198.152 3.544H200.152C200.152 2.29974 199.72 1.20939 198.852 0.340892L197.437 1.75511ZM198.152 3.544C198.152 4.28374 197.913 4.85739 197.437 5.33289L198.852 6.7471C199.72 5.8786 200.152 4.78826 200.152 3.544H198.152ZM197.437 5.33289C196.955 5.81523 196.394 6.048 195.697 6.048V8.048C196.919 8.048 197.99 7.60877 198.852 6.7471L197.437 5.33289ZM197.385 10.552V37H199.385V10.552H197.385ZM198.385 36H192.913V38H198.385V36ZM193.913 37V10.552H191.913V37H193.913ZM192.913 11.552H198.385V9.552H192.913V11.552ZM210.417 32.536L209.592 31.9709L208.52 33.536H210.417V32.536ZM222.417 32.536H223.417V31.536H222.417V32.536ZM222.417 37V38H223.417V37H222.417ZM204.081 37H203.081V38H204.081V37ZM204.081 32.536L203.257 31.9694L203.081 32.2253V32.536H204.081ZM216.129 15.016L216.953 15.5826L218.03 14.016H216.129V15.016ZM204.081 15.016H203.081V16.016H204.081V15.016ZM204.081 10.552V9.552H203.081V10.552H204.081ZM222.417 10.552H223.417V9.552H222.417V10.552ZM222.417 15.016L223.242 15.5811L223.417 15.3256V15.016H222.417ZM210.417 33.536H222.417V31.536H210.417V33.536ZM221.417 32.536V37H223.417V32.536H221.417ZM222.417 36H204.081V38H222.417V36ZM205.081 37V32.536H203.081V37H205.081ZM204.905 33.1026L216.953 15.5826L215.305 14.4494L203.257 31.9694L204.905 33.1026ZM216.129 14.016H204.081V16.016H216.129V14.016ZM205.081 15.016V10.552H203.081V15.016H205.081ZM204.081 11.552H222.417V9.552H204.081V11.552ZM221.417 10.552V15.016H223.417V10.552H221.417ZM221.592 14.4509L209.592 31.9709L211.242 33.1011L223.242 15.5811L221.592 14.4509ZM227.971 16.6L227.093 16.1202L227.087 16.1308L227.971 16.6ZM232.482 11.848L232.993 12.7081L232.997 12.7055L232.482 11.848ZM244.243 11.368L243.766 12.2473L243.777 12.2532L243.788 12.2588L244.243 11.368ZM247.986 14.392L247.192 14.9987L248.986 17.3507V14.392H247.986ZM247.986 10.552V9.552H246.986V10.552H247.986ZM253.507 10.552H254.507V9.552H253.507V10.552ZM253.507 37V38H254.507V37H253.507ZM247.986 37H246.986V38H247.986V37ZM247.986 33.064H248.986V30.0433L247.184 32.4673L247.986 33.064ZM244.195 36.184L243.733 35.2968L244.195 36.184ZM232.482 35.704L231.951 36.5513L231.962 36.5576L232.482 35.704ZM227.971 30.808L227.082 31.266L227.086 31.2741L227.09 31.2821L227.971 30.808ZM246.835 19L245.957 19.4803L245.962 19.4883L245.966 19.4961L246.835 19ZM243.906 15.928L243.405 16.7934L243.906 15.928ZM236.035 15.928L236.518 16.8032L236.527 16.7984L236.536 16.7934L236.035 15.928ZM233.059 18.952L232.19 18.4558L232.186 18.4627L233.059 18.952ZM233.059 28.456L232.177 28.9277L232.181 28.9355L232.185 28.9434L233.059 28.456ZM236.035 31.624L235.517 32.4795L235.53 32.4874L235.543 32.495L236.035 31.624ZM243.906 31.624L244.408 32.4894L243.906 31.624ZM246.835 28.552L245.961 28.0646L245.957 28.0717L246.835 28.552ZM227.339 23.656C227.339 21.1396 227.853 18.9529 228.854 17.0692L227.087 16.1308C225.912 18.3431 225.339 20.8604 225.339 23.656H227.339ZM228.848 17.0798C229.887 15.1788 231.269 13.7307 232.993 12.7081L231.972 10.9879C229.92 12.2053 228.294 13.9252 227.093 16.1202L228.848 17.0798ZM232.997 12.7055C234.757 11.6495 236.69 11.12 238.818 11.12V9.12C236.339 9.12 234.048 9.74246 231.968 10.9905L232.997 12.7055ZM238.818 11.12C240.764 11.12 242.402 11.5083 243.766 12.2473L244.719 10.4887C243.011 9.56367 241.033 9.12 238.818 9.12V11.12ZM243.788 12.2588C245.243 13.001 246.367 13.9184 247.192 14.9987L248.781 13.7853C247.75 12.4336 246.378 11.335 244.697 10.4772L243.788 12.2588ZM248.986 14.392V10.552H246.986V14.392H248.986ZM247.986 11.552H253.507V9.552H247.986V11.552ZM252.507 10.552V37H254.507V10.552H252.507ZM253.507 36H247.986V38H253.507V36ZM248.986 37V33.064H246.986V37H248.986ZM247.184 32.4673C246.36 33.5759 245.22 34.5235 243.733 35.2968L244.656 37.0712C246.369 36.1805 247.757 35.048 248.789 33.6607L247.184 32.4673ZM243.733 35.2968C242.294 36.0452 240.632 36.432 238.723 36.432V38.432C240.909 38.432 242.895 37.9868 244.656 37.0712L243.733 35.2968ZM238.723 36.432C236.629 36.432 234.73 35.9039 233.003 34.8504L231.962 36.5576C234.011 37.8081 236.272 38.432 238.723 38.432V36.432ZM233.014 34.8568C231.281 33.7704 229.894 32.2709 228.851 30.3339L227.09 31.2821C228.287 33.5051 229.908 35.2696 231.951 36.5512L233.014 34.8568ZM228.859 30.35C227.853 28.3957 227.339 26.1717 227.339 23.656H225.339C225.339 26.4523 225.912 28.9963 227.082 31.266L228.859 30.35ZM248.986 23.752C248.986 21.7852 248.571 20.0239 247.703 18.5039L245.966 19.4961C246.634 20.6641 246.986 22.0708 246.986 23.752H248.986ZM247.712 18.5197C246.896 17.0304 245.796 15.8664 244.408 15.0626L243.405 16.7934C244.449 17.3976 245.301 18.2816 245.957 19.4803L247.712 18.5197ZM244.408 15.0626C243.039 14.2702 241.554 13.872 239.971 13.872V15.872C241.203 15.872 242.342 16.1778 243.405 16.7934L244.408 15.0626ZM239.971 13.872C238.387 13.872 236.902 14.2702 235.533 15.0626L236.536 16.7934C237.599 16.1778 238.738 15.872 239.971 15.872V13.872ZM235.551 15.0528C234.156 15.8233 233.039 16.9713 232.19 18.4559L233.927 19.4481C234.614 18.2447 235.481 17.3767 236.518 16.8032L235.551 15.0528ZM232.186 18.4627C231.35 19.9529 230.954 21.6969 230.954 23.656H232.954C232.954 21.9671 233.295 20.5751 233.931 19.4412L232.186 18.4627ZM230.954 23.656C230.954 25.6167 231.351 27.3838 232.177 28.9277L233.94 27.9843C233.294 26.7762 232.954 25.3433 232.954 23.656H230.954ZM232.185 28.9434C233.028 30.454 234.137 31.6442 235.517 32.4795L236.552 30.7685C235.5 30.1318 234.625 29.21 233.932 27.9686L232.185 28.9434ZM235.543 32.495C236.935 33.2799 238.415 33.68 239.971 33.68V31.68C238.774 31.68 237.63 31.3761 236.526 30.753L235.543 32.495ZM239.971 33.68C241.554 33.68 243.039 33.2818 244.408 32.4894L243.405 30.7586C242.342 31.3742 241.203 31.68 239.971 31.68V33.68ZM244.408 32.4894C245.796 31.6856 246.896 30.5216 247.712 29.0323L245.957 28.0717C245.301 29.2704 244.449 30.1544 243.405 30.7586L244.408 32.4894ZM247.708 29.0394C248.571 27.4924 248.986 25.7195 248.986 23.752H246.986C246.986 25.4325 246.634 26.8596 245.961 28.0646L247.708 29.0394ZM266.166 14.392H265.166V18.0271L267.025 14.9035L266.166 14.392ZM269.334 11.272L269.823 12.1442L269.83 12.1402L269.334 11.272ZM274.086 10.12H275.086V9.12H274.086V10.12ZM274.086 15.784V16.784H275.086V15.784H274.086ZM267.798 17.416L267.101 16.6987L267.096 16.7038L267.091 16.7089L267.798 17.416ZM266.166 37V38H267.166V37H266.166ZM260.694 37H259.694V38H260.694V37ZM260.694 10.552V9.552H259.694V10.552H260.694ZM266.166 10.552H267.166V9.552H266.166V10.552ZM267.025 14.9035C267.739 13.7038 268.67 12.7909 269.823 12.1441L268.845 10.3999C267.373 11.2251 266.192 12.3922 265.306 13.8805L267.025 14.9035ZM269.83 12.1402C270.998 11.4729 272.405 11.12 274.086 11.12V9.12C272.119 9.12 270.358 9.53515 268.838 10.4038L269.83 12.1402ZM273.086 10.12V15.784H275.086V10.12H273.086ZM274.086 14.784H272.694V16.784H274.086V14.784ZM272.694 14.784C270.388 14.784 268.468 15.3706 267.101 16.6987L268.495 18.1333C269.367 17.2854 270.711 16.784 272.694 16.784V14.784ZM267.091 16.7089C265.716 18.0832 265.166 20.3102 265.166 23.08H267.166C267.166 20.4738 267.703 18.9248 268.505 18.1231L267.091 16.7089ZM265.166 23.08V37H267.166V23.08H265.166ZM266.166 36H260.694V38H266.166V36ZM261.694 37V10.552H259.694V37H261.694ZM260.694 11.552H266.166V9.552H260.694V11.552ZM265.166 10.552V14.392H267.166V10.552H265.166ZM278.924 16.6L278.046 16.1202L278.04 16.1308L278.924 16.6ZM283.436 11.848L283.946 12.7081L283.95 12.7055L283.436 11.848ZM294.908 11.272L294.489 12.18L294.499 12.1848L294.51 12.1893L294.908 11.272ZM298.94 14.248L298.157 14.8702L299.94 17.1131V14.248H298.94ZM298.94 1.48V0.48H297.94V1.48H298.94ZM304.46 1.48H305.46V0.48H304.46V1.48ZM304.46 37V38H305.46V37H304.46ZM298.94 37H297.94V38H298.94V37ZM298.94 33.016H299.94V29.8436L298.12 32.4425L298.94 33.016ZM295.196 36.184L294.734 35.2968L294.727 35.3007L295.196 36.184ZM283.436 35.704L282.904 36.5512L282.913 36.5564L282.921 36.5615L283.436 35.704ZM278.924 30.808L278.035 31.266L278.039 31.2741L278.043 31.2821L278.924 30.808ZM297.788 19L296.911 19.4803L296.915 19.4883L296.919 19.4961L297.788 19ZM294.86 15.928L294.359 16.7934L294.86 15.928ZM286.988 15.928L287.471 16.8032L287.48 16.7984L287.489 16.7934L286.988 15.928ZM284.012 18.952L283.143 18.4558L283.139 18.4627L284.012 18.952ZM284.012 28.456L283.13 28.9277L283.134 28.9355L283.138 28.9434L284.012 28.456ZM286.988 31.624L286.47 32.4795L286.483 32.4874L286.496 32.495L286.988 31.624ZM294.86 31.624L295.361 32.4894L294.86 31.624ZM297.788 28.552L296.914 28.0646L296.911 28.0717L297.788 28.552ZM278.292 23.656C278.292 21.1396 278.806 18.9529 279.807 17.0692L278.04 16.1308C276.865 18.3431 276.292 20.8604 276.292 23.656H278.292ZM279.801 17.0798C280.841 15.1788 282.222 13.7307 283.946 12.7081L282.925 10.9879C280.873 12.2053 279.247 13.9252 278.046 16.1202L279.801 17.0798ZM283.95 12.7055C285.708 11.6509 287.657 11.12 289.82 11.12V9.12C287.311 9.12 285.003 9.74113 282.921 10.9905L283.95 12.7055ZM289.82 11.12C291.394 11.12 292.948 11.4688 294.489 12.18L295.327 10.364C293.539 9.53915 291.701 9.12 289.82 9.12V11.12ZM294.51 12.1893C296.079 12.8705 297.282 13.7698 298.157 14.8702L299.722 13.6258C298.613 12.2302 297.128 11.1455 295.306 10.3547L294.51 12.1893ZM299.94 14.248V1.48H297.94V14.248H299.94ZM298.94 2.48H304.46V0.48H298.94V2.48ZM303.46 1.48V37H305.46V1.48H303.46ZM304.46 36H298.94V38H304.46V36ZM299.94 37V33.016H297.94V37H299.94ZM298.12 32.4425C297.33 33.5717 296.214 34.5275 294.734 35.2968L295.657 37.0712C297.378 36.1765 298.757 35.0203 299.759 33.5895L298.12 32.4425ZM294.727 35.3007C293.324 36.045 291.681 36.432 289.772 36.432V38.432C291.958 38.432 293.931 37.987 295.664 37.0673L294.727 35.3007ZM289.772 36.432C287.643 36.432 285.71 35.9025 283.95 34.8465L282.921 36.5615C285.001 37.8095 287.292 38.432 289.772 38.432V36.432ZM283.967 34.8568C282.235 33.7704 280.847 32.2709 279.804 30.3339L278.043 31.2821C279.24 33.5051 280.861 35.2696 282.904 36.5512L283.967 34.8568ZM279.813 30.35C278.806 28.3957 278.292 26.1717 278.292 23.656H276.292C276.292 26.4523 276.865 28.9963 278.035 31.266L279.813 30.35ZM299.94 23.752C299.94 21.7852 299.524 20.0239 298.656 18.5039L296.919 19.4961C297.587 20.6641 297.94 22.0708 297.94 23.752H299.94ZM298.665 18.5197C297.849 17.0304 296.749 15.8664 295.361 15.0626L294.359 16.7934C295.402 17.3976 296.254 18.2816 296.911 19.4803L298.665 18.5197ZM295.361 15.0626C293.992 14.2702 292.507 13.872 290.924 13.872V15.872C292.156 15.872 293.295 16.1778 294.359 16.7934L295.361 15.0626ZM290.924 13.872C289.34 13.872 287.855 14.2702 286.487 15.0626L287.489 16.7934C288.552 16.1778 289.691 15.872 290.924 15.872V13.872ZM286.504 15.0528C285.11 15.8233 283.992 16.9713 283.143 18.4559L284.88 19.4481C285.568 18.2447 286.434 17.3767 287.471 16.8032L286.504 15.0528ZM283.139 18.4627C282.304 19.9529 281.908 21.6969 281.908 23.656H283.908C283.908 21.9671 284.248 20.5751 284.884 19.4412L283.139 18.4627ZM281.908 23.656C281.908 25.6167 282.304 27.3838 283.13 28.9277L284.893 27.9843C284.247 26.7762 283.908 25.3433 283.908 23.656H281.908ZM283.138 28.9434C283.982 30.454 285.09 31.6442 286.47 32.4795L287.505 30.7685C286.453 30.1318 285.578 29.21 284.885 27.9686L283.138 28.9434ZM286.496 32.495C287.888 33.2799 289.368 33.68 290.924 33.68V31.68C289.727 31.68 288.583 31.3761 287.479 30.753L286.496 32.495ZM290.924 33.68C292.507 33.68 293.992 33.2818 295.361 32.4894L294.359 30.7586C293.295 31.3742 292.156 31.68 290.924 31.68V33.68ZM295.361 32.4894C296.749 31.6856 297.849 30.5216 298.665 29.0323L296.911 28.0717C296.254 29.2704 295.402 30.1544 294.359 30.7586L295.361 32.4894ZM298.661 29.0394C299.524 27.4924 299.94 25.7195 299.94 23.752H297.94C297.94 25.4325 297.587 26.8596 296.914 28.0646L298.661 29.0394ZM317.119 14.392H316.119V18.0271L317.978 14.9035L317.119 14.392ZM320.287 11.272L320.776 12.1442L320.783 12.1402L320.287 11.272ZM325.039 10.12H326.039V9.12H325.039V10.12ZM325.039 15.784V16.784H326.039V15.784H325.039ZM318.751 17.416L318.054 16.6987L318.049 16.7038L318.044 16.7089L318.751 17.416ZM317.119 37V38H318.119V37H317.119ZM311.647 37H310.647V38H311.647V37ZM311.647 10.552V9.552H310.647V10.552H311.647ZM317.119 10.552H318.119V9.552H317.119V10.552ZM317.978 14.9035C318.692 13.7038 319.623 12.7909 320.776 12.1441L319.798 10.3999C318.327 11.2251 317.145 12.3922 316.26 13.8805L317.978 14.9035ZM320.783 12.1402C321.951 11.4729 323.358 11.12 325.039 11.12V9.12C323.072 9.12 321.311 9.53515 319.791 10.4038L320.783 12.1402ZM324.039 10.12V15.784H326.039V10.12H324.039ZM325.039 14.784H323.647V16.784H325.039V14.784ZM323.647 14.784C321.341 14.784 319.421 15.3706 318.054 16.6987L319.448 18.1333C320.32 17.2854 321.664 16.784 323.647 16.784V14.784ZM318.044 16.7089C316.669 18.0832 316.119 20.3102 316.119 23.08H318.119C318.119 20.4738 318.656 18.9248 319.458 18.1231L318.044 16.7089ZM316.119 23.08V37H318.119V23.08H316.119ZM317.119 36H311.647V38H317.119V36ZM312.647 37V10.552H310.647V37H312.647ZM311.647 11.552H317.119V9.552H311.647V11.552ZM316.119 10.552V14.392H318.119V10.552H316.119ZM353.877 10.552L354.8 10.9371L355.378 9.552H353.877V10.552ZM337.653 49.432V50.432H338.319L338.576 49.8171L337.653 49.432ZM331.989 49.432L331.066 49.0464L330.487 50.432H331.989V49.432ZM337.365 36.568L338.287 36.9536L338.445 36.5761L338.293 36.1963L337.365 36.568ZM326.949 10.552V9.552H325.471L326.02 10.9237L326.949 10.552ZM333.045 10.552L333.983 10.2058L333.742 9.552H333.045V10.552ZM340.485 30.712L339.547 31.0582L340.467 33.5522L341.418 31.0699L340.485 30.712ZM348.213 10.552V9.552H347.525L347.279 10.1941L348.213 10.552ZM352.954 10.1669L336.73 49.0469L338.576 49.8171L354.8 10.9371L352.954 10.1669ZM337.653 48.432H331.989V50.432H337.653V48.432ZM332.911 49.8176L338.287 36.9536L336.442 36.1824L331.066 49.0464L332.911 49.8176ZM338.293 36.1963L327.877 10.1803L326.02 10.9237L336.436 36.9397L338.293 36.1963ZM326.949 11.552H333.045V9.552H326.949V11.552ZM332.107 10.8982L339.547 31.0582L341.423 30.3658L333.983 10.2058L332.107 10.8982ZM341.418 31.0699L349.146 10.9099L347.279 10.1941L339.551 30.3541L341.418 31.0699ZM348.213 11.552H353.877V9.552H348.213V11.552Z" fill="#D2D5FB" mask="url(#path-1-outside-1_406_67588)"/>
</svg>
