<svg width="369" height="51" viewBox="0 0 369 51" fill="none" xmlns="http://www.w3.org/2000/svg">
<mask id="path-1-outside-1_406_67587" maskUnits="userSpaceOnUse" x="-1" y="-1" width="372" height="53" fill="black">
<rect fill="white" x="-1" y="-1" width="372" height="53"/>
<path d="M11.496 3.64C15.048 3.64 18.152 4.328 20.808 5.704C23.496 7.048 25.56 9 27 11.56C28.472 14.088 29.208 17.048 29.208 20.44C29.208 23.832 28.472 26.776 27 29.272C25.56 31.768 23.496 33.688 20.808 35.032C18.152 36.344 15.048 37 11.496 37H0.6V3.64H11.496ZM11.496 32.536C15.4 32.536 18.392 31.48 20.472 29.368C22.552 27.256 23.592 24.28 23.592 20.44C23.592 16.568 22.552 13.544 20.472 11.368C18.392 9.192 15.4 8.104 11.496 8.104H6.072V32.536H11.496ZM58.8713 23.128C58.8713 24.12 58.8073 25.016 58.6793 25.816H38.4713C38.6313 27.928 39.4153 29.624 40.8233 30.904C42.2313 32.184 43.9593 32.824 46.0073 32.824C48.9513 32.824 51.0313 31.592 52.2473 29.128H58.1512C57.3513 31.56 55.8953 33.56 53.7833 35.128C51.7033 36.664 49.1113 37.432 46.0073 37.432C43.4793 37.432 41.2073 36.872 39.1913 35.752C37.2073 34.6 35.6393 33 34.4873 30.952C33.3673 28.872 32.8073 26.472 32.8073 23.752C32.8073 21.032 33.3513 18.648 34.4393 16.6C35.5593 14.52 37.1113 12.92 39.0953 11.8C41.1113 10.68 43.4153 10.12 46.0073 10.12C48.5033 10.12 50.7273 10.664 52.6793 11.752C54.6313 12.84 56.1513 14.376 57.2393 16.36C58.3273 18.312 58.8713 20.568 58.8713 23.128ZM53.1593 21.4C53.1273 19.384 52.4073 17.768 50.9993 16.552C49.5913 15.336 47.8473 14.728 45.7673 14.728C43.8793 14.728 42.2633 15.336 40.9193 16.552C39.5753 17.736 38.7753 19.352 38.5193 21.4H53.1593ZM73.8563 37.432C71.7763 37.432 69.9043 37.064 68.2403 36.328C66.6083 35.56 65.3123 34.536 64.3523 33.256C63.3923 31.944 62.8803 30.488 62.8163 28.888H68.4803C68.5763 30.008 69.1043 30.952 70.0643 31.72C71.0563 32.456 72.2883 32.824 73.7603 32.824C75.2963 32.824 76.4803 32.536 77.3123 31.96C78.1763 31.352 78.6083 30.584 78.6083 29.656C78.6083 28.664 78.1283 27.928 77.1683 27.448C76.2403 26.968 74.7523 26.44 72.7043 25.864C70.7203 25.32 69.1043 24.792 67.8563 24.28C66.6083 23.768 65.5203 22.984 64.5923 21.928C63.6963 20.872 63.2483 19.48 63.2483 17.752C63.2483 16.344 63.6643 15.064 64.4963 13.912C65.3283 12.728 66.5123 11.8 68.0483 11.128C69.6163 10.456 71.4083 10.12 73.4243 10.12C76.4323 10.12 78.8483 10.888 80.6723 12.424C82.5283 13.928 83.5203 15.992 83.6483 18.616H78.1763C78.0803 17.432 77.6003 16.488 76.7363 15.784C75.8723 15.08 74.7043 14.728 73.2323 14.728C71.7923 14.728 70.6883 15 69.9203 15.544C69.1523 16.088 68.7683 16.808 68.7683 17.704C68.7683 18.408 69.0243 19 69.5363 19.48C70.0483 19.96 70.6723 20.344 71.4083 20.632C72.1443 20.888 73.2323 21.224 74.6723 21.64C76.5923 22.152 78.1603 22.68 79.3763 23.224C80.6243 23.736 81.6963 24.504 82.5923 25.528C83.4883 26.552 83.9523 27.912 83.9843 29.608C83.9843 31.112 83.5683 32.456 82.7363 33.64C81.9043 34.824 80.7203 35.752 79.1843 36.424C77.6803 37.096 75.9043 37.432 73.8563 37.432ZM92.6809 7.048C91.6889 7.048 90.8569 6.712 90.1849 6.04C89.5129 5.368 89.1769 4.536 89.1769 3.544C89.1769 2.552 89.5129 1.72 90.1849 1.048C90.8569 0.375998 91.6889 0.0399981 92.6809 0.0399981C93.6409 0.0399981 94.4569 0.375998 95.1289 1.048C95.8009 1.72 96.1369 2.552 96.1369 3.544C96.1369 4.536 95.8009 5.368 95.1289 6.04C94.4569 6.712 93.6409 7.048 92.6809 7.048ZM95.3689 10.552V37H89.8969V10.552H95.3689ZM113.209 10.12C115.257 10.12 117.065 10.536 118.633 11.368C120.233 12.168 121.481 13.176 122.377 14.392V10.552H127.897V37.432C127.897 39.864 127.385 42.024 126.361 43.912C125.337 45.832 123.849 47.336 121.897 48.424C119.977 49.512 117.673 50.056 114.985 50.056C111.401 50.056 108.425 49.208 106.057 47.512C103.689 45.848 102.345 43.576 102.025 40.696H107.449C107.865 42.072 108.745 43.176 110.089 44.008C111.465 44.872 113.097 45.304 114.985 45.304C117.193 45.304 118.969 44.632 120.313 43.288C121.689 41.944 122.377 39.992 122.377 37.432V33.016C121.449 34.264 120.185 35.32 118.585 36.184C117.017 37.016 115.225 37.432 113.209 37.432C110.905 37.432 108.793 36.856 106.873 35.704C104.985 34.52 103.481 32.888 102.361 30.808C101.273 28.696 100.729 26.312 100.729 23.656C100.729 21 101.273 18.648 102.361 16.6C103.481 14.552 104.985 12.968 106.873 11.848C108.793 10.696 110.905 10.12 113.209 10.12ZM122.377 23.752C122.377 21.928 121.993 20.344 121.225 19C120.489 17.656 119.513 16.632 118.297 15.928C117.081 15.224 115.769 14.872 114.361 14.872C112.953 14.872 111.641 15.224 110.425 15.928C109.209 16.6 108.217 17.608 107.449 18.952C106.713 20.264 106.345 21.832 106.345 23.656C106.345 25.48 106.713 27.08 107.449 28.456C108.217 29.832 109.209 30.888 110.425 31.624C111.673 32.328 112.985 32.68 114.361 32.68C115.769 32.68 117.081 32.328 118.297 31.624C119.513 30.92 120.489 29.896 121.225 28.552C121.993 27.176 122.377 25.576 122.377 23.752ZM148.428 10.12C150.508 10.12 152.364 10.552 153.996 11.416C155.66 12.28 156.956 13.56 157.884 15.256C158.812 16.952 159.276 19 159.276 21.4V37H153.852V22.216C153.852 19.848 153.26 18.04 152.076 16.792C150.892 15.512 149.276 14.872 147.228 14.872C145.18 14.872 143.548 15.512 142.332 16.792C141.148 18.04 140.556 19.848 140.556 22.216V37H135.084V10.552H140.556V13.576C141.452 12.488 142.588 11.64 143.964 11.032C145.372 10.424 146.86 10.12 148.428 10.12ZM213.861 3.64V37H208.389V14.152L198.213 37H194.421L184.197 14.152V37H178.725V3.64H184.629L196.341 29.8L208.005 3.64H213.861ZM219.229 23.656C219.229 21 219.773 18.648 220.861 16.6C221.981 14.552 223.485 12.968 225.373 11.848C227.293 10.696 229.405 10.12 231.709 10.12C233.789 10.12 235.597 10.536 237.133 11.368C238.701 12.168 239.949 13.176 240.877 14.392V10.552H246.397V37H240.877V33.064C239.949 34.312 238.685 35.352 237.085 36.184C235.485 37.016 233.661 37.432 231.613 37.432C229.341 37.432 227.261 36.856 225.373 35.704C223.485 34.52 221.981 32.888 220.861 30.808C219.773 28.696 219.229 26.312 219.229 23.656ZM240.877 23.752C240.877 21.928 240.493 20.344 239.725 19C238.989 17.656 238.013 16.632 236.797 15.928C235.581 15.224 234.269 14.872 232.861 14.872C231.453 14.872 230.141 15.224 228.925 15.928C227.709 16.6 226.717 17.608 225.949 18.952C225.213 20.264 224.845 21.832 224.845 23.656C224.845 25.48 225.213 27.08 225.949 28.456C226.717 29.832 227.709 30.888 228.925 31.624C230.173 32.328 231.485 32.68 232.861 32.68C234.269 32.68 235.581 32.328 236.797 31.624C238.013 30.92 238.989 29.896 239.725 28.552C240.493 27.176 240.877 25.576 240.877 23.752ZM263.184 37.432C261.104 37.432 259.232 37.064 257.568 36.328C255.936 35.56 254.64 34.536 253.68 33.256C252.72 31.944 252.208 30.488 252.144 28.888H257.808C257.904 30.008 258.432 30.952 259.392 31.72C260.384 32.456 261.616 32.824 263.088 32.824C264.624 32.824 265.808 32.536 266.64 31.96C267.504 31.352 267.936 30.584 267.936 29.656C267.936 28.664 267.456 27.928 266.496 27.448C265.568 26.968 264.08 26.44 262.032 25.864C260.048 25.32 258.432 24.792 257.184 24.28C255.936 23.768 254.848 22.984 253.92 21.928C253.024 20.872 252.576 19.48 252.576 17.752C252.576 16.344 252.992 15.064 253.824 13.912C254.656 12.728 255.84 11.8 257.376 11.128C258.944 10.456 260.736 10.12 262.752 10.12C265.76 10.12 268.176 10.888 270 12.424C271.856 13.928 272.848 15.992 272.976 18.616H267.504C267.408 17.432 266.928 16.488 266.064 15.784C265.2 15.08 264.032 14.728 262.56 14.728C261.12 14.728 260.016 15 259.248 15.544C258.48 16.088 258.096 16.808 258.096 17.704C258.096 18.408 258.352 19 258.864 19.48C259.376 19.96 260 20.344 260.736 20.632C261.472 20.888 262.56 21.224 264 21.64C265.92 22.152 267.488 22.68 268.704 23.224C269.952 23.736 271.024 24.504 271.92 25.528C272.816 26.552 273.28 27.912 273.312 29.608C273.312 31.112 272.896 32.456 272.064 33.64C271.232 34.824 270.048 35.752 268.512 36.424C267.008 37.096 265.232 37.432 263.184 37.432ZM285.609 15.016V29.656C285.609 30.648 285.833 31.368 286.281 31.816C286.761 32.232 287.561 32.44 288.681 32.44H292.041V37H287.721C285.257 37 283.369 36.424 282.057 35.272C280.745 34.12 280.089 32.248 280.089 29.656V15.016H276.969V10.552H280.089V3.976H285.609V10.552H292.041V15.016H285.609ZM321.324 23.128C321.324 24.12 321.26 25.016 321.132 25.816H300.924C301.084 27.928 301.868 29.624 303.276 30.904C304.684 32.184 306.412 32.824 308.46 32.824C311.404 32.824 313.484 31.592 314.7 29.128H320.604C319.804 31.56 318.348 33.56 316.236 35.128C314.156 36.664 311.564 37.432 308.46 37.432C305.932 37.432 303.66 36.872 301.644 35.752C299.66 34.6 298.092 33 296.94 30.952C295.82 28.872 295.26 26.472 295.26 23.752C295.26 21.032 295.804 18.648 296.892 16.6C298.012 14.52 299.564 12.92 301.548 11.8C303.564 10.68 305.868 10.12 308.46 10.12C310.956 10.12 313.18 10.664 315.132 11.752C317.084 12.84 318.604 14.376 319.692 16.36C320.78 18.312 321.324 20.568 321.324 23.128ZM315.612 21.4C315.58 19.384 314.86 17.768 313.452 16.552C312.044 15.336 310.3 14.728 308.22 14.728C306.332 14.728 304.716 15.336 303.372 16.552C302.028 17.736 301.228 19.352 300.972 21.4H315.612ZM332.181 14.392C332.981 13.048 334.037 12.008 335.349 11.272C336.693 10.504 338.277 10.12 340.101 10.12V15.784H338.709C336.565 15.784 334.933 16.328 333.813 17.416C332.725 18.504 332.181 20.392 332.181 23.08V37H326.709V10.552H332.181V14.392ZM368.939 10.552L352.715 49.432H347.051L352.427 36.568L342.011 10.552H348.107L355.547 30.712L363.275 10.552H368.939Z"/>
</mask>
<path d="M20.808 5.704L20.348 6.59192L20.3544 6.59522L20.3608 6.59843L20.808 5.704ZM27 11.56L26.1284 12.0503L26.1321 12.0568L26.1358 12.0632L27 11.56ZM27 29.272L26.1386 28.764L26.1338 28.7723L27 29.272ZM20.808 35.032L21.2509 35.9286L21.2552 35.9264L20.808 35.032ZM0.6 37H-0.4V38H0.6V37ZM0.6 3.64V2.64H-0.4V3.64H0.6ZM20.472 29.368L19.7595 28.6663L20.472 29.368ZM6.072 8.104V7.104H5.072V8.104H6.072ZM6.072 32.536H5.072V33.536H6.072V32.536ZM11.496 4.64C14.9178 4.64 17.8585 5.30217 20.348 6.59192L21.268 4.81608C18.4455 3.35382 15.1782 2.64 11.496 2.64V4.64ZM20.3608 6.59843C22.8745 7.85531 24.7887 9.66858 26.1284 12.0503L27.8716 11.0697C26.3313 8.33142 24.1175 6.24069 21.2552 4.80957L20.3608 6.59843ZM26.1358 12.0632C27.5055 14.4155 28.208 17.1962 28.208 20.44H30.208C30.208 16.8998 29.4385 13.7605 27.8642 11.0568L26.1358 12.0632ZM28.208 20.44C28.208 23.6841 27.5054 26.4464 26.1386 28.764L27.8614 29.78C29.4386 27.1056 30.208 23.9799 30.208 20.44H28.208ZM26.1338 28.7723C24.7961 31.091 22.8814 32.8773 20.3608 34.1376L21.2552 35.9264C24.1106 34.4987 26.3239 32.445 27.8662 29.7717L26.1338 28.7723ZM20.3651 34.1354C17.8716 35.3672 14.9246 36 11.496 36V38C15.1714 38 18.4324 37.3208 21.2509 35.9286L20.3651 34.1354ZM11.496 36H0.6V38H11.496V36ZM1.6 37V3.64H-0.4V37H1.6ZM0.6 4.64H11.496V2.64H0.6V4.64ZM11.496 33.536C15.5795 33.536 18.8625 32.4274 21.1845 30.0697L19.7595 28.6663C17.9215 30.5326 15.2205 31.536 11.496 31.536V33.536ZM21.1845 30.0697C23.4986 27.72 24.592 24.4618 24.592 20.44H22.592C22.592 24.0982 21.6055 26.792 19.7595 28.6663L21.1845 30.0697ZM24.592 20.44C24.592 16.3872 23.4994 13.0879 21.1949 10.677L19.7491 12.059C21.6046 14.0001 22.592 16.7488 22.592 20.44H24.592ZM21.1949 10.677C18.8745 8.24954 15.5879 7.104 11.496 7.104V9.104C15.2121 9.104 17.9095 10.1345 19.7491 12.059L21.1949 10.677ZM11.496 7.104H6.072V9.104H11.496V7.104ZM5.072 8.104V32.536H7.072V8.104H5.072ZM6.072 33.536H11.496V31.536H6.072V33.536ZM58.6793 25.816V26.816H59.532L59.6667 25.974L58.6793 25.816ZM38.4712 25.816V24.816H37.3926L37.4741 25.8915L38.4712 25.816ZM40.8232 30.904L40.1506 31.6439L40.8232 30.904ZM52.2473 29.128V28.128H51.6256L51.3505 28.6855L52.2473 29.128ZM58.1512 29.128L59.1012 29.4405L59.5329 28.128H58.1512V29.128ZM53.7833 35.128L54.3773 35.9324L54.3794 35.9309L53.7833 35.128ZM39.1912 35.752L38.6891 36.6168L38.6973 36.6216L38.7056 36.6262L39.1912 35.752ZM34.4873 30.952L33.6068 31.4261L33.6112 31.4342L33.6157 31.4423L34.4873 30.952ZM34.4393 16.6L33.5588 16.1259L33.5561 16.1308L34.4393 16.6ZM39.0952 11.8L38.6096 10.9258L38.6037 10.9292L39.0952 11.8ZM52.6793 11.752L53.1661 10.8785L52.6793 11.752ZM57.2393 16.36L56.3624 16.8408L56.3658 16.8469L57.2393 16.36ZM53.1593 21.4V22.4H54.1753L54.1591 21.3841L53.1593 21.4ZM50.9993 16.552L51.6529 15.7952L50.9993 16.552ZM40.9193 16.552L41.5803 17.3024L41.5902 17.2935L40.9193 16.552ZM38.5192 21.4L37.527 21.276L37.3865 22.4H38.5192V21.4ZM57.8713 23.128C57.8713 24.0784 57.8098 24.9203 57.6918 25.658L59.6667 25.974C59.8047 25.1117 59.8713 24.1616 59.8713 23.128H57.8713ZM58.6793 24.816H38.4712V26.816H58.6793V24.816ZM37.4741 25.8915C37.651 28.227 38.5315 30.1721 40.1506 31.6439L41.4959 30.1641C40.299 29.0759 39.6115 27.629 39.4684 25.7405L37.4741 25.8915ZM40.1506 31.6439C41.7574 33.1047 43.7312 33.824 46.0073 33.824V31.824C44.1873 31.824 42.7051 31.2633 41.4959 30.1641L40.1506 31.6439ZM46.0073 33.824C47.6196 33.824 49.0602 33.4858 50.2849 32.7604C51.5137 32.0326 52.4623 30.952 53.144 29.5705L51.3505 28.6855C50.8162 29.768 50.1168 30.5354 49.2656 31.0396C48.4103 31.5462 47.3389 31.824 46.0073 31.824V33.824ZM52.2473 30.128H58.1512V28.128H52.2473V30.128ZM57.2013 28.8155C56.4677 31.0458 55.1383 32.8765 53.1872 34.3251L54.3794 35.9309C56.6522 34.2435 58.2348 32.0742 59.1012 29.4405L57.2013 28.8155ZM53.1892 34.3236C51.3135 35.7087 48.9414 36.432 46.0073 36.432V38.432C49.2811 38.432 52.093 37.6193 54.3773 35.9324L53.1892 34.3236ZM46.0073 36.432C43.6324 36.432 41.5303 35.9075 39.6769 34.8778L38.7056 36.6262C40.8842 37.8365 43.3261 38.432 46.0073 38.432V36.432ZM39.6934 34.8872C37.8676 33.8271 36.4255 32.3581 35.3588 30.4617L33.6157 31.4423C34.853 33.6419 36.5469 35.3729 38.6891 36.6168L39.6934 34.8872ZM35.3677 30.4779C34.3373 28.5643 33.8073 26.3318 33.8073 23.752H31.8073C31.8073 26.6122 32.3972 29.1797 33.6068 31.4261L35.3677 30.4779ZM33.8073 23.752C33.8073 21.1673 34.3234 18.9496 35.3224 17.0692L33.5561 16.1308C32.3791 18.3464 31.8073 20.8967 31.8073 23.752H33.8073ZM35.3197 17.0741C36.3536 15.154 37.7736 13.6944 39.5868 12.6708L38.6037 10.9292C36.4489 12.1456 34.7649 13.886 33.5588 16.1259L35.3197 17.0741ZM39.5809 12.6742C41.4307 11.6465 43.5638 11.12 46.0073 11.12V9.12C43.2667 9.12 40.7918 9.71349 38.6096 10.9258L39.5809 12.6742ZM46.0073 11.12C48.3531 11.12 50.406 11.6298 52.1924 12.6255L53.1661 10.8785C51.0485 9.69819 48.6534 9.12 46.0073 9.12V11.12ZM52.1924 12.6255C53.9779 13.6207 55.3637 15.0196 56.3624 16.8408L58.1161 15.8792C56.9388 13.7324 55.2846 12.0593 53.1661 10.8785L52.1924 12.6255ZM56.3658 16.8469C57.3594 18.6295 57.8713 20.7133 57.8713 23.128H59.8713C59.8713 20.4227 59.2951 17.9945 58.1127 15.8731L56.3658 16.8469ZM54.1591 21.3841C54.123 19.1099 53.2961 17.2144 51.6529 15.7952L50.3456 17.3088C51.5184 18.3216 52.1315 19.6581 52.1594 21.4159L54.1591 21.3841ZM51.6529 15.7952C50.0415 14.4036 48.0569 13.728 45.7673 13.728V15.728C47.6376 15.728 49.141 16.2684 50.3456 17.3088L51.6529 15.7952ZM45.7673 13.728C43.6427 13.728 41.7844 14.4207 40.2483 15.8105L41.5902 17.2935C42.7421 16.2513 44.1158 15.728 45.7673 15.728V13.728ZM40.2582 15.8016C38.7034 17.1714 37.8083 19.025 37.527 21.276L39.5115 21.524C39.7422 19.679 40.4471 18.3006 41.5803 17.3024L40.2582 15.8016ZM38.5192 22.4H53.1593V20.4H38.5192V22.4ZM68.2402 36.328L67.8145 37.2328L67.825 37.2378L67.8357 37.2425L68.2402 36.328ZM64.3522 33.256L63.5452 33.8465L63.5523 33.856L64.3522 33.256ZM62.8163 28.888V27.888H61.7755L61.817 28.928L62.8163 28.888ZM68.4802 28.888L69.4766 28.8026L69.3982 27.888H68.4802V28.888ZM70.0642 31.72L69.4396 32.5009L69.4538 32.5122L69.4684 32.5231L70.0642 31.72ZM77.3122 31.96L77.8815 32.7822L77.8877 32.7778L77.3122 31.96ZM77.1683 27.448L76.7088 28.3363L76.721 28.3424L77.1683 27.448ZM72.7043 25.864L72.975 24.9013L72.9687 24.8996L72.7043 25.864ZM67.8562 24.28L67.4767 25.2052L67.8562 24.28ZM64.5922 21.928L63.8297 22.575L63.8354 22.5816L63.8411 22.5881L64.5922 21.928ZM64.4963 13.912L65.307 14.4975L65.3144 14.4869L64.4963 13.912ZM68.0482 11.128L67.6543 10.2088L67.6474 10.2118L68.0482 11.128ZM80.6722 12.424L80.0281 13.1889L80.0353 13.195L80.0427 13.2009L80.6722 12.424ZM83.6483 18.616V19.616H84.6982L84.6471 18.5673L83.6483 18.616ZM78.1763 18.616L77.1795 18.6968L77.2541 19.616H78.1763V18.616ZM76.7363 15.784L77.3679 15.0088L76.7363 15.784ZM69.9202 15.544L69.3422 14.728L69.9202 15.544ZM69.5362 19.48L68.8523 20.2095V20.2095L69.5362 19.48ZM71.4082 20.632L71.0439 21.5632L71.0617 21.5702L71.0797 21.5765L71.4082 20.632ZM74.6722 21.64L74.3947 22.6007L74.4046 22.6036L74.4146 22.6062L74.6722 21.64ZM79.3763 23.224L78.9679 24.1368L78.9822 24.1432L78.9967 24.1492L79.3763 23.224ZM82.5923 25.528L81.8397 26.1865L82.5923 25.528ZM83.9843 29.608H84.9843V29.5986L84.9841 29.5891L83.9843 29.608ZM82.7363 33.64L81.9181 33.0651L82.7363 33.64ZM79.1842 36.424L78.7834 35.5078L78.7763 35.511L79.1842 36.424ZM73.8562 36.432C71.8957 36.432 70.1643 36.0856 68.6448 35.4135L67.8357 37.2425C69.6442 38.0424 71.6568 38.432 73.8562 38.432V36.432ZM68.666 35.4232C67.1628 34.7157 66.0024 33.7895 65.1523 32.656L63.5523 33.856C64.6221 35.2825 66.0537 36.4043 67.8145 37.2328L68.666 35.4232ZM65.1593 32.6655C64.3147 31.5112 63.8714 30.2463 63.8155 28.848L61.817 28.928C61.8891 30.7297 62.4698 32.3768 63.5452 33.8465L65.1593 32.6655ZM62.8163 29.888H68.4802V27.888H62.8163V29.888ZM67.4839 28.9734C67.6056 30.3935 68.2879 31.5795 69.4396 32.5009L70.6889 30.9391C69.9206 30.3245 69.5469 29.6225 69.4766 28.8026L67.4839 28.9734ZM69.4684 32.5231C70.6639 33.4101 72.116 33.824 73.7603 33.824V31.824C72.4605 31.824 71.4486 31.5019 70.6601 30.9169L69.4684 32.5231ZM73.7603 33.824C75.4009 33.824 76.8161 33.5197 77.8815 32.7822L76.743 31.1378C76.1444 31.5523 75.1916 31.824 73.7603 31.824V33.824ZM77.8877 32.7778C78.9753 32.0125 79.6083 30.9583 79.6083 29.656H77.6083C77.6083 30.2097 77.3772 30.6915 76.7368 31.1422L77.8877 32.7778ZM79.6083 29.656C79.6083 28.9918 79.4451 28.3646 79.0859 27.8137C78.7296 27.2674 78.2191 26.8554 77.6155 26.5536L76.721 28.3424C77.0774 28.5206 77.2869 28.7166 77.4106 28.9063C77.5314 29.0914 77.6083 29.3282 77.6083 29.656H79.6083ZM77.6277 26.5598C76.6051 26.0309 75.0357 25.4809 72.975 24.9013L72.4335 26.8266C74.4688 27.3991 75.8754 27.9051 76.7088 28.3362L77.6277 26.5598ZM72.9687 24.8996C71.0058 24.3614 69.4322 23.8457 68.2358 23.3548L67.4767 25.2052C68.7763 25.7383 70.4347 26.2786 72.4398 26.8284L72.9687 24.8996ZM68.2358 23.3548C67.1365 22.9038 66.1741 22.2131 65.3434 21.2679L63.8411 22.5881C64.8664 23.7549 66.08 24.6322 67.4767 25.2052L68.2358 23.3548ZM65.3548 21.281C64.6472 20.4471 64.2483 19.3036 64.2483 17.752H62.2483C62.2483 19.6564 62.7453 21.2969 63.8297 22.575L65.3548 21.281ZM64.2483 17.752C64.2483 16.5563 64.5968 15.4808 65.3069 14.4975L63.6856 13.3265C62.7317 14.6472 62.2483 16.1317 62.2483 17.752H64.2483ZM65.3144 14.4869C66.0254 13.4752 67.0538 12.6546 68.4491 12.0442L67.6474 10.2118C65.9707 10.9454 64.6311 11.9808 63.6781 13.3371L65.3144 14.4869ZM68.4422 12.0471C69.8652 11.4373 71.5194 11.12 73.4242 11.12V9.12C71.2971 9.12 69.3673 9.47472 67.6543 10.2089L68.4422 12.0471ZM73.4242 11.12C76.2598 11.12 78.4275 11.8411 80.0281 13.1889L81.3164 11.6591C79.269 9.93495 76.6047 9.12 73.4242 9.12V11.12ZM80.0427 13.2009C81.6541 14.5067 82.5338 16.2932 82.6494 18.6647L84.6471 18.5673C84.5067 15.6908 83.4024 13.3493 81.3018 11.6471L80.0427 13.2009ZM83.6483 17.616H78.1763V19.616H83.6483V17.616ZM79.173 18.5352C79.0566 17.0996 78.4581 15.8971 77.3679 15.0088L76.1046 16.5592C76.7424 17.0789 77.1039 17.7644 77.1795 18.6968L79.173 18.5352ZM77.3679 15.0088C76.2753 14.1185 74.8601 13.728 73.2323 13.728V15.728C74.5484 15.728 75.4692 16.0415 76.1046 16.5592L77.3679 15.0088ZM73.2323 13.728C71.688 13.728 70.3472 14.0161 69.3422 14.728L70.4983 16.36C71.0293 15.9839 71.8965 15.728 73.2323 15.728V13.728ZM69.3422 14.728C68.3253 15.4483 67.7682 16.4648 67.7682 17.704H69.7682C69.7682 17.1512 69.9792 16.7277 70.4983 16.36L69.3422 14.728ZM67.7682 17.704C67.7682 18.6834 68.1379 19.5398 68.8523 20.2095L70.2202 18.7505C69.9106 18.4602 69.7682 18.1326 69.7682 17.704H67.7682ZM68.8523 20.2095C69.468 20.7868 70.2043 21.2347 71.0439 21.5632L71.7727 19.7008C71.1402 19.4533 70.6285 19.1332 70.2202 18.7505L68.8523 20.2095ZM71.0797 21.5765C71.8415 21.8415 72.9501 22.1834 74.3947 22.6007L74.9498 20.6793C73.5144 20.2646 72.447 19.9345 71.7368 19.6875L71.0797 21.5765ZM74.4146 22.6062C76.3055 23.1105 77.818 23.6224 78.9679 24.1368L79.7846 22.3112C78.5025 21.7376 76.879 21.1935 74.9299 20.6738L74.4146 22.6062ZM78.9967 24.1492C80.1001 24.6018 81.0448 25.278 81.8397 26.1865L83.3448 24.8695C82.3477 23.73 81.1484 22.8702 79.7558 22.2988L78.9967 24.1492ZM81.8397 26.1865C82.5451 26.9927 82.9557 28.1066 82.9844 29.6269L84.9841 29.5891C84.9488 27.7174 84.4314 26.1113 83.3448 24.8695L81.8397 26.1865ZM82.9843 29.608C82.9843 30.9148 82.6269 32.0563 81.9181 33.0651L83.5544 34.2149C84.5096 32.8557 84.9843 31.3092 84.9843 29.608H82.9843ZM81.9181 33.0651C81.2071 34.0768 80.1787 34.8974 78.7834 35.5078L79.5851 37.3402C81.2618 36.6066 82.6014 35.5712 83.5544 34.2149L81.9181 33.0651ZM78.7763 35.511C77.4279 36.1135 75.7969 36.432 73.8562 36.432V38.432C76.0116 38.432 77.9326 38.0785 79.5922 37.337L78.7763 35.511ZM90.1849 6.04L90.892 5.33289V5.33289L90.1849 6.04ZM90.1849 1.048L90.892 1.75511V1.75511L90.1849 1.048ZM95.1289 1.048L94.4218 1.75511V1.75511L95.1289 1.048ZM95.1289 6.04L94.4218 5.33289V5.33289L95.1289 6.04ZM95.3689 10.552H96.3689V9.552H95.3689V10.552ZM95.3689 37V38H96.3689V37H95.3689ZM89.8969 37H88.8969V38H89.8969V37ZM89.8969 10.552V9.552H88.8969V10.552H89.8969ZM92.6809 6.048C91.9411 6.048 91.3675 5.80839 90.892 5.33289L89.4778 6.7471C90.3463 7.61561 91.4366 8.048 92.6809 8.048V6.048ZM90.892 5.33289C90.4165 4.85739 90.1769 4.28374 90.1769 3.544H88.1769C88.1769 4.78826 88.6093 5.8786 89.4778 6.7471L90.892 5.33289ZM90.1769 3.544C90.1769 2.80426 90.4165 2.2306 90.892 1.75511L89.4778 0.340892C88.6093 1.20939 88.1769 2.29974 88.1769 3.544H90.1769ZM90.892 1.75511C91.3675 1.27961 91.9411 1.04 92.6809 1.04V-0.960002C91.4366 -0.960002 90.3463 -0.527611 89.4778 0.340893L90.892 1.75511ZM92.6809 1.04C93.3787 1.04 93.9394 1.27277 94.4218 1.75511L95.836 0.340893C94.9743 -0.520774 93.9031 -0.960002 92.6809 -0.960002V1.04ZM94.4218 1.75511C94.8973 2.2306 95.1369 2.80426 95.1369 3.544H97.1369C97.1369 2.29974 96.7045 1.20939 95.836 0.340892L94.4218 1.75511ZM95.1369 3.544C95.1369 4.28374 94.8973 4.85739 94.4218 5.33289L95.836 6.7471C96.7045 5.8786 97.1369 4.78826 97.1369 3.544H95.1369ZM94.4218 5.33289C93.9394 5.81523 93.3787 6.048 92.6809 6.048V8.048C93.9031 8.048 94.9743 7.60877 95.836 6.7471L94.4218 5.33289ZM94.3689 10.552V37H96.3689V10.552H94.3689ZM95.3689 36H89.8969V38H95.3689V36ZM90.8969 37V10.552H88.8969V37H90.8969ZM89.8969 11.552H95.3689V9.552H89.8969V11.552ZM118.633 11.368L118.164 12.2513L118.175 12.257L118.186 12.2624L118.633 11.368ZM122.377 14.392L121.572 14.9852L123.377 17.4349V14.392H122.377ZM122.377 10.552V9.552H121.377V10.552H122.377ZM127.897 10.552H128.897V9.552H127.897V10.552ZM126.361 43.912L125.482 43.4352L125.479 43.4414L126.361 43.912ZM121.897 48.424L121.41 47.5505L121.404 47.554L121.897 48.424ZM106.057 47.512L106.639 46.699L106.632 46.6938L106.057 47.512ZM102.025 40.696V39.696H100.908L101.031 40.8064L102.025 40.696ZM107.449 40.696L108.406 40.4066L108.191 39.696H107.449V40.696ZM110.089 44.008L110.621 43.1611L110.615 43.1577L110.089 44.008ZM120.313 43.288L119.614 42.5726L119.606 42.5809L120.313 43.288ZM122.377 33.016H123.377V29.9953L121.575 32.4193L122.377 33.016ZM118.585 36.184L119.054 37.0674L119.06 37.0639L118.585 36.184ZM106.873 35.704L106.342 36.5512L106.35 36.5564L106.359 36.5615L106.873 35.704ZM102.361 30.808L101.472 31.266L101.476 31.2741L101.481 31.2821L102.361 30.808ZM102.361 16.6L101.484 16.1202L101.478 16.1308L102.361 16.6ZM106.873 11.848L107.383 12.7081L107.388 12.7055L106.873 11.848ZM121.225 19L120.348 19.4803L120.352 19.4883L120.357 19.4961L121.225 19ZM118.297 15.928L117.796 16.7934L118.297 15.928ZM110.425 15.928L110.909 16.8032L110.918 16.7984L110.926 16.7934L110.425 15.928ZM107.449 18.952L106.581 18.4558L106.577 18.4627L107.449 18.952ZM107.449 28.456L106.567 28.9277L106.572 28.9355L106.576 28.9434L107.449 28.456ZM110.425 31.624L109.907 32.4795L109.92 32.4874L109.934 32.495L110.425 31.624ZM118.297 31.624L118.798 32.4894L118.297 31.624ZM121.225 28.552L120.352 28.0646L120.348 28.0717L121.225 28.552ZM113.209 11.12C115.119 11.12 116.762 11.507 118.164 12.2513L119.102 10.4846C117.369 9.56502 115.395 9.12 113.209 9.12V11.12ZM118.186 12.2624C119.67 13.0047 120.786 13.9179 121.572 14.9852L123.182 13.7988C122.177 12.4341 120.796 11.3313 119.08 10.4736L118.186 12.2624ZM123.377 14.392V10.552H121.377V14.392H123.377ZM122.377 11.552H127.897V9.552H122.377V11.552ZM126.897 10.552V37.432H128.897V10.552H126.897ZM126.897 37.432C126.897 39.7198 126.417 41.7121 125.482 43.4352L127.24 44.3888C128.354 42.3359 128.897 40.0082 128.897 37.432H126.897ZM125.479 43.4414C124.548 45.1871 123.199 46.5534 121.41 47.5505L122.384 49.2975C124.499 48.1186 126.127 46.4769 127.243 44.3826L125.479 43.4414ZM121.404 47.554C119.664 48.54 117.538 49.056 114.985 49.056V51.056C117.808 51.056 120.29 50.484 122.39 49.294L121.404 47.554ZM114.985 49.056C111.561 49.056 108.802 48.2477 106.639 46.699L105.475 48.325C108.048 50.1683 111.241 51.056 114.985 51.056V49.056ZM106.632 46.6938C104.499 45.195 103.307 43.1809 103.019 40.5856L101.031 40.8064C101.383 43.9711 102.879 46.501 105.482 48.3302L106.632 46.6938ZM102.025 41.696H107.449V39.696H102.025V41.696ZM106.492 40.9854C106.986 42.6185 108.034 43.9118 109.563 44.8583L110.615 43.1577C109.456 42.4402 108.745 41.5255 108.406 40.4066L106.492 40.9854ZM109.557 44.8549C111.117 45.8343 112.94 46.304 114.985 46.304V44.304C113.254 44.304 111.813 43.9097 110.621 43.1611L109.557 44.8549ZM114.985 46.304C117.412 46.304 119.458 45.5571 121.02 43.9951L119.606 42.5809C118.48 43.7069 116.974 44.304 114.985 44.304V46.304ZM121.012 44.0034C122.638 42.4152 123.377 40.1688 123.377 37.432H121.377C121.377 39.8152 120.74 41.4728 119.614 42.5726L121.012 44.0034ZM123.377 37.432V33.016H121.377V37.432H123.377ZM121.575 32.4193C120.747 33.5319 119.603 34.4978 118.11 35.3041L119.06 37.0639C120.767 36.1422 122.151 34.9961 123.18 33.6127L121.575 32.4193ZM118.116 35.3007C116.711 36.0462 115.084 36.432 113.209 36.432V38.432C115.366 38.432 117.323 37.9858 119.054 37.0673L118.116 35.3007ZM113.209 36.432C111.081 36.432 109.148 35.9025 107.388 34.8465L106.359 36.5615C108.439 37.8095 110.729 38.432 113.209 38.432V36.432ZM107.404 34.8568C105.672 33.7704 104.285 32.2709 103.242 30.3339L101.481 31.2821C102.678 33.5051 104.298 35.2696 106.342 36.5512L107.404 34.8568ZM103.25 30.35C102.243 28.3957 101.729 26.1717 101.729 23.656H99.7291C99.7291 26.4523 100.303 28.9963 101.472 31.266L103.25 30.35ZM101.729 23.656C101.729 21.1396 102.243 18.9529 103.244 17.0692L101.478 16.1308C100.303 18.3431 99.7291 20.8604 99.7291 23.656H101.729ZM103.238 17.0798C104.278 15.1788 105.659 13.7307 107.383 12.7081L106.363 10.9879C104.311 12.2053 102.684 13.9252 101.484 16.1202L103.238 17.0798ZM107.388 12.7055C109.148 11.6495 111.081 11.12 113.209 11.12V9.12C110.729 9.12 108.439 9.74246 106.359 10.9905L107.388 12.7055ZM123.377 23.752C123.377 21.7852 122.962 20.0239 122.093 18.5039L120.357 19.4961C121.024 20.6641 121.377 22.0708 121.377 23.752H123.377ZM122.102 18.5197C121.287 17.0304 120.187 15.8664 118.798 15.0626L117.796 16.7934C118.84 17.3976 119.692 18.2816 120.348 19.4803L122.102 18.5197ZM118.798 15.0626C117.43 14.2702 115.945 13.872 114.361 13.872V15.872C115.594 15.872 116.733 16.1778 117.796 16.7934L118.798 15.0626ZM114.361 13.872C112.778 13.872 111.293 14.2702 109.924 15.0626L110.926 16.7934C111.99 16.1778 113.129 15.872 114.361 15.872V13.872ZM109.941 15.0528C108.547 15.8233 107.429 16.9713 106.581 18.4559L108.317 19.4481C109.005 18.2447 109.871 17.3767 110.909 16.8032L109.941 15.0528ZM106.577 18.4627C105.741 19.9529 105.345 21.6969 105.345 23.656H107.345C107.345 21.9671 107.685 20.5751 108.321 19.4412L106.577 18.4627ZM105.345 23.656C105.345 25.6167 105.742 27.3838 106.567 28.9277L108.331 27.9843C107.685 26.7762 107.345 25.3433 107.345 23.656H105.345ZM106.576 28.9434C107.419 30.454 108.527 31.6442 109.907 32.4795L110.943 30.7685C109.891 30.1318 109.015 29.21 108.322 27.9686L106.576 28.9434ZM109.934 32.495C111.325 33.2799 112.806 33.68 114.361 33.68V31.68C113.165 31.68 112.021 31.3761 110.916 30.753L109.934 32.495ZM114.361 33.68C115.945 33.68 117.43 33.2818 118.798 32.4894L117.796 30.7586C116.733 31.3742 115.594 31.68 114.361 31.68V33.68ZM118.798 32.4894C120.187 31.6856 121.287 30.5216 122.102 29.0323L120.348 28.0717C119.692 29.2704 118.84 30.1544 117.796 30.7586L118.798 32.4894ZM122.098 29.0394C122.962 27.4924 123.377 25.7195 123.377 23.752H121.377C121.377 25.4325 121.024 26.8596 120.352 28.0646L122.098 29.0394ZM153.996 11.416L153.528 12.2998L153.536 12.3035L153.996 11.416ZM157.884 15.256L157.007 15.736V15.736L157.884 15.256ZM159.276 37V38H160.276V37H159.276ZM153.852 37H152.852V38H153.852V37ZM152.076 16.792L151.342 17.4711L151.351 17.4803L152.076 16.792ZM142.332 16.792L141.607 16.1032L141.607 16.1037L142.332 16.792ZM140.556 37V38H141.556V37H140.556ZM135.084 37H134.084V38H135.084V37ZM135.084 10.552V9.552H134.084V10.552H135.084ZM140.556 10.552H141.556V9.552H140.556V10.552ZM140.556 13.576H139.556V16.3633L141.328 14.2117L140.556 13.576ZM143.964 11.032L143.568 10.1139L143.56 10.1173L143.964 11.032ZM148.428 11.12C150.366 11.12 152.058 11.5213 153.528 12.2998L154.464 10.5322C152.671 9.58269 150.651 9.12 148.428 9.12V11.12ZM153.536 12.3035C155.018 13.073 156.171 14.2084 157.007 15.736L158.762 14.776C157.741 12.9116 156.303 11.487 154.457 10.5285L153.536 12.3035ZM157.007 15.736C157.837 17.2534 158.276 19.1278 158.276 21.4H160.276C160.276 18.8722 159.787 16.6506 158.762 14.776L157.007 15.736ZM158.276 21.4V37H160.276V21.4H158.276ZM159.276 36H153.852V38H159.276V36ZM154.852 37V22.216H152.852V37H154.852ZM154.852 22.216C154.852 19.6896 154.219 17.598 152.802 16.1037L151.351 17.4803C152.301 18.482 152.852 20.0064 152.852 22.216H154.852ZM152.81 16.113C151.404 14.5924 149.502 13.872 147.228 13.872V15.872C149.051 15.872 150.381 16.4316 151.342 17.471L152.81 16.113ZM147.228 13.872C144.954 13.872 143.043 14.5923 141.607 16.1032L143.057 17.4807C144.054 16.4317 145.407 15.872 147.228 15.872V13.872ZM141.607 16.1037C140.189 17.598 139.556 19.6896 139.556 22.216H141.556C141.556 20.0064 142.107 18.482 143.058 17.4803L141.607 16.1037ZM139.556 22.216V37H141.556V22.216H139.556ZM140.556 36H135.084V38H140.556V36ZM136.084 37V10.552H134.084V37H136.084ZM135.084 11.552H140.556V9.552H135.084V11.552ZM139.556 10.552V13.576H141.556V10.552H139.556ZM141.328 14.2117C142.119 13.2521 143.125 12.496 144.369 11.9467L143.56 10.1173C142.051 10.784 140.786 11.7239 139.784 12.9403L141.328 14.2117ZM144.361 11.9501C145.641 11.3973 146.994 11.12 148.428 11.12V9.12C146.727 9.12 145.104 9.45065 143.568 10.1139L144.361 11.9501ZM213.861 3.64H214.861V2.64H213.861V3.64ZM213.861 37V38H214.861V37H213.861ZM208.389 37H207.389V38H208.389V37ZM208.389 14.152H209.389L207.476 13.7451L208.389 14.152ZM198.213 37V38H198.862L199.126 37.4068L198.213 37ZM194.421 37L193.508 37.4085L193.773 38H194.421V37ZM184.197 14.152L185.11 13.7435L183.197 14.152H184.197ZM184.197 37V38H185.197V37H184.197ZM178.725 37H177.725V38H178.725V37ZM178.725 3.64V2.64H177.725V3.64H178.725ZM184.629 3.64L185.542 3.23137L185.277 2.64H184.629V3.64ZM196.341 29.8L195.428 30.2086L196.343 32.2514L197.254 30.2072L196.341 29.8ZM208.005 3.64V2.64H207.356L207.092 3.23277L208.005 3.64ZM212.861 3.64V37H214.861V3.64H212.861ZM213.861 36H208.389V38H213.861V36ZM209.389 37V14.152H207.389V37H209.389ZM207.476 13.7451L197.299 36.5932L199.126 37.4068L209.302 14.5588L207.476 13.7451ZM198.213 36H194.421V38H198.213V36ZM195.334 36.5915L185.11 13.7435L183.284 14.5604L193.508 37.4085L195.334 36.5915ZM183.197 14.152V37H185.197V14.152H183.197ZM184.197 36H178.725V38H184.197V36ZM179.725 37V3.64H177.725V37H179.725ZM178.725 4.64H184.629V2.64H178.725V4.64ZM183.716 4.04862L195.428 30.2086L197.254 29.3914L185.542 3.23137L183.716 4.04862ZM197.254 30.2072L208.918 4.04722L207.092 3.23277L195.428 29.3928L197.254 30.2072ZM208.005 4.64H213.861V2.64H208.005V4.64ZM220.861 16.6L219.984 16.1202L219.978 16.1308L220.861 16.6ZM225.373 11.848L225.883 12.7081L225.888 12.7055L225.373 11.848ZM237.133 11.368L236.657 12.2473L236.668 12.2532L236.679 12.2588L237.133 11.368ZM240.877 14.392L240.082 14.9987L241.877 17.3507V14.392H240.877ZM240.877 10.552V9.552H239.877V10.552H240.877ZM246.397 10.552H247.397V9.552H246.397V10.552ZM246.397 37V38H247.397V37H246.397ZM240.877 37H239.877V38H240.877V37ZM240.877 33.064H241.877V30.0433L240.075 32.4673L240.877 33.064ZM237.085 36.184L236.624 35.2968L237.085 36.184ZM225.373 35.704L224.842 36.5513L224.852 36.5576L225.373 35.704ZM220.861 30.808L219.972 31.266L219.976 31.2741L219.981 31.2821L220.861 30.808ZM239.725 19L238.848 19.4803L238.852 19.4883L238.857 19.4961L239.725 19ZM236.797 15.928L236.296 16.7934L236.797 15.928ZM228.925 15.928L229.409 16.8032L229.418 16.7984L229.426 16.7934L228.925 15.928ZM225.949 18.952L225.081 18.4558L225.077 18.4627L225.949 18.952ZM225.949 28.456L225.067 28.9277L225.072 28.9355L225.076 28.9434L225.949 28.456ZM228.925 31.624L228.407 32.4795L228.42 32.4874L228.434 32.495L228.925 31.624ZM236.797 31.624L237.298 32.4894L236.797 31.624ZM239.725 28.552L238.852 28.0646L238.848 28.0717L239.725 28.552ZM220.229 23.656C220.229 21.1396 220.743 18.9529 221.744 17.0692L219.978 16.1308C218.803 18.3431 218.229 20.8604 218.229 23.656H220.229ZM221.738 17.0798C222.778 15.1788 224.159 13.7307 225.883 12.7081L224.863 10.9879C222.811 12.2053 221.184 13.9252 219.984 16.1202L221.738 17.0798ZM225.888 12.7055C227.648 11.6495 229.581 11.12 231.709 11.12V9.12C229.229 9.12 226.939 9.74246 224.859 10.9905L225.888 12.7055ZM231.709 11.12C233.654 11.12 235.293 11.5083 236.657 12.2473L237.609 10.4887C235.902 9.56367 233.924 9.12 231.709 9.12V11.12ZM236.679 12.2588C238.133 13.001 239.258 13.9184 240.082 14.9987L241.672 13.7853C240.641 12.4336 239.269 11.335 237.588 10.4772L236.679 12.2588ZM241.877 14.392V10.552H239.877V14.392H241.877ZM240.877 11.552H246.397V9.552H240.877V11.552ZM245.397 10.552V37H247.397V10.552H245.397ZM246.397 36H240.877V38H246.397V36ZM241.877 37V33.064H239.877V37H241.877ZM240.075 32.4673C239.25 33.5759 238.111 34.5235 236.624 35.2968L237.546 37.0712C239.259 36.1805 240.648 35.048 241.68 33.6607L240.075 32.4673ZM236.624 35.2968C235.185 36.0452 233.523 36.432 231.613 36.432V38.432C233.8 38.432 235.786 37.9868 237.546 37.0712L236.624 35.2968ZM231.613 36.432C229.52 36.432 227.621 35.9039 225.894 34.8504L224.852 36.5576C226.902 37.8081 229.163 38.432 231.613 38.432V36.432ZM225.904 34.8568C224.172 33.7704 222.785 32.2709 221.742 30.3339L219.981 31.2821C221.178 33.5051 222.798 35.2696 224.842 36.5512L225.904 34.8568ZM221.75 30.35C220.743 28.3957 220.229 26.1717 220.229 23.656H218.229C218.229 26.4523 218.803 28.9963 219.972 31.266L221.75 30.35ZM241.877 23.752C241.877 21.7852 241.462 20.0239 240.593 18.5039L238.857 19.4961C239.524 20.6641 239.877 22.0708 239.877 23.752H241.877ZM240.602 18.5197C239.787 17.0304 238.687 15.8664 237.298 15.0626L236.296 16.7934C237.34 17.3976 238.192 18.2816 238.848 19.4803L240.602 18.5197ZM237.298 15.0626C235.93 14.2702 234.445 13.872 232.861 13.872V15.872C234.094 15.872 235.233 16.1778 236.296 16.7934L237.298 15.0626ZM232.861 13.872C231.278 13.872 229.793 14.2702 228.424 15.0626L229.426 16.7934C230.49 16.1778 231.629 15.872 232.861 15.872V13.872ZM228.441 15.0528C227.047 15.8233 225.929 16.9713 225.081 18.4559L226.817 19.4481C227.505 18.2447 228.371 17.3767 229.409 16.8032L228.441 15.0528ZM225.077 18.4627C224.241 19.9529 223.845 21.6969 223.845 23.656H225.845C225.845 21.9671 226.185 20.5751 226.821 19.4412L225.077 18.4627ZM223.845 23.656C223.845 25.6167 224.242 27.3838 225.067 28.9277L226.831 27.9843C226.185 26.7762 225.845 25.3433 225.845 23.656H223.845ZM225.076 28.9434C225.919 30.454 227.027 31.6442 228.407 32.4795L229.443 30.7685C228.391 30.1318 227.515 29.21 226.822 27.9686L225.076 28.9434ZM228.434 32.495C229.825 33.2799 231.306 33.68 232.861 33.68V31.68C231.665 31.68 230.521 31.3761 229.416 30.753L228.434 32.495ZM232.861 33.68C234.445 33.68 235.93 33.2818 237.298 32.4894L236.296 30.7586C235.233 31.3742 234.094 31.68 232.861 31.68V33.68ZM237.298 32.4894C238.687 31.6856 239.787 30.5216 240.602 29.0323L238.848 28.0717C238.192 29.2704 237.34 30.1544 236.296 30.7586L237.298 32.4894ZM240.598 29.0394C241.462 27.4924 241.877 25.7195 241.877 23.752H239.877C239.877 25.4325 239.524 26.8596 238.852 28.0646L240.598 29.0394ZM257.568 36.328L257.143 37.2328L257.153 37.2378L257.164 37.2425L257.568 36.328ZM253.68 33.256L252.873 33.8465L252.88 33.856L253.68 33.256ZM252.144 28.888V27.888H251.104L251.145 28.928L252.144 28.888ZM257.808 28.888L258.805 28.8026L258.726 27.888H257.808V28.888ZM259.392 31.72L258.768 32.5009L258.782 32.5122L258.797 32.5231L259.392 31.72ZM266.64 31.96L267.21 32.7822L267.216 32.7778L266.64 31.96ZM266.496 27.448L266.037 28.3363L266.049 28.3424L266.496 27.448ZM262.032 25.864L262.303 24.9013L262.297 24.8996L262.032 25.864ZM257.184 24.28L256.805 25.2052L257.184 24.28ZM253.92 21.928L253.158 22.575L253.163 22.5816L253.169 22.5881L253.92 21.928ZM253.824 13.912L254.635 14.4975L254.643 14.4869L253.824 13.912ZM257.376 11.128L256.982 10.2088L256.976 10.2118L257.376 11.128ZM270 12.424L269.356 13.1889L269.363 13.195L269.371 13.2009L270 12.424ZM272.976 18.616V19.616H274.026L273.975 18.5673L272.976 18.616ZM267.504 18.616L266.508 18.6968L266.582 19.616H267.504V18.616ZM266.064 15.784L266.696 15.0088L266.064 15.784ZM259.248 15.544L258.67 14.728L259.248 15.544ZM258.864 19.48L258.18 20.2095V20.2095L258.864 19.48ZM260.736 20.632L260.372 21.5632L260.39 21.5702L260.408 21.5765L260.736 20.632ZM264 21.64L263.723 22.6007L263.733 22.6036L263.743 22.6062L264 21.64ZM268.704 23.224L268.296 24.1368L268.31 24.1432L268.325 24.1492L268.704 23.224ZM271.92 25.528L271.168 26.1865L271.92 25.528ZM273.312 29.608H274.312V29.5986L274.312 29.5891L273.312 29.608ZM272.064 33.64L271.246 33.0651L272.064 33.64ZM268.512 36.424L268.112 35.5078L268.104 35.511L268.512 36.424ZM263.184 36.432C261.224 36.432 259.492 36.0856 257.973 35.4135L257.164 37.2425C258.972 38.0424 260.985 38.432 263.184 38.432V36.432ZM257.994 35.4232C256.491 34.7157 255.331 33.7895 254.48 32.656L252.88 33.856C253.95 35.2825 255.382 36.4043 257.143 37.2328L257.994 35.4232ZM254.487 32.6655C253.643 31.5112 253.199 30.2463 253.144 28.848L251.145 28.928C251.217 30.7297 251.798 32.3768 252.873 33.8465L254.487 32.6655ZM252.144 29.888H257.808V27.888H252.144V29.888ZM256.812 28.9734C256.934 30.3935 257.616 31.5795 258.768 32.5009L260.017 30.9391C259.249 30.3245 258.875 29.6225 258.805 28.8026L256.812 28.9734ZM258.797 32.5231C259.992 33.4101 261.444 33.824 263.088 33.824V31.824C261.789 31.824 260.777 31.5019 259.988 30.9169L258.797 32.5231ZM263.088 33.824C264.729 33.824 266.144 33.5197 267.21 32.7822L266.071 31.1378C265.472 31.5523 264.52 31.824 263.088 31.824V33.824ZM267.216 32.7778C268.303 32.0125 268.936 30.9583 268.936 29.656H266.936C266.936 30.2097 266.705 30.6915 266.065 31.1422L267.216 32.7778ZM268.936 29.656C268.936 28.9918 268.773 28.3646 268.414 27.8137C268.058 27.2674 267.547 26.8554 266.944 26.5536L266.049 28.3424C266.405 28.5206 266.615 28.7166 266.739 28.9063C266.86 29.0914 266.936 29.3282 266.936 29.656H268.936ZM266.956 26.5598C265.933 26.0309 264.364 25.4809 262.303 24.9013L261.762 26.8266C263.797 27.3991 265.203 27.9051 266.037 28.3362L266.956 26.5598ZM262.297 24.8996C260.334 24.3614 258.76 23.8457 257.564 23.3548L256.805 25.2052C258.104 25.7383 259.763 26.2786 261.768 26.8284L262.297 24.8996ZM257.564 23.3548C256.465 22.9038 255.502 22.2131 254.672 21.2679L253.169 22.5881C254.195 23.7549 255.408 24.6322 256.805 25.2052L257.564 23.3548ZM254.683 21.281C253.975 20.4471 253.576 19.3036 253.576 17.752H251.576C251.576 19.6564 252.073 21.2969 253.158 22.575L254.683 21.281ZM253.576 17.752C253.576 16.5563 253.925 15.4808 254.635 14.4975L253.014 13.3265C252.06 14.6472 251.576 16.1317 251.576 17.752H253.576ZM254.643 14.4869C255.354 13.4752 256.382 12.6546 257.777 12.0442L256.976 10.2118C255.299 10.9454 253.959 11.9808 253.006 13.3371L254.643 14.4869ZM257.77 12.0471C259.193 11.4373 260.848 11.12 262.752 11.12V9.12C260.625 9.12 258.695 9.47472 256.982 10.2089L257.77 12.0471ZM262.752 11.12C265.588 11.12 267.756 11.8411 269.356 13.1889L270.645 11.6591C268.597 9.93495 265.933 9.12 262.752 9.12V11.12ZM269.371 13.2009C270.982 14.5067 271.862 16.2932 271.978 18.6647L273.975 18.5673C273.835 15.6908 272.731 13.3493 270.63 11.6471L269.371 13.2009ZM272.976 17.616H267.504V19.616H272.976V17.616ZM268.501 18.5352C268.385 17.0996 267.786 15.8971 266.696 15.0088L265.433 16.5592C266.07 17.0789 266.432 17.7644 266.508 18.6968L268.501 18.5352ZM266.696 15.0088C265.603 14.1185 264.188 13.728 262.56 13.728V15.728C263.877 15.728 264.797 16.0415 265.433 16.5592L266.696 15.0088ZM262.56 13.728C261.016 13.728 259.675 14.0161 258.67 14.728L259.826 16.36C260.357 15.9839 261.225 15.728 262.56 15.728V13.728ZM258.67 14.728C257.653 15.4483 257.096 16.4648 257.096 17.704H259.096C259.096 17.1512 259.307 16.7277 259.826 16.36L258.67 14.728ZM257.096 17.704C257.096 18.6834 257.466 19.5398 258.18 20.2095L259.548 18.7505C259.239 18.4602 259.096 18.1326 259.096 17.704H257.096ZM258.18 20.2095C258.796 20.7868 259.532 21.2347 260.372 21.5632L261.101 19.7008C260.468 19.4533 259.957 19.1332 259.548 18.7505L258.18 20.2095ZM260.408 21.5765C261.17 21.8415 262.278 22.1834 263.723 22.6007L264.278 20.6793C262.842 20.2646 261.775 19.9345 261.065 19.6875L260.408 21.5765ZM263.743 22.6062C265.634 23.1105 267.146 23.6224 268.296 24.1368L269.113 22.3112C267.831 21.7376 266.207 21.1935 264.258 20.6738L263.743 22.6062ZM268.325 24.1492C269.428 24.6018 270.373 25.278 271.168 26.1865L272.673 24.8695C271.676 23.73 270.477 22.8702 269.084 22.2988L268.325 24.1492ZM271.168 26.1865C271.873 26.9927 272.284 28.1066 272.313 29.6269L274.312 29.5891C274.277 27.7174 273.76 26.1113 272.673 24.8695L271.168 26.1865ZM272.312 29.608C272.312 30.9148 271.955 32.0563 271.246 33.0651L272.883 34.2149C273.838 32.8557 274.312 31.3092 274.312 29.608H272.312ZM271.246 33.0651C270.535 34.0768 269.507 34.8974 268.112 35.5078L268.913 37.3402C270.59 36.6066 271.93 35.5712 272.883 34.2149L271.246 33.0651ZM268.104 35.511C266.756 36.1135 265.125 36.432 263.184 36.432V38.432C265.34 38.432 267.261 38.0785 268.92 37.337L268.104 35.511ZM285.609 15.016V14.016H284.609V15.016H285.609ZM286.281 31.816L285.574 32.5231L285.599 32.5483L285.626 32.5717L286.281 31.816ZM292.041 32.44H293.041V31.44H292.041V32.44ZM292.041 37V38H293.041V37H292.041ZM282.057 35.272L281.397 36.0234L282.057 35.272ZM280.089 15.016H281.089V14.016H280.089V15.016ZM276.969 15.016H275.969V16.016H276.969V15.016ZM276.969 10.552V9.552H275.969V10.552H276.969ZM280.089 10.552V11.552H281.089V10.552H280.089ZM280.089 3.976V2.976H279.089V3.976H280.089ZM285.609 3.976H286.609V2.976H285.609V3.976ZM285.609 10.552H284.609V11.552H285.609V10.552ZM292.041 10.552H293.041V9.552H292.041V10.552ZM292.041 15.016V16.016H293.041V15.016H292.041ZM284.609 15.016V29.656H286.609V15.016H284.609ZM284.609 29.656C284.609 30.7675 284.856 31.805 285.574 32.5231L286.988 31.1089C286.81 30.931 286.609 30.5285 286.609 29.656H284.609ZM285.626 32.5717C286.383 33.2276 287.486 33.44 288.681 33.44V31.44C287.636 31.44 287.139 31.2364 286.936 31.0603L285.626 32.5717ZM288.681 33.44H292.041V31.44H288.681V33.44ZM291.041 32.44V37H293.041V32.44H291.041ZM292.041 36H287.721V38H292.041V36ZM287.721 36C285.401 36 283.784 35.4572 282.717 34.5206L281.397 36.0234C282.954 37.3908 285.113 38 287.721 38V36ZM282.717 34.5206C281.708 33.6351 281.089 32.1015 281.089 29.656H279.089C279.089 32.3945 279.782 34.6049 281.397 36.0234L282.717 34.5206ZM281.089 29.656V15.016H279.089V29.656H281.089ZM280.089 14.016H276.969V16.016H280.089V14.016ZM277.969 15.016V10.552H275.969V15.016H277.969ZM276.969 11.552H280.089V9.552H276.969V11.552ZM281.089 10.552V3.976H279.089V10.552H281.089ZM280.089 4.976H285.609V2.976H280.089V4.976ZM284.609 3.976V10.552H286.609V3.976H284.609ZM285.609 11.552H292.041V9.552H285.609V11.552ZM291.041 10.552V15.016H293.041V10.552H291.041ZM292.041 14.016H285.609V16.016H292.041V14.016ZM321.132 25.816V26.816H321.985L322.12 25.974L321.132 25.816ZM300.924 25.816V24.816H299.846L299.927 25.8915L300.924 25.816ZM303.276 30.904L302.604 31.6439L303.276 30.904ZM314.7 29.128V28.128H314.079L313.804 28.6855L314.7 29.128ZM320.604 29.128L321.554 29.4405L321.986 28.128H320.604V29.128ZM316.236 35.128L316.83 35.9324L316.832 35.9309L316.236 35.128ZM301.644 35.752L301.142 36.6168L301.15 36.6216L301.159 36.6262L301.644 35.752ZM296.94 30.952L296.06 31.4261L296.064 31.4342L296.069 31.4423L296.94 30.952ZM296.892 16.6L296.012 16.1259L296.009 16.1308L296.892 16.6ZM301.548 11.8L301.063 10.9258L301.057 10.9292L301.548 11.8ZM315.132 11.752L315.619 10.8785L315.132 11.752ZM319.692 16.36L318.816 16.8408L318.819 16.8469L319.692 16.36ZM315.612 21.4V22.4H316.628L316.612 21.3841L315.612 21.4ZM313.452 16.552L314.106 15.7952L313.452 16.552ZM303.372 16.552L304.033 17.3024L304.043 17.2935L303.372 16.552ZM300.972 21.4L299.98 21.276L299.84 22.4H300.972V21.4ZM320.324 23.128C320.324 24.0784 320.263 24.9203 320.145 25.658L322.12 25.974C322.258 25.1117 322.324 24.1616 322.324 23.128H320.324ZM321.132 24.816H300.924V26.816H321.132V24.816ZM299.927 25.8915C300.104 28.227 300.985 30.1721 302.604 31.6439L303.949 30.1641C302.752 29.0759 302.065 27.629 301.922 25.7405L299.927 25.8915ZM302.604 31.6439C304.211 33.1047 306.184 33.824 308.46 33.824V31.824C306.64 31.824 305.158 31.2633 303.949 30.1641L302.604 31.6439ZM308.46 33.824C310.073 33.824 311.513 33.4858 312.738 32.7604C313.967 32.0326 314.915 30.952 315.597 29.5705L313.804 28.6855C313.269 29.768 312.57 30.5354 311.719 31.0396C310.863 31.5462 309.792 31.824 308.46 31.824V33.824ZM314.7 30.128H320.604V28.128H314.7V30.128ZM319.654 28.8155C318.921 31.0458 317.591 32.8765 315.64 34.3251L316.832 35.9309C319.105 34.2435 320.688 32.0742 321.554 29.4405L319.654 28.8155ZM315.642 34.3236C313.767 35.7087 311.395 36.432 308.46 36.432V38.432C311.734 38.432 314.546 37.6193 316.83 35.9324L315.642 34.3236ZM308.46 36.432C306.086 36.432 303.983 35.9075 302.13 34.8778L301.159 36.6262C303.337 37.8365 305.779 38.432 308.46 38.432V36.432ZM302.147 34.8872C300.321 33.8271 298.879 32.3581 297.812 30.4617L296.069 31.4423C297.306 33.6419 299 35.3729 301.142 36.6168L302.147 34.8872ZM297.821 30.4779C296.79 28.5643 296.26 26.3318 296.26 23.752H294.26C294.26 26.6122 294.85 29.1797 296.06 31.4261L297.821 30.4779ZM296.26 23.752C296.26 21.1673 296.777 18.9496 297.775 17.0692L296.009 16.1308C294.832 18.3464 294.26 20.8967 294.26 23.752H296.26ZM297.773 17.0741C298.807 15.154 300.227 13.6944 302.04 12.6708L301.057 10.9292C298.902 12.1456 297.218 13.886 296.012 16.1259L297.773 17.0741ZM302.034 12.6742C303.884 11.6465 306.017 11.12 308.46 11.12V9.12C305.72 9.12 303.245 9.71349 301.063 10.9258L302.034 12.6742ZM308.46 11.12C310.806 11.12 312.859 11.6298 314.646 12.6255L315.619 10.8785C313.502 9.69819 311.106 9.12 308.46 9.12V11.12ZM314.646 12.6255C316.431 13.6207 317.817 15.0196 318.816 16.8408L320.569 15.8792C319.392 13.7324 317.738 12.0593 315.619 10.8785L314.646 12.6255ZM318.819 16.8469C319.812 18.6295 320.324 20.7133 320.324 23.128H322.324C322.324 20.4227 321.748 17.9945 320.566 15.8731L318.819 16.8469ZM316.612 21.3841C316.576 19.1099 315.749 17.2144 314.106 15.7952L312.799 17.3088C313.971 18.3216 314.585 19.6581 314.612 21.4159L316.612 21.3841ZM314.106 15.7952C312.495 14.4036 310.51 13.728 308.22 13.728V15.728C310.091 15.728 311.594 16.2684 312.799 17.3088L314.106 15.7952ZM308.22 13.728C306.096 13.728 304.238 14.4207 302.701 15.8105L304.043 17.2935C305.195 16.2513 306.569 15.728 308.22 15.728V13.728ZM302.711 15.8016C301.157 17.1714 300.261 19.025 299.98 21.276L301.965 21.524C302.195 19.679 302.9 18.3006 304.033 17.3024L302.711 15.8016ZM300.972 22.4H315.612V20.4H300.972V22.4ZM332.181 14.392H331.181V18.0271L333.041 14.9035L332.181 14.392ZM335.349 11.272L335.839 12.1442L335.846 12.1402L335.349 11.272ZM340.101 10.12H341.101V9.12H340.101V10.12ZM340.101 15.784V16.784H341.101V15.784H340.101ZM333.813 17.416L333.117 16.6987L333.111 16.7038L333.106 16.7089L333.813 17.416ZM332.181 37V38H333.181V37H332.181ZM326.709 37H325.709V38H326.709V37ZM326.709 10.552V9.552H325.709V10.552H326.709ZM332.181 10.552H333.181V9.552H332.181V10.552ZM333.041 14.9035C333.755 13.7038 334.686 12.7909 335.839 12.1441L334.86 10.3999C333.389 11.2251 332.208 12.3922 331.322 13.8805L333.041 14.9035ZM335.846 12.1402C337.013 11.4729 338.42 11.12 340.101 11.12V9.12C338.135 9.12 336.373 9.53515 334.853 10.4038L335.846 12.1402ZM339.101 10.12V15.784H341.101V10.12H339.101ZM340.101 14.784H338.709V16.784H340.101V14.784ZM338.709 14.784C336.404 14.784 334.484 15.3706 333.117 16.6987L334.51 18.1333C335.383 17.2854 336.727 16.784 338.709 16.784V14.784ZM333.106 16.7089C331.732 18.0832 331.181 20.3102 331.181 23.08H333.181C333.181 20.4738 333.719 18.9248 334.52 18.1231L333.106 16.7089ZM331.181 23.08V37H333.181V23.08H331.181ZM332.181 36H326.709V38H332.181V36ZM327.709 37V10.552H325.709V37H327.709ZM326.709 11.552H332.181V9.552H326.709V11.552ZM331.181 10.552V14.392H333.181V10.552H331.181ZM368.939 10.552L369.862 10.9371L370.44 9.552H368.939V10.552ZM352.715 49.432V50.432H353.382L353.638 49.8171L352.715 49.432ZM347.051 49.432L346.129 49.0464L345.55 50.432H347.051V49.432ZM352.427 36.568L353.35 36.9536L353.508 36.5761L353.356 36.1963L352.427 36.568ZM342.011 10.552V9.552H340.534L341.083 10.9237L342.011 10.552ZM348.107 10.552L349.045 10.2058L348.804 9.552H348.107V10.552ZM355.547 30.712L354.609 31.0582L355.529 33.5522L356.481 31.0699L355.547 30.712ZM363.275 10.552V9.552H362.588L362.341 10.1941L363.275 10.552ZM368.016 10.1669L351.792 49.0469L353.638 49.8171L369.862 10.9371L368.016 10.1669ZM352.715 48.432H347.051V50.432H352.715V48.432ZM347.974 49.8176L353.35 36.9536L351.505 36.1824L346.129 49.0464L347.974 49.8176ZM353.356 36.1963L342.94 10.1803L341.083 10.9237L351.499 36.9397L353.356 36.1963ZM342.011 11.552H348.107V9.552H342.011V11.552ZM347.169 10.8982L354.609 31.0582L356.485 30.3658L349.045 10.2058L347.169 10.8982ZM356.481 31.0699L364.209 10.9099L362.341 10.1941L354.613 30.3541L356.481 31.0699ZM363.275 11.552H368.939V9.552H363.275V11.552Z" fill="#D2D5FB" mask="url(#path-1-outside-1_406_67587)"/>
</svg>
