<svg width="378" height="51" viewBox="0 0 378 51" fill="none" xmlns="http://www.w3.org/2000/svg">
<mask id="path-1-outside-1_406_67589" maskUnits="userSpaceOnUse" x="-1" y="-1" width="380" height="53" fill="black">
<rect fill="white" x="-1" y="-1" width="380" height="53"/>
<path d="M11.496 3.64C15.048 3.64 18.152 4.328 20.808 5.704C23.496 7.048 25.56 9 27 11.56C28.472 14.088 29.208 17.048 29.208 20.44C29.208 23.832 28.472 26.776 27 29.272C25.56 31.768 23.496 33.688 20.808 35.032C18.152 36.344 15.048 37 11.496 37H0.6V3.64H11.496ZM11.496 32.536C15.4 32.536 18.392 31.48 20.472 29.368C22.552 27.256 23.592 24.28 23.592 20.44C23.592 16.568 22.552 13.544 20.472 11.368C18.392 9.192 15.4 8.104 11.496 8.104H6.072V32.536H11.496ZM37.4153 7.048C36.4233 7.048 35.5913 6.712 34.9193 6.04C34.2473 5.368 33.9113 4.536 33.9113 3.544C33.9113 2.552 34.2473 1.72 34.9193 1.048C35.5913 0.375998 36.4233 0.0399981 37.4153 0.0399981C38.3753 0.0399981 39.1913 0.375998 39.8633 1.048C40.5353 1.72 40.8713 2.552 40.8713 3.544C40.8713 4.536 40.5353 5.368 39.8633 6.04C39.1913 6.712 38.3753 7.048 37.4153 7.048ZM40.1033 10.552V37H34.6313V10.552H40.1033ZM57.9435 10.12C59.9915 10.12 61.7995 10.536 63.3675 11.368C64.9675 12.168 66.2155 13.176 67.1115 14.392V10.552H72.6315V37.432C72.6315 39.864 72.1195 42.024 71.0955 43.912C70.0715 45.832 68.5835 47.336 66.6315 48.424C64.7115 49.512 62.4075 50.056 59.7195 50.056C56.1355 50.056 53.1595 49.208 50.7915 47.512C48.4235 45.848 47.0795 43.576 46.7595 40.696H52.1835C52.5995 42.072 53.4795 43.176 54.8235 44.008C56.1995 44.872 57.8315 45.304 59.7195 45.304C61.9275 45.304 63.7035 44.632 65.0475 43.288C66.4235 41.944 67.1115 39.992 67.1115 37.432V33.016C66.1835 34.264 64.9195 35.32 63.3195 36.184C61.7515 37.016 59.9595 37.432 57.9435 37.432C55.6395 37.432 53.5275 36.856 51.6075 35.704C49.7195 34.52 48.2155 32.888 47.0955 30.808C46.0075 28.696 45.4635 26.312 45.4635 23.656C45.4635 21 46.0075 18.648 47.0955 16.6C48.2155 14.552 49.7195 12.968 51.6075 11.848C53.5275 10.696 55.6395 10.12 57.9435 10.12ZM67.1115 23.752C67.1115 21.928 66.7275 20.344 65.9595 19C65.2235 17.656 64.2475 16.632 63.0315 15.928C61.8155 15.224 60.5035 14.872 59.0955 14.872C57.6875 14.872 56.3755 15.224 55.1595 15.928C53.9435 16.6 52.9515 17.608 52.1835 18.952C51.4475 20.264 51.0795 21.832 51.0795 23.656C51.0795 25.48 51.4475 27.08 52.1835 28.456C52.9515 29.832 53.9435 30.888 55.1595 31.624C56.4075 32.328 57.7195 32.68 59.0955 32.68C60.5035 32.68 61.8155 32.328 63.0315 31.624C64.2475 30.92 65.2235 29.896 65.9595 28.552C66.7275 27.176 67.1115 25.576 67.1115 23.752ZM82.6028 7.048C81.6108 7.048 80.7788 6.712 80.1068 6.04C79.4348 5.368 79.0988 4.536 79.0988 3.544C79.0988 2.552 79.4348 1.72 80.1068 1.048C80.7788 0.375998 81.6108 0.0399981 82.6028 0.0399981C83.5628 0.0399981 84.3788 0.375998 85.0508 1.048C85.7228 1.72 86.0588 2.552 86.0588 3.544C86.0588 4.536 85.7228 5.368 85.0508 6.04C84.3788 6.712 83.5628 7.048 82.6028 7.048ZM85.2908 10.552V37H79.8188V10.552H85.2908ZM98.859 15.016V29.656C98.859 30.648 99.083 31.368 99.531 31.816C100.011 32.232 100.811 32.44 101.931 32.44H105.291V37H100.971C98.507 37 96.619 36.424 95.307 35.272C93.995 34.12 93.339 32.248 93.339 29.656V15.016H90.219V10.552H93.339V3.976H98.859V10.552H105.291V15.016H98.859ZM108.51 23.656C108.51 21 109.054 18.648 110.142 16.6C111.262 14.552 112.766 12.968 114.654 11.848C116.574 10.696 118.686 10.12 120.99 10.12C123.07 10.12 124.878 10.536 126.414 11.368C127.982 12.168 129.23 13.176 130.158 14.392V10.552H135.678V37H130.158V33.064C129.23 34.312 127.966 35.352 126.366 36.184C124.766 37.016 122.942 37.432 120.894 37.432C118.622 37.432 116.542 36.856 114.654 35.704C112.766 34.52 111.262 32.888 110.142 30.808C109.054 28.696 108.51 26.312 108.51 23.656ZM130.158 23.752C130.158 21.928 129.774 20.344 129.006 19C128.27 17.656 127.294 16.632 126.078 15.928C124.862 15.224 123.55 14.872 122.142 14.872C120.734 14.872 119.422 15.224 118.206 15.928C116.99 16.6 115.998 17.608 115.23 18.952C114.494 20.264 114.126 21.832 114.126 23.656C114.126 25.48 114.494 27.08 115.23 28.456C115.998 29.832 116.99 30.888 118.206 31.624C119.454 32.328 120.766 32.68 122.142 32.68C123.55 32.68 124.862 32.328 126.078 31.624C127.294 30.92 128.27 29.896 129.006 28.552C129.774 27.176 130.158 25.576 130.158 23.752ZM148.338 1.48V37H142.866V1.48H148.338ZM188.103 30.184H174.135L171.735 37H166.023L177.975 3.592H184.311L196.263 37H190.503L188.103 30.184ZM186.567 25.72L181.143 10.216L175.671 25.72H186.567ZM206.931 1.48V37H201.459V1.48H206.931ZM212.292 23.752C212.292 21.032 212.836 18.648 213.924 16.6C215.044 14.52 216.58 12.92 218.532 11.8C220.484 10.68 222.724 10.12 225.252 10.12C228.452 10.12 231.092 10.888 233.172 12.424C235.284 13.928 236.708 16.088 237.444 18.904H231.54C231.06 17.592 230.292 16.568 229.236 15.832C228.18 15.096 226.852 14.728 225.252 14.728C223.012 14.728 221.22 15.528 219.876 17.128C218.564 18.696 217.908 20.904 217.908 23.752C217.908 26.6 218.564 28.824 219.876 30.424C221.22 32.024 223.012 32.824 225.252 32.824C228.42 32.824 230.516 31.432 231.54 28.648H237.444C236.676 31.336 235.236 33.48 233.124 35.08C231.012 36.648 228.388 37.432 225.252 37.432C222.724 37.432 220.484 36.872 218.532 35.752C216.58 34.6 215.044 33 213.924 30.952C212.836 28.872 212.292 26.472 212.292 23.752ZM256.577 10.12C258.593 10.12 260.385 10.552 261.953 11.416C263.553 12.28 264.801 13.56 265.697 15.256C266.625 16.952 267.089 19 267.089 21.4V37H261.665V22.216C261.665 19.848 261.073 18.04 259.889 16.792C258.705 15.512 257.089 14.872 255.041 14.872C252.993 14.872 251.361 15.512 250.145 16.792C248.961 18.04 248.369 19.848 248.369 22.216V37H242.897V1.48H248.369V13.624C249.297 12.504 250.465 11.64 251.873 11.032C253.313 10.424 254.881 10.12 256.577 10.12ZM298.309 23.128C298.309 24.12 298.245 25.016 298.117 25.816H277.909C278.069 27.928 278.853 29.624 280.261 30.904C281.669 32.184 283.397 32.824 285.445 32.824C288.389 32.824 290.469 31.592 291.685 29.128H297.589C296.789 31.56 295.333 33.56 293.221 35.128C291.141 36.664 288.549 37.432 285.445 37.432C282.917 37.432 280.645 36.872 278.629 35.752C276.645 34.6 275.077 33 273.925 30.952C272.805 28.872 272.245 26.472 272.245 23.752C272.245 21.032 272.789 18.648 273.877 16.6C274.997 14.52 276.549 12.92 278.533 11.8C280.549 10.68 282.853 10.12 285.445 10.12C287.941 10.12 290.165 10.664 292.117 11.752C294.069 12.84 295.589 14.376 296.677 16.36C297.765 18.312 298.309 20.568 298.309 23.128ZM292.597 21.4C292.565 19.384 291.845 17.768 290.437 16.552C289.029 15.336 287.285 14.728 285.205 14.728C283.317 14.728 281.701 15.336 280.357 16.552C279.013 17.736 278.213 19.352 277.957 21.4H292.597ZM335.71 10.12C337.79 10.12 339.646 10.552 341.278 11.416C342.942 12.28 344.238 13.56 345.166 15.256C346.126 16.952 346.606 19 346.606 21.4V37H341.182V22.216C341.182 19.848 340.59 18.04 339.406 16.792C338.222 15.512 336.606 14.872 334.558 14.872C332.51 14.872 330.878 15.512 329.662 16.792C328.478 18.04 327.886 19.848 327.886 22.216V37H322.462V22.216C322.462 19.848 321.87 18.04 320.686 16.792C319.502 15.512 317.886 14.872 315.838 14.872C313.79 14.872 312.158 15.512 310.942 16.792C309.758 18.04 309.166 19.848 309.166 22.216V37H303.694V10.552H309.166V13.576C310.062 12.488 311.198 11.64 312.574 11.032C313.95 10.424 315.422 10.12 316.99 10.12C319.102 10.12 320.99 10.568 322.654 11.464C324.318 12.36 325.598 13.656 326.494 15.352C327.294 13.752 328.542 12.488 330.238 11.56C331.934 10.6 333.758 10.12 335.71 10.12ZM377.377 10.552L361.153 49.432H355.489L360.865 36.568L350.449 10.552H356.545L363.985 30.712L371.713 10.552H377.377Z"/>
</mask>
<path d="M20.808 5.704L20.348 6.59192L20.3544 6.59522L20.3608 6.59843L20.808 5.704ZM27 11.56L26.1284 12.0503L26.1321 12.0568L26.1358 12.0632L27 11.56ZM27 29.272L26.1386 28.764L26.1338 28.7723L27 29.272ZM20.808 35.032L21.2509 35.9286L21.2552 35.9264L20.808 35.032ZM0.6 37H-0.4V38H0.6V37ZM0.6 3.64V2.64H-0.4V3.64H0.6ZM20.472 29.368L19.7595 28.6663L20.472 29.368ZM6.072 8.104V7.104H5.072V8.104H6.072ZM6.072 32.536H5.072V33.536H6.072V32.536ZM11.496 4.64C14.9178 4.64 17.8585 5.30217 20.348 6.59192L21.268 4.81608C18.4455 3.35382 15.1782 2.64 11.496 2.64V4.64ZM20.3608 6.59843C22.8745 7.85531 24.7887 9.66858 26.1284 12.0503L27.8716 11.0697C26.3313 8.33142 24.1175 6.24069 21.2552 4.80957L20.3608 6.59843ZM26.1358 12.0632C27.5055 14.4155 28.208 17.1962 28.208 20.44H30.208C30.208 16.8998 29.4385 13.7605 27.8642 11.0568L26.1358 12.0632ZM28.208 20.44C28.208 23.6841 27.5054 26.4464 26.1386 28.764L27.8614 29.78C29.4386 27.1056 30.208 23.9799 30.208 20.44H28.208ZM26.1338 28.7723C24.7961 31.091 22.8814 32.8773 20.3608 34.1376L21.2552 35.9264C24.1106 34.4987 26.3239 32.445 27.8662 29.7717L26.1338 28.7723ZM20.3651 34.1354C17.8716 35.3672 14.9246 36 11.496 36V38C15.1714 38 18.4324 37.3208 21.2509 35.9286L20.3651 34.1354ZM11.496 36H0.6V38H11.496V36ZM1.6 37V3.64H-0.4V37H1.6ZM0.6 4.64H11.496V2.64H0.6V4.64ZM11.496 33.536C15.5795 33.536 18.8625 32.4274 21.1845 30.0697L19.7595 28.6663C17.9215 30.5326 15.2205 31.536 11.496 31.536V33.536ZM21.1845 30.0697C23.4986 27.72 24.592 24.4618 24.592 20.44H22.592C22.592 24.0982 21.6055 26.792 19.7595 28.6663L21.1845 30.0697ZM24.592 20.44C24.592 16.3872 23.4994 13.0879 21.1949 10.677L19.7491 12.059C21.6046 14.0001 22.592 16.7488 22.592 20.44H24.592ZM21.1949 10.677C18.8745 8.24954 15.5879 7.104 11.496 7.104V9.104C15.2121 9.104 17.9095 10.1345 19.7491 12.059L21.1949 10.677ZM11.496 7.104H6.072V9.104H11.496V7.104ZM5.072 8.104V32.536H7.072V8.104H5.072ZM6.072 33.536H11.496V31.536H6.072V33.536ZM34.9193 6.04L35.6264 5.33289V5.33289L34.9193 6.04ZM34.9193 1.048L35.6264 1.75511V1.75511L34.9193 1.048ZM39.8633 1.048L39.1561 1.75511V1.75511L39.8633 1.048ZM39.8633 6.04L39.1561 5.33289V5.33289L39.8633 6.04ZM40.1032 10.552H41.1032V9.552H40.1032V10.552ZM40.1032 37V38H41.1032V37H40.1032ZM34.6312 37H33.6312V38H34.6312V37ZM34.6312 10.552V9.552H33.6312V10.552H34.6312ZM37.4152 6.048C36.6755 6.048 36.1019 5.80839 35.6264 5.33289L34.2121 6.7471C35.0806 7.61561 36.171 8.048 37.4152 8.048V6.048ZM35.6264 5.33289C35.1509 4.85739 34.9113 4.28374 34.9113 3.544H32.9113C32.9113 4.78826 33.3436 5.8786 34.2121 6.7471L35.6264 5.33289ZM34.9113 3.544C34.9113 2.80426 35.1509 2.2306 35.6264 1.75511L34.2121 0.340892C33.3436 1.20939 32.9113 2.29974 32.9113 3.544H34.9113ZM35.6264 1.75511C36.1019 1.27961 36.6755 1.04 37.4152 1.04V-0.960002C36.171 -0.960002 35.0806 -0.527611 34.2121 0.340893L35.6264 1.75511ZM37.4152 1.04C38.1131 1.04 38.6738 1.27277 39.1561 1.75511L40.5704 0.340893C39.7087 -0.520774 38.6374 -0.960002 37.4152 -0.960002V1.04ZM39.1561 1.75511C39.6316 2.2306 39.8713 2.80426 39.8713 3.544H41.8713C41.8713 2.29974 41.4389 1.20939 40.5704 0.340892L39.1561 1.75511ZM39.8713 3.544C39.8713 4.28374 39.6316 4.85739 39.1561 5.33289L40.5704 6.7471C41.4389 5.8786 41.8713 4.78826 41.8713 3.544H39.8713ZM39.1561 5.33289C38.6738 5.81523 38.1131 6.048 37.4152 6.048V8.048C38.6374 8.048 39.7087 7.60877 40.5704 6.7471L39.1561 5.33289ZM39.1032 10.552V37H41.1032V10.552H39.1032ZM40.1032 36H34.6312V38H40.1032V36ZM35.6312 37V10.552H33.6312V37H35.6312ZM34.6312 11.552H40.1032V9.552H34.6312V11.552ZM63.3675 11.368L62.8988 12.2513L62.9095 12.257L62.9203 12.2624L63.3675 11.368ZM67.1115 14.392L66.3064 14.9852L68.1115 17.4349V14.392H67.1115ZM67.1115 10.552V9.552H66.1115V10.552H67.1115ZM72.6315 10.552H73.6315V9.552H72.6315V10.552ZM71.0955 43.912L70.2164 43.4352L70.2132 43.4414L71.0955 43.912ZM66.6315 48.424L66.1446 47.5505L66.1385 47.554L66.6315 48.424ZM50.7915 47.512L51.3738 46.699L51.3664 46.6938L50.7915 47.512ZM46.7595 40.696V39.696H45.6422L45.7656 40.8064L46.7595 40.696ZM52.1835 40.696L53.1407 40.4066L52.9259 39.696H52.1835V40.696ZM54.8235 44.008L55.3553 43.1611L55.3499 43.1577L54.8235 44.008ZM65.0475 43.288L64.3487 42.5726L64.3404 42.5809L65.0475 43.288ZM67.1115 33.016H68.1115V29.9953L66.309 32.4193L67.1115 33.016ZM63.3195 36.184L63.7882 37.0674L63.7946 37.0639L63.3195 36.184ZM51.6075 35.704L51.0762 36.5512L51.0846 36.5564L51.093 36.5615L51.6075 35.704ZM47.0955 30.808L46.2065 31.266L46.2107 31.2741L46.215 31.2821L47.0955 30.808ZM47.0955 16.6L46.2181 16.1202L46.2124 16.1308L47.0955 16.6ZM51.6075 11.848L52.1177 12.7081L52.122 12.7055L51.6075 11.848ZM65.9595 19L65.0824 19.4803L65.0868 19.4883L65.0913 19.4961L65.9595 19ZM63.0315 15.928L62.5305 16.7934L63.0315 15.928ZM55.1595 15.928L55.6432 16.8032L55.6519 16.7984L55.6605 16.7934L55.1595 15.928ZM52.1835 18.952L51.3152 18.4558L51.3114 18.4627L52.1835 18.952ZM52.1835 28.456L51.3017 28.9277L51.3059 28.9355L51.3103 28.9434L52.1835 28.456ZM55.1595 31.624L54.6417 32.4795L54.6548 32.4874L54.6682 32.495L55.1595 31.624ZM63.0315 31.624L63.5325 32.4894L63.0315 31.624ZM65.9595 28.552L65.0863 28.0646L65.0824 28.0717L65.9595 28.552ZM57.9435 11.12C59.8534 11.12 61.4959 11.507 62.8988 12.2513L63.8362 10.4846C62.1031 9.56502 60.1296 9.12 57.9435 9.12V11.12ZM62.9203 12.2624C64.4048 13.0047 65.5201 13.9179 66.3064 14.9852L67.9166 13.7988C66.911 12.4341 65.5302 11.3313 63.8147 10.4736L62.9203 12.2624ZM68.1115 14.392V10.552H66.1115V14.392H68.1115ZM67.1115 11.552H72.6315V9.552H67.1115V11.552ZM71.6315 10.552V37.432H73.6315V10.552H71.6315ZM71.6315 37.432C71.6315 39.7198 71.1511 41.7121 70.2165 43.4352L71.9745 44.3888C73.0879 42.3359 73.6315 40.0082 73.6315 37.432H71.6315ZM70.2132 43.4414C69.2821 45.1871 67.9336 46.5534 66.1446 47.5505L67.1184 49.2975C69.2334 48.1186 70.8609 46.4769 71.9779 44.3826L70.2132 43.4414ZM66.1385 47.554C64.3984 48.54 62.2722 49.056 59.7195 49.056V51.056C62.5428 51.056 65.0246 50.484 67.1245 49.294L66.1385 47.554ZM59.7195 49.056C56.2955 49.056 53.5362 48.2477 51.3738 46.699L50.2092 48.325C52.7828 50.1683 55.9755 51.056 59.7195 51.056V49.056ZM51.3664 46.6938C49.2335 45.195 48.0418 43.1809 47.7534 40.5856L45.7656 40.8064C46.1172 43.9711 47.6135 46.501 50.2166 48.3302L51.3664 46.6938ZM46.7595 41.696H52.1835V39.696H46.7595V41.696ZM51.2263 40.9854C51.72 42.6185 52.7682 43.9118 54.2971 44.8583L55.3499 43.1577C54.1908 42.4402 53.479 41.5255 53.1407 40.4066L51.2263 40.9854ZM54.2917 44.8549C55.8515 45.8343 57.6744 46.304 59.7195 46.304V44.304C57.9886 44.304 56.5475 43.9097 55.3553 43.1611L54.2917 44.8549ZM59.7195 46.304C62.1464 46.304 64.1927 45.5571 65.7546 43.9951L64.3404 42.5809C63.2143 43.7069 61.7086 44.304 59.7195 44.304V46.304ZM65.7462 44.0034C67.3723 42.4152 68.1115 40.1688 68.1115 37.432H66.1115C66.1115 39.8152 65.4747 41.4728 64.3488 42.5726L65.7462 44.0034ZM68.1115 37.432V33.016H66.1115V37.432H68.1115ZM66.309 32.4193C65.4817 33.5319 64.3375 34.4978 62.8444 35.3041L63.7946 37.0639C65.5015 36.1422 66.8853 34.9961 67.914 33.6127L66.309 32.4193ZM62.8508 35.3007C61.4457 36.0462 59.8185 36.432 57.9435 36.432V38.432C60.1005 38.432 62.0573 37.9858 63.7882 37.0673L62.8508 35.3007ZM57.9435 36.432C55.8152 36.432 53.8819 35.9025 52.122 34.8465L51.093 36.5615C53.1731 37.8095 55.4638 38.432 57.9435 38.432V36.432ZM52.1388 34.8568C50.4064 33.7704 49.019 32.2709 47.976 30.3339L46.215 31.2821C47.412 33.5051 49.0326 35.2696 51.0762 36.5512L52.1388 34.8568ZM47.9845 30.35C46.9777 28.3957 46.4635 26.1717 46.4635 23.656H44.4635C44.4635 26.4523 45.0373 28.9963 46.2065 31.266L47.9845 30.35ZM46.4635 23.656C46.4635 21.1396 46.9779 18.9529 47.9786 17.0692L46.2124 16.1308C45.0371 18.3431 44.4635 20.8604 44.4635 23.656H46.4635ZM47.9729 17.0798C49.0125 15.1788 50.3938 13.7307 52.1177 12.7081L51.0973 10.9879C49.0452 12.2053 47.4185 13.9252 46.2181 16.1202L47.9729 17.0798ZM52.122 12.7055C53.8819 11.6495 55.8152 11.12 57.9435 11.12V9.12C55.4638 9.12 53.1731 9.74246 51.093 10.9905L52.122 12.7055ZM68.1115 23.752C68.1115 21.7852 67.6964 20.0239 66.8277 18.5039L65.0913 19.4961C65.7587 20.6641 66.1115 22.0708 66.1115 23.752H68.1115ZM66.8366 18.5197C66.021 17.0304 64.9209 15.8664 63.5325 15.0626L62.5305 16.7934C63.5741 17.3976 64.426 18.2816 65.0824 19.4803L66.8366 18.5197ZM63.5325 15.0626C62.1639 14.2702 60.6791 13.872 59.0955 13.872V15.872C60.3279 15.872 61.4671 16.1778 62.5305 16.7934L63.5325 15.0626ZM59.0955 13.872C57.5119 13.872 56.0271 14.2702 54.6585 15.0626L55.6605 16.7934C56.7239 16.1778 57.8631 15.872 59.0955 15.872V13.872ZM54.6758 15.0528C53.2814 15.8233 52.1636 16.9713 51.3153 18.4559L53.0517 19.4481C53.7394 18.2447 54.6056 17.3767 55.6432 16.8032L54.6758 15.0528ZM51.3114 18.4627C50.4754 19.9529 50.0795 21.6969 50.0795 23.656H52.0795C52.0795 21.9671 52.4196 20.5751 53.0556 19.4412L51.3114 18.4627ZM50.0795 23.656C50.0795 25.6167 50.4759 27.3838 51.3017 28.9277L53.0653 27.9843C52.4191 26.7762 52.0795 25.3433 52.0795 23.656H50.0795ZM51.3103 28.9434C52.1534 30.454 53.2616 31.6442 54.6417 32.4795L55.6773 30.7685C54.6254 30.1318 53.7496 29.21 53.0567 27.9686L51.3103 28.9434ZM54.6682 32.495C56.0597 33.2799 57.5401 33.68 59.0955 33.68V31.68C57.8989 31.68 56.7553 31.3761 55.6508 30.753L54.6682 32.495ZM59.0955 33.68C60.6791 33.68 62.1639 33.2818 63.5325 32.4894L62.5305 30.7586C61.4671 31.3742 60.3279 31.68 59.0955 31.68V33.68ZM63.5325 32.4894C64.9209 31.6856 66.021 30.5216 66.8366 29.0323L65.0824 28.0717C64.426 29.2704 63.5741 30.1544 62.5305 30.7586L63.5325 32.4894ZM66.8327 29.0394C67.6961 27.4924 68.1115 25.7195 68.1115 23.752H66.1115C66.1115 25.4325 65.7589 26.8596 65.0863 28.0646L66.8327 29.0394ZM80.1068 6.04L80.8139 5.33289V5.33289L80.1068 6.04ZM80.1068 1.048L80.8139 1.75511V1.75511L80.1068 1.048ZM85.0508 1.048L84.3436 1.75511V1.75511L85.0508 1.048ZM85.0508 6.04L84.3436 5.33289V5.33289L85.0508 6.04ZM85.2907 10.552H86.2907V9.552H85.2907V10.552ZM85.2907 37V38H86.2907V37H85.2907ZM79.8187 37H78.8187V38H79.8187V37ZM79.8187 10.552V9.552H78.8187V10.552H79.8187ZM82.6028 6.048C81.863 6.048 81.2894 5.80839 80.8139 5.33289L79.3996 6.7471C80.2681 7.61561 81.3585 8.048 82.6028 8.048V6.048ZM80.8139 5.33289C80.3384 4.85739 80.0987 4.28374 80.0987 3.544H78.0987C78.0987 4.78826 78.5311 5.8786 79.3996 6.7471L80.8139 5.33289ZM80.0987 3.544C80.0987 2.80426 80.3384 2.2306 80.8139 1.75511L79.3996 0.340892C78.5311 1.20939 78.0987 2.29974 78.0987 3.544H80.0987ZM80.8139 1.75511C81.2894 1.27961 81.863 1.04 82.6028 1.04V-0.960002C81.3585 -0.960002 80.2681 -0.527611 79.3996 0.340893L80.8139 1.75511ZM82.6028 1.04C83.3006 1.04 83.8613 1.27277 84.3436 1.75511L85.7579 0.340893C84.8962 -0.520774 83.8249 -0.960002 82.6028 -0.960002V1.04ZM84.3436 1.75511C84.8191 2.2306 85.0588 2.80426 85.0588 3.544H87.0588C87.0588 2.29974 86.6264 1.20939 85.7579 0.340892L84.3436 1.75511ZM85.0588 3.544C85.0588 4.28374 84.8191 4.85739 84.3436 5.33289L85.7579 6.7471C86.6264 5.8786 87.0588 4.78826 87.0588 3.544H85.0588ZM84.3436 5.33289C83.8613 5.81523 83.3006 6.048 82.6028 6.048V8.048C83.8249 8.048 84.8962 7.60877 85.7579 6.7471L84.3436 5.33289ZM84.2907 10.552V37H86.2907V10.552H84.2907ZM85.2907 36H79.8187V38H85.2907V36ZM80.8187 37V10.552H78.8187V37H80.8187ZM79.8187 11.552H85.2907V9.552H79.8187V11.552ZM98.859 15.016V14.016H97.859V15.016H98.859ZM99.531 31.816L98.8239 32.5231L98.8491 32.5483L98.8761 32.5717L99.531 31.816ZM105.291 32.44H106.291V31.44H105.291V32.44ZM105.291 37V38H106.291V37H105.291ZM95.307 35.272L94.6472 36.0234L95.307 35.272ZM93.339 15.016H94.339V14.016H93.339V15.016ZM90.219 15.016H89.219V16.016H90.219V15.016ZM90.219 10.552V9.552H89.219V10.552H90.219ZM93.339 10.552V11.552H94.339V10.552H93.339ZM93.339 3.976V2.976H92.339V3.976H93.339ZM98.859 3.976H99.859V2.976H98.859V3.976ZM98.859 10.552H97.859V11.552H98.859V10.552ZM105.291 10.552H106.291V9.552H105.291V10.552ZM105.291 15.016V16.016H106.291V15.016H105.291ZM97.859 15.016V29.656H99.859V15.016H97.859ZM97.859 29.656C97.859 30.7675 98.1058 31.805 98.8239 32.5231L100.238 31.1089C100.06 30.931 99.859 30.5285 99.859 29.656H97.859ZM98.8761 32.5717C99.6329 33.2276 100.736 33.44 101.931 33.44V31.44C100.886 31.44 100.389 31.2364 100.186 31.0603L98.8761 32.5717ZM101.931 33.44H105.291V31.44H101.931V33.44ZM104.291 32.44V37H106.291V32.44H104.291ZM105.291 36H100.971V38H105.291V36ZM100.971 36C98.6507 36 97.0335 35.4572 95.9668 34.5206L94.6472 36.0234C96.2045 37.3908 98.3633 38 100.971 38V36ZM95.9668 34.5206C94.9584 33.6351 94.339 32.1015 94.339 29.656H92.339C92.339 32.3945 93.0316 34.6049 94.6472 36.0234L95.9668 34.5206ZM94.339 29.656V15.016H92.339V29.656H94.339ZM93.339 14.016H90.219V16.016H93.339V14.016ZM91.219 15.016V10.552H89.219V15.016H91.219ZM90.219 11.552H93.339V9.552H90.219V11.552ZM94.339 10.552V3.976H92.339V10.552H94.339ZM93.339 4.976H98.859V2.976H93.339V4.976ZM97.859 3.976V10.552H99.859V3.976H97.859ZM98.859 11.552H105.291V9.552H98.859V11.552ZM104.291 10.552V15.016H106.291V10.552H104.291ZM105.291 14.016H98.859V16.016H105.291V14.016ZM110.142 16.6L109.265 16.1202L109.259 16.1308L110.142 16.6ZM114.654 11.848L115.165 12.7081L115.169 12.7055L114.654 11.848ZM126.414 11.368L125.938 12.2473L125.949 12.2532L125.96 12.2588L126.414 11.368ZM130.158 14.392L129.363 14.9987L131.158 17.3507V14.392H130.158ZM130.158 10.552V9.552H129.158V10.552H130.158ZM135.678 10.552H136.678V9.552H135.678V10.552ZM135.678 37V38H136.678V37H135.678ZM130.158 37H129.158V38H130.158V37ZM130.158 33.064H131.158V30.0433L129.356 32.4673L130.158 33.064ZM126.366 36.184L125.905 35.2968L126.366 36.184ZM114.654 35.704L114.123 36.5513L114.134 36.5576L114.654 35.704ZM110.142 30.808L109.253 31.266L109.258 31.2741L109.262 31.2821L110.142 30.808ZM129.006 19L128.129 19.4803L128.134 19.4883L128.138 19.4961L129.006 19ZM126.078 15.928L125.577 16.7934L126.078 15.928ZM118.206 15.928L118.69 16.8032L118.699 16.7984L118.707 16.7934L118.206 15.928ZM115.23 18.952L114.362 18.4558L114.358 18.4627L115.23 18.952ZM115.23 28.456L114.349 28.9277L114.353 28.9355L114.357 28.9434L115.23 28.456ZM118.206 31.624L117.689 32.4795L117.702 32.4874L117.715 32.495L118.206 31.624ZM126.078 31.624L126.579 32.4894L126.078 31.624ZM129.006 28.552L128.133 28.0646L128.129 28.0717L129.006 28.552ZM109.51 23.656C109.51 21.1396 110.025 18.9529 111.025 17.0692L109.259 16.1308C108.084 18.3431 107.51 20.8604 107.51 23.656H109.51ZM111.02 17.0798C112.059 15.1788 113.441 13.7307 115.165 12.7081L114.144 10.9879C112.092 12.2053 110.465 13.9252 109.265 16.1202L111.02 17.0798ZM115.169 12.7055C116.929 11.6495 118.862 11.12 120.99 11.12V9.12C118.511 9.12 116.22 9.74246 114.14 10.9905L115.169 12.7055ZM120.99 11.12C122.936 11.12 124.574 11.5083 125.938 12.2473L126.891 10.4887C125.183 9.56367 123.205 9.12 120.99 9.12V11.12ZM125.96 12.2588C127.415 13.001 128.539 13.9184 129.363 14.9987L130.953 13.7853C129.922 12.4336 128.55 11.335 126.869 10.4772L125.96 12.2588ZM131.158 14.392V10.552H129.158V14.392H131.158ZM130.158 11.552H135.678V9.552H130.158V11.552ZM134.678 10.552V37H136.678V10.552H134.678ZM135.678 36H130.158V38H135.678V36ZM131.158 37V33.064H129.158V37H131.158ZM129.356 32.4673C128.532 33.5759 127.392 34.5235 125.905 35.2968L126.828 37.0712C128.541 36.1805 129.929 35.048 130.961 33.6607L129.356 32.4673ZM125.905 35.2968C124.466 36.0452 122.804 36.432 120.894 36.432V38.432C123.081 38.432 125.067 37.9868 126.828 37.0712L125.905 35.2968ZM120.894 36.432C118.801 36.432 116.902 35.9039 115.175 34.8504L114.134 36.5576C116.183 37.8081 118.444 38.432 120.894 38.432V36.432ZM115.186 34.8568C113.453 33.7704 112.066 32.2709 111.023 30.3339L109.262 31.2821C110.459 33.5051 112.079 35.2696 114.123 36.5512L115.186 34.8568ZM111.031 30.35C110.025 28.3957 109.51 26.1717 109.51 23.656H107.51C107.51 26.4523 108.084 28.9963 109.253 31.266L111.031 30.35ZM131.158 23.752C131.158 21.7852 130.743 20.0239 129.875 18.5039L128.138 19.4961C128.806 20.6641 129.158 22.0708 129.158 23.752H131.158ZM129.883 18.5197C129.068 17.0304 127.968 15.8664 126.579 15.0626L125.577 16.7934C126.621 17.3976 127.473 18.2816 128.129 19.4803L129.883 18.5197ZM126.579 15.0626C125.211 14.2702 123.726 13.872 122.142 13.872V15.872C123.375 15.872 124.514 16.1778 125.577 16.7934L126.579 15.0626ZM122.142 13.872C120.559 13.872 119.074 14.2702 117.705 15.0626L118.707 16.7934C119.771 16.1778 120.91 15.872 122.142 15.872V13.872ZM117.723 15.0528C116.328 15.8233 115.21 16.9713 114.362 18.4559L116.099 19.4481C116.786 18.2447 117.652 17.3767 118.69 16.8032L117.723 15.0528ZM114.358 18.4627C113.522 19.9529 113.126 21.6969 113.126 23.656H115.126C115.126 21.9671 115.466 20.5751 116.103 19.4412L114.358 18.4627ZM113.126 23.656C113.126 25.6167 113.523 27.3838 114.349 28.9277L116.112 27.9843C115.466 26.7762 115.126 25.3433 115.126 23.656H113.126ZM114.357 28.9434C115.2 30.454 116.309 31.6442 117.689 32.4795L118.724 30.7685C117.672 30.1318 116.796 29.21 116.104 27.9686L114.357 28.9434ZM117.715 32.495C119.107 33.2799 120.587 33.68 122.142 33.68V31.68C120.946 31.68 119.802 31.3761 118.698 30.753L117.715 32.495ZM122.142 33.68C123.726 33.68 125.211 33.2818 126.579 32.4894L125.577 30.7586C124.514 31.3742 123.375 31.68 122.142 31.68V33.68ZM126.579 32.4894C127.968 31.6856 129.068 30.5216 129.883 29.0323L128.129 28.0717C127.473 29.2704 126.621 30.1544 125.577 30.7586L126.579 32.4894ZM129.88 29.0394C130.743 27.4924 131.158 25.7195 131.158 23.752H129.158C129.158 25.4325 128.806 26.8596 128.133 28.0646L129.88 29.0394ZM148.338 1.48H149.338V0.48H148.338V1.48ZM148.338 37V38H149.338V37H148.338ZM142.866 37H141.866V38H142.866V37ZM142.866 1.48V0.48H141.866V1.48H142.866ZM147.338 1.48V37H149.338V1.48H147.338ZM148.338 36H142.866V38H148.338V36ZM143.866 37V1.48H141.866V37H143.866ZM142.866 2.48H148.338V0.48H142.866V2.48ZM188.103 30.184L189.046 29.8519L188.811 29.184H188.103V30.184ZM174.135 30.184V29.184H173.427L173.191 29.8519L174.135 30.184ZM171.735 37V38H172.443L172.678 37.3321L171.735 37ZM166.023 37L165.081 36.6632L164.603 38H166.023V37ZM177.975 3.592V2.592H177.27L177.033 3.25515L177.975 3.592ZM184.311 3.592L185.252 3.25515L185.015 2.592H184.311V3.592ZM196.263 37V38H197.682L197.204 36.6632L196.263 37ZM190.503 37L189.559 37.3321L189.795 38H190.503V37ZM186.567 25.72V26.72H187.976L187.511 25.3898L186.567 25.72ZM181.143 10.216L182.087 9.88578L181.147 7.1996L180.2 9.88318L181.143 10.216ZM175.671 25.72L174.728 25.3872L174.257 26.72H175.671V25.72ZM188.103 29.184H174.135V31.184H188.103V29.184ZM173.191 29.8519L170.791 36.6679L172.678 37.3321L175.078 30.5161L173.191 29.8519ZM171.735 36H166.023V38H171.735V36ZM166.964 37.3368L178.916 3.92885L177.033 3.25515L165.081 36.6632L166.964 37.3368ZM177.975 4.592H184.311V2.592H177.975V4.592ZM183.369 3.92885L195.321 37.3368L197.204 36.6632L185.252 3.25515L183.369 3.92885ZM196.263 36H190.503V38H196.263V36ZM191.446 36.6679L189.046 29.8519L187.159 30.5161L189.559 37.3321L191.446 36.6679ZM187.511 25.3898L182.087 9.88578L180.199 10.5462L185.623 26.0502L187.511 25.3898ZM180.2 9.88318L174.728 25.3872L176.614 26.0528L182.086 10.5488L180.2 9.88318ZM175.671 26.72H186.567V24.72H175.671V26.72ZM206.931 1.48H207.931V0.48H206.931V1.48ZM206.931 37V38H207.931V37H206.931ZM201.459 37H200.459V38H201.459V37ZM201.459 1.48V0.48H200.459V1.48H201.459ZM205.931 1.48V37H207.931V1.48H205.931ZM206.931 36H201.459V38H206.931V36ZM202.459 37V1.48H200.459V37H202.459ZM201.459 2.48H206.931V0.48H201.459V2.48ZM213.924 16.6L213.043 16.1259L213.041 16.1308L213.924 16.6ZM218.532 11.8L218.034 10.9326V10.9326L218.532 11.8ZM233.172 12.424L232.578 13.2284L232.585 13.2336L232.592 13.2386L233.172 12.424ZM237.444 18.904V19.904H238.739L238.411 18.6511L237.444 18.904ZM231.54 18.904L230.601 19.2476L230.841 19.904H231.54V18.904ZM219.876 17.128L219.11 16.4848L219.109 16.4863L219.876 17.128ZM219.876 30.424L219.102 31.0581L219.11 31.0672L219.876 30.424ZM231.54 28.648V27.648H230.842L230.601 28.3028L231.54 28.648ZM237.444 28.648L238.405 28.9227L238.769 27.648H237.444V28.648ZM233.124 35.08L233.72 35.8829L233.727 35.8771L233.124 35.08ZM218.532 35.752L218.023 36.6133L218.034 36.6194L218.532 35.752ZM213.924 30.952L213.038 31.4155L213.042 31.4237L213.046 31.4318L213.924 30.952ZM213.292 23.752C213.292 21.1673 213.808 18.9496 214.807 17.0692L213.041 16.1308C211.863 18.3464 211.292 20.8967 211.292 23.752H213.292ZM214.804 17.0741C215.84 15.1498 217.247 13.6898 219.029 12.6674L218.034 10.9326C215.912 12.1502 214.247 13.8902 213.043 16.1259L214.804 17.0741ZM219.029 12.6674C220.812 11.6446 222.876 11.12 225.252 11.12V9.12C222.571 9.12 220.155 9.71541 218.034 10.9326L219.029 12.6674ZM225.252 11.12C228.289 11.12 230.707 11.847 232.578 13.2284L233.766 11.6196C231.476 9.92896 228.614 9.12 225.252 9.12V11.12ZM232.592 13.2386C234.489 14.5898 235.792 16.5381 236.476 19.1569L238.411 18.6511C237.624 15.6379 236.078 13.2662 233.752 11.6094L232.592 13.2386ZM237.444 17.904H231.54V19.904H237.444V17.904ZM232.479 18.5604C231.935 17.0728 231.046 15.8752 229.807 15.0116L228.664 16.6524C229.537 17.2608 230.185 18.1112 230.601 19.2476L232.479 18.5604ZM229.807 15.0116C228.547 14.133 227.006 13.728 225.252 13.728V15.728C226.697 15.728 227.812 16.059 228.664 16.6524L229.807 15.0116ZM225.252 13.728C222.74 13.728 220.659 14.6407 219.11 16.4848L220.641 17.7712C221.78 16.4153 223.283 15.728 225.252 15.728V13.728ZM219.109 16.4863C217.596 18.2937 216.908 20.7608 216.908 23.752H218.908C218.908 21.0472 219.531 19.0983 220.643 17.7697L219.109 16.4863ZM216.908 23.752C216.908 26.7448 217.597 29.2223 219.102 31.0581L220.649 29.7899C219.53 28.4257 218.908 26.4552 218.908 23.752H216.908ZM219.11 31.0672C220.659 32.9113 222.74 33.824 225.252 33.824V31.824C223.283 31.824 221.78 31.1367 220.641 29.7808L219.11 31.0672ZM225.252 33.824C226.982 33.824 228.503 33.443 229.753 32.613C231.008 31.7795 231.906 30.5478 232.478 28.9932L230.601 28.3028C230.149 29.5322 229.487 30.3885 228.646 30.947C227.8 31.509 226.69 31.824 225.252 31.824V33.824ZM231.54 29.648H237.444V27.648H231.54V29.648ZM236.482 28.3733C235.77 30.8653 234.449 32.8212 232.52 34.2829L233.727 35.8771C236.022 34.1388 237.581 31.8067 238.405 28.9227L236.482 28.3733ZM232.528 34.2771C230.619 35.6939 228.215 36.432 225.252 36.432V38.432C228.56 38.432 231.404 37.6021 233.72 35.8829L232.528 34.2771ZM225.252 36.432C222.876 36.432 220.812 35.9074 219.029 34.8846L218.034 36.6194C220.155 37.8366 222.571 38.432 225.252 38.432V36.432ZM219.04 34.8908C217.248 33.8332 215.837 32.3671 214.801 30.4722L213.046 31.4318C214.25 33.6329 215.911 35.3668 218.023 36.6132L219.04 34.8908ZM214.81 30.4885C213.808 28.5727 213.292 26.3363 213.292 23.752H211.292C211.292 26.6077 211.864 29.1713 213.038 31.4155L214.81 30.4885ZM261.953 11.416L261.47 12.2919L261.478 12.2959L261.953 11.416ZM265.697 15.256L264.813 15.7231L264.816 15.7296L264.82 15.736L265.697 15.256ZM267.089 37V38H268.089V37H267.089ZM261.665 37H260.665V38H261.665V37ZM259.889 16.792L259.155 17.4711L259.163 17.4803L259.889 16.792ZM250.145 16.792L249.42 16.1032L249.419 16.1037L250.145 16.792ZM248.369 37V38H249.369V37H248.369ZM242.897 37H241.897V38H242.897V37ZM242.897 1.48V0.48H241.897V1.48H242.897ZM248.369 1.48H249.369V0.48H248.369V1.48ZM248.369 13.624H247.369V16.3983L249.139 14.262L248.369 13.624ZM251.873 11.032L251.484 10.1107L251.476 10.1139L251.873 11.032ZM256.577 11.12C258.446 11.12 260.068 11.5191 261.47 12.2918L262.435 10.5402C260.702 9.58488 258.74 9.12 256.577 9.12V11.12ZM261.478 12.2959C262.894 13.0605 264.004 14.1921 264.813 15.7231L266.581 14.7889C265.598 12.9279 264.212 11.4995 262.428 10.5361L261.478 12.2959ZM264.82 15.736C265.65 17.2534 266.089 19.1278 266.089 21.4H268.089C268.089 18.8722 267.6 16.6506 266.574 14.776L264.82 15.736ZM266.089 21.4V37H268.089V21.4H266.089ZM267.089 36H261.665V38H267.089V36ZM262.665 37V22.216H260.665V37H262.665ZM262.665 22.216C262.665 19.6896 262.032 17.598 260.614 16.1037L259.163 17.4803C260.114 18.482 260.665 20.0064 260.665 22.216H262.665ZM260.623 16.113C259.216 14.5924 257.315 13.872 255.041 13.872V15.872C256.863 15.872 258.193 16.4316 259.155 17.471L260.623 16.113ZM255.041 13.872C252.767 13.872 250.855 14.5923 249.42 16.1032L250.87 17.4807C251.866 16.4317 253.219 15.872 255.041 15.872V13.872ZM249.419 16.1037C248.002 17.598 247.369 19.6896 247.369 22.216H249.369C249.369 20.0064 249.92 18.482 250.87 17.4803L249.419 16.1037ZM247.369 22.216V37H249.369V22.216H247.369ZM248.369 36H242.897V38H248.369V36ZM243.897 37V1.48H241.897V37H243.897ZM242.897 2.48H248.369V0.48H242.897V2.48ZM247.369 1.48V13.624H249.369V1.48H247.369ZM249.139 14.262C249.961 13.2702 250.998 12.499 252.269 11.9501L251.476 10.1139C249.932 10.781 248.633 11.7378 247.599 12.986L249.139 14.262ZM252.262 11.9532C253.569 11.4015 255.003 11.12 256.577 11.12V9.12C254.759 9.12 253.057 9.4465 251.484 10.1108L252.262 11.9532ZM298.117 25.816V26.816H298.969L299.104 25.974L298.117 25.816ZM277.909 25.816V24.816H276.83L276.912 25.8915L277.909 25.816ZM280.261 30.904L279.588 31.6439L280.261 30.904ZM291.685 29.128V28.128H291.063L290.788 28.6855L291.685 29.128ZM297.589 29.128L298.539 29.4405L298.97 28.128H297.589V29.128ZM293.221 35.128L293.815 35.9324L293.817 35.9309L293.221 35.128ZM278.629 35.752L278.127 36.6168L278.135 36.6216L278.143 36.6262L278.629 35.752ZM273.925 30.952L273.044 31.4261L273.049 31.4342L273.053 31.4423L273.925 30.952ZM273.877 16.6L272.996 16.1259L272.994 16.1308L273.877 16.6ZM278.533 11.8L278.047 10.9258L278.041 10.9292L278.533 11.8ZM292.117 11.752L292.604 10.8785L292.117 11.752ZM296.677 16.36L295.8 16.8408L295.803 16.8469L296.677 16.36ZM292.597 21.4V22.4H293.613L293.597 21.3841L292.597 21.4ZM290.437 16.552L291.09 15.7952L290.437 16.552ZM280.357 16.552L281.018 17.3024L281.028 17.2935L280.357 16.552ZM277.957 21.4L276.964 21.276L276.824 22.4H277.957V21.4ZM297.309 23.128C297.309 24.0784 297.247 24.9203 297.129 25.658L299.104 25.974C299.242 25.1117 299.309 24.1616 299.309 23.128H297.309ZM298.117 24.816H277.909V26.816H298.117V24.816ZM276.912 25.8915C277.089 28.227 277.969 30.1721 279.588 31.6439L280.933 30.1641C279.736 29.0759 279.049 27.629 278.906 25.7405L276.912 25.8915ZM279.588 31.6439C281.195 33.1047 283.169 33.824 285.445 33.824V31.824C283.625 31.824 282.143 31.2633 280.933 30.1641L279.588 31.6439ZM285.445 33.824C287.057 33.824 288.498 33.4858 289.722 32.7604C290.951 32.0326 291.9 30.952 292.581 29.5705L290.788 28.6855C290.254 29.768 289.554 30.5354 288.703 31.0396C287.848 31.5462 286.776 31.824 285.445 31.824V33.824ZM291.685 30.128H297.589V28.128H291.685V30.128ZM296.639 28.8155C295.905 31.0458 294.576 32.8765 292.625 34.3251L293.817 35.9309C296.09 34.2435 297.672 32.0742 298.539 29.4405L296.639 28.8155ZM292.627 34.3236C290.751 35.7087 288.379 36.432 285.445 36.432V38.432C288.719 38.432 291.53 37.6193 293.815 35.9324L292.627 34.3236ZM285.445 36.432C283.07 36.432 280.968 35.9075 279.114 34.8778L278.143 36.6262C280.322 37.8365 282.764 38.432 285.445 38.432V36.432ZM279.131 34.8872C277.305 33.8271 275.863 32.3581 274.796 30.4617L273.053 31.4423C274.29 33.6419 275.984 35.3729 278.127 36.6168L279.131 34.8872ZM274.805 30.4779C273.775 28.5643 273.245 26.3318 273.245 23.752H271.245C271.245 26.6122 271.835 29.1797 273.044 31.4261L274.805 30.4779ZM273.245 23.752C273.245 21.1673 273.761 18.9496 274.76 17.0692L272.994 16.1308C271.817 18.3464 271.245 20.8967 271.245 23.752H273.245ZM274.757 17.0741C275.791 15.154 277.211 13.6944 279.024 12.6708L278.041 10.9292C275.886 12.1456 274.202 13.886 272.996 16.1259L274.757 17.0741ZM279.018 12.6742C280.868 11.6465 283.001 11.12 285.445 11.12V9.12C282.704 9.12 280.229 9.71349 278.047 10.9258L279.018 12.6742ZM285.445 11.12C287.791 11.12 289.844 11.6298 291.63 12.6255L292.604 10.8785C290.486 9.69819 288.091 9.12 285.445 9.12V11.12ZM291.63 12.6255C293.415 13.6207 294.801 15.0196 295.8 16.8408L297.554 15.8792C296.376 13.7324 294.722 12.0593 292.604 10.8785L291.63 12.6255ZM295.803 16.8469C296.797 18.6295 297.309 20.7133 297.309 23.128H299.309C299.309 20.4227 298.733 17.9945 297.55 15.8731L295.803 16.8469ZM293.597 21.3841C293.561 19.1099 292.734 17.2144 291.09 15.7952L289.783 17.3088C290.956 18.3216 291.569 19.6581 291.597 21.4159L293.597 21.3841ZM291.09 15.7952C289.479 14.4036 287.494 13.728 285.205 13.728V15.728C287.075 15.728 288.578 16.2684 289.783 17.3088L291.09 15.7952ZM285.205 13.728C283.08 13.728 281.222 14.4207 279.686 15.8105L281.028 17.2935C282.18 16.2513 283.553 15.728 285.205 15.728V13.728ZM279.696 15.8016C278.141 17.1714 277.246 19.025 276.964 21.276L278.949 21.524C279.18 19.679 279.885 18.3006 281.018 17.3024L279.696 15.8016ZM277.957 22.4H292.597V20.4H277.957V22.4ZM341.278 11.416L340.81 12.2998L340.817 12.3035L341.278 11.416ZM345.166 15.256L344.288 15.736L344.292 15.7423L344.296 15.7486L345.166 15.256ZM346.606 37V38H347.606V37H346.606ZM341.182 37H340.182V38H341.182V37ZM339.406 16.792L338.672 17.4711L338.68 17.4803L339.406 16.792ZM329.662 16.792L328.937 16.1032L328.936 16.1037L329.662 16.792ZM327.886 37V38H328.886V37H327.886ZM322.462 37H321.462V38H322.462V37ZM320.686 16.792L319.952 17.4711L319.96 17.4803L320.686 16.792ZM310.942 16.792L310.217 16.1032L310.216 16.1037L310.942 16.792ZM309.166 37V38H310.166V37H309.166ZM303.694 37H302.694V38H303.694V37ZM303.694 10.552V9.552H302.694V10.552H303.694ZM309.166 10.552H310.166V9.552H309.166V10.552ZM309.166 13.576H308.166V16.3633L309.938 14.2117L309.166 13.576ZM312.574 11.032L312.978 11.9467L312.574 11.032ZM322.654 11.464L323.128 10.5835L322.654 11.464ZM326.494 15.352L325.61 15.8191L326.518 17.5391L327.388 15.7992L326.494 15.352ZM330.238 11.56L330.718 12.4373L330.724 12.4338L330.73 12.4303L330.238 11.56ZM335.71 11.12C337.648 11.12 339.339 11.5213 340.81 12.2998L341.746 10.5322C339.952 9.58269 337.932 9.12 335.71 9.12V11.12ZM340.817 12.3035C342.299 13.073 343.453 14.2084 344.288 15.736L346.043 14.776C345.023 12.9116 343.584 11.487 341.739 10.5285L340.817 12.3035ZM344.296 15.7486C345.153 17.2633 345.606 19.133 345.606 21.4H347.606C347.606 18.867 347.099 16.6407 346.036 14.7634L344.296 15.7486ZM345.606 21.4V37H347.606V21.4H345.606ZM346.606 36H341.182V38H346.606V36ZM342.182 37V22.216H340.182V37H342.182ZM342.182 22.216C342.182 19.6896 341.549 17.598 340.131 16.1037L338.68 17.4803C339.631 18.482 340.182 20.0064 340.182 22.216H342.182ZM340.14 16.113C338.733 14.5924 336.831 13.872 334.558 13.872V15.872C336.38 15.872 337.71 16.4316 338.672 17.471L340.14 16.113ZM334.558 13.872C332.283 13.872 330.372 14.5923 328.937 16.1032L330.387 17.4807C331.383 16.4317 332.736 15.872 334.558 15.872V13.872ZM328.936 16.1037C327.519 17.598 326.886 19.6896 326.886 22.216H328.886C328.886 20.0064 329.437 18.482 330.387 17.4803L328.936 16.1037ZM326.886 22.216V37H328.886V22.216H326.886ZM327.886 36H322.462V38H327.886V36ZM323.462 37V22.216H321.462V37H323.462ZM323.462 22.216C323.462 19.6896 322.829 17.598 321.411 16.1037L319.96 17.4803C320.911 18.482 321.462 20.0064 321.462 22.216H323.462ZM321.42 16.113C320.013 14.5924 318.111 13.872 315.838 13.872V15.872C317.66 15.872 318.99 16.4316 319.952 17.471L321.42 16.113ZM315.838 13.872C313.563 13.872 311.652 14.5923 310.217 16.1032L311.667 17.4807C312.663 16.4317 314.016 15.872 315.838 15.872V13.872ZM310.216 16.1037C308.799 17.598 308.166 19.6896 308.166 22.216H310.166C310.166 20.0064 310.717 18.482 311.667 17.4803L310.216 16.1037ZM308.166 22.216V37H310.166V22.216H308.166ZM309.166 36H303.694V38H309.166V36ZM304.694 37V10.552H302.694V37H304.694ZM303.694 11.552H309.166V9.552H303.694V11.552ZM308.166 10.552V13.576H310.166V10.552H308.166ZM309.938 14.2117C310.728 13.2521 311.735 12.496 312.978 11.9467L312.17 10.1173C310.661 10.784 309.396 11.7239 308.394 12.9403L309.938 14.2117ZM312.978 11.9467C314.221 11.3973 315.555 11.12 316.99 11.12V9.12C315.289 9.12 313.678 9.45067 312.17 10.1173L312.978 11.9467ZM316.99 11.12C318.956 11.12 320.678 11.5358 322.18 12.3445L323.128 10.5835C321.302 9.6002 319.247 9.12 316.99 9.12V11.12ZM322.18 12.3445C323.666 13.1449 324.805 14.2957 325.61 15.8191L327.378 14.8849C326.391 13.0163 324.969 11.5751 323.128 10.5835L322.18 12.3445ZM327.388 15.7992C328.09 14.3963 329.185 13.2758 330.718 12.4373L329.758 10.6827C327.898 11.7002 326.498 13.1077 325.599 14.9048L327.388 15.7992ZM330.73 12.4303C332.276 11.5554 333.93 11.12 335.71 11.12V9.12C333.585 9.12 331.592 9.64455 329.745 10.6897L330.73 12.4303ZM377.377 10.552L378.3 10.9371L378.878 9.552H377.377V10.552ZM361.153 49.432V50.432H361.819L362.076 49.8171L361.153 49.432ZM355.489 49.432L354.566 49.0464L353.987 50.432H355.489V49.432ZM360.865 36.568L361.787 36.9536L361.945 36.5761L361.793 36.1963L360.865 36.568ZM350.449 10.552V9.552H348.971L349.52 10.9237L350.449 10.552ZM356.545 10.552L357.483 10.2058L357.242 9.552H356.545V10.552ZM363.985 30.712L363.047 31.0582L363.967 33.5522L364.918 31.0699L363.985 30.712ZM371.713 10.552V9.552H371.025L370.779 10.1941L371.713 10.552ZM376.454 10.1669L360.23 49.0469L362.076 49.8171L378.3 10.9371L376.454 10.1669ZM361.153 48.432H355.489V50.432H361.153V48.432ZM356.411 49.8176L361.787 36.9536L359.942 36.1824L354.566 49.0464L356.411 49.8176ZM361.793 36.1963L351.377 10.1803L349.52 10.9237L359.936 36.9397L361.793 36.1963ZM350.449 11.552H356.545V9.552H350.449V11.552ZM355.607 10.8982L363.047 31.0582L364.923 30.3658L357.483 10.2058L355.607 10.8982ZM364.918 31.0699L372.646 10.9099L370.779 10.1941L363.051 30.3541L364.918 31.0699ZM371.713 11.552H377.377V9.552H371.713V11.552Z" fill="#D2D5FB" mask="url(#path-1-outside-1_406_67589)"/>
</svg>
