<svg width="42" height="50" viewBox="0 0 42 50" fill="none" xmlns="http://www.w3.org/2000/svg">
<path d="M32.0556 34.7716L31.8437 37.1931C31.6972 38.2339 30.7995 38.9871 29.8089 38.9005L8.39648 37.0826C7.35568 36.9361 6.60241 36.0384 6.68908 35.0478L8.56682 13.5851C8.65348 12.5945 9.55119 11.8412 10.6016 11.8777L13.0231 12.0895C14.0639 12.2361 14.8171 13.1338 14.7807 14.1842L13.3142 27.143L30.4904 12.7305C31.3282 12.0274 32.4289 12.1237 33.1319 12.9616L34.7389 14.8767C35.3917 15.6547 35.3456 16.8152 34.5078 17.5182L17.3316 31.9308L30.298 32.677C31.3388 32.8235 32.1519 33.671 32.0556 34.7716Z" fill="white"/>
</svg>
