<svg width="46" height="50" viewBox="0 0 46 50" fill="none" xmlns="http://www.w3.org/2000/svg">
<path d="M19.4662 5.45706C19.1933 5.45729 18.9265 5.37657 18.6996 5.22513C18.4726 5.07368 18.2957 4.85832 18.1912 4.60629C18.0867 4.35426 18.0593 4.07689 18.1124 3.80928C18.1656 3.54166 18.297 3.29584 18.4899 3.10291C18.6828 2.90998 18.9287 2.77862 19.1963 2.72545C19.4639 2.67227 19.7413 2.69968 19.9933 2.80419C20.2453 2.90871 20.4607 3.08564 20.6121 3.31259C20.7636 3.53955 20.8443 3.80633 20.8441 4.07917C20.8435 4.44442 20.6981 4.79455 20.4398 5.05282C20.1815 5.3111 19.8314 5.45646 19.4662 5.45706Z" fill="url(#paint0_linear_207_103)"/>
<path d="M19.4662 5.45706C19.1933 5.45729 18.9265 5.37657 18.6996 5.22513C18.4726 5.07368 18.2957 4.85832 18.1912 4.60629C18.0867 4.35426 18.0593 4.07689 18.1124 3.80928C18.1656 3.54166 18.297 3.29584 18.4899 3.10291C18.6828 2.90998 18.9287 2.77862 19.1963 2.72545C19.4639 2.67227 19.7413 2.69968 19.9933 2.80419C20.2453 2.90871 20.4607 3.08564 20.6121 3.31259C20.7636 3.53955 20.8443 3.80633 20.8441 4.07917C20.8435 4.44442 20.6981 4.79455 20.4398 5.05282C20.1815 5.3111 19.8314 5.45646 19.4662 5.45706Z" fill="url(#paint1_linear_207_103)"/>
<path fill-rule="evenodd" clip-rule="evenodd" d="M29.9657 30.9453C31.2392 29.3757 31.965 27.8338 32.3093 26.1895C32.4774 25.3867 32.5547 24.5596 32.5603 23.6929C32.5774 21.0512 31.6958 18.4821 30.0601 16.4075C28.4244 14.333 26.1318 12.8763 23.559 12.2767C20.9861 11.6771 18.2858 11.9702 15.9014 13.1079C13.5171 14.2455 11.5905 16.1602 10.438 18.5373C9.2855 20.9145 8.97558 23.6129 9.55914 26.1895C10.1427 28.7661 11.585 31.0676 13.6493 32.7163C15.7137 34.3649 18.2772 35.2625 20.919 35.2618C21.7333 35.262 22.5454 35.1771 23.342 35.0085C25.0518 34.6455 26.657 33.8994 28.0368 32.8264C29.4166 31.7533 29.9657 30.9453 29.9657 30.9453ZM17.3866 31.8491C19.0878 32.5793 20.9735 32.7644 22.7842 32.3788V32.3754C24.0297 32.1112 25.1047 31.8212 26.2911 30.9453C27.1387 30.3194 27.5079 29.7627 28.1311 28.9131C28.9211 27.8362 29.3988 26.8053 29.6496 25.729C29.8076 25.0511 29.8755 24.3552 29.8748 23.6185C29.8746 21.7671 29.3006 19.9614 28.2319 18.4496C27.1632 16.9379 25.6523 15.7946 23.907 15.1769C22.1618 14.5592 20.268 14.4976 18.4863 15.0005C16.7046 15.5034 15.1225 16.5461 13.9578 17.9851C12.793 19.4241 12.1029 21.1888 11.9823 23.0362C11.8617 24.8836 12.3166 26.7229 13.2844 28.3011C14.2522 29.8794 15.6853 31.1189 17.3866 31.8491Z" fill="url(#paint2_linear_207_103)"/>
<path fill-rule="evenodd" clip-rule="evenodd" d="M29.9657 30.9453C31.2392 29.3757 31.965 27.8338 32.3093 26.1895C32.4774 25.3867 32.5547 24.5596 32.5603 23.6929C32.5774 21.0512 31.6958 18.4821 30.0601 16.4075C28.4244 14.333 26.1318 12.8763 23.559 12.2767C20.9861 11.6771 18.2858 11.9702 15.9014 13.1079C13.5171 14.2455 11.5905 16.1602 10.438 18.5373C9.2855 20.9145 8.97558 23.6129 9.55914 26.1895C10.1427 28.7661 11.585 31.0676 13.6493 32.7163C15.7137 34.3649 18.2772 35.2625 20.919 35.2618C21.7333 35.262 22.5454 35.1771 23.342 35.0085C25.0518 34.6455 26.657 33.8994 28.0368 32.8264C29.4166 31.7533 29.9657 30.9453 29.9657 30.9453ZM17.3866 31.8491C19.0878 32.5793 20.9735 32.7644 22.7842 32.3788V32.3754C24.0297 32.1112 25.1047 31.8212 26.2911 30.9453C27.1387 30.3194 27.5079 29.7627 28.1311 28.9131C28.9211 27.8362 29.3988 26.8053 29.6496 25.729C29.8076 25.0511 29.8755 24.3552 29.8748 23.6185C29.8746 21.7671 29.3006 19.9614 28.2319 18.4496C27.1632 16.9379 25.6523 15.7946 23.907 15.1769C22.1618 14.5592 20.268 14.4976 18.4863 15.0005C16.7046 15.5034 15.1225 16.5461 13.9578 17.9851C12.793 19.4241 12.1029 21.1888 11.9823 23.0362C11.8617 24.8836 12.3166 26.7229 13.2844 28.3011C14.2522 29.8794 15.6853 31.1189 17.3866 31.8491Z" fill="url(#paint3_linear_207_103)"/>
<path fill-rule="evenodd" clip-rule="evenodd" d="M23.3386 2.83077C23.045 1.91511 22.4371 1.13275 21.6224 0.622093C20.8076 0.111433 19.8385 -0.0946284 18.8865 0.0403574C17.9344 0.175343 17.0608 0.642676 16.4201 1.3597C15.7794 2.07672 15.4129 2.99723 15.3855 3.9584C15.3581 4.91958 15.6715 5.85948 16.2702 6.61187C16.869 7.36426 17.7145 7.88065 18.6573 8.06971C19.6001 8.25876 20.5794 8.1083 21.422 7.64493C22.2645 7.18156 22.9161 6.43515 23.2613 5.53771C32.2591 6.6941 39.1497 14.4174 39.1497 23.6151C39.1497 28.4053 37.5174 32.6196 34.4231 35.8923L36.2463 37.8938C39.9142 34.0964 41.8442 29.188 41.8442 23.6151C41.8419 12.9645 33.7972 4.03828 23.3386 2.83077ZM18.6996 5.22513C18.9265 5.37657 19.1933 5.45729 19.4662 5.45706C19.8314 5.45646 20.1815 5.3111 20.4398 5.05282C20.6981 4.79455 20.8435 4.44442 20.8441 4.07917C20.8443 3.80633 20.7636 3.53955 20.6121 3.31259C20.4607 3.08564 20.2453 2.90871 19.9933 2.80419C19.7413 2.69968 19.4639 2.67227 19.1963 2.72545C18.9287 2.77862 18.6828 2.90998 18.4899 3.10291C18.297 3.29584 18.1656 3.54166 18.1124 3.80928C18.0593 4.07689 18.0867 4.35426 18.1912 4.60629C18.2957 4.85832 18.4726 5.07368 18.6996 5.22513Z" fill="url(#paint4_linear_207_103)"/>
<path fill-rule="evenodd" clip-rule="evenodd" d="M23.3386 2.83077C23.045 1.91511 22.4371 1.13275 21.6224 0.622093C20.8076 0.111433 19.8385 -0.0946284 18.8865 0.0403574C17.9344 0.175343 17.0608 0.642676 16.4201 1.3597C15.7794 2.07672 15.4129 2.99723 15.3855 3.9584C15.3581 4.91958 15.6715 5.85948 16.2702 6.61187C16.869 7.36426 17.7145 7.88065 18.6573 8.06971C19.6001 8.25876 20.5794 8.1083 21.422 7.64493C22.2645 7.18156 22.9161 6.43515 23.2613 5.53771C32.2591 6.6941 39.1497 14.4174 39.1497 23.6151C39.1497 28.4053 37.5174 32.6196 34.4231 35.8923L36.2463 37.8938C39.9142 34.0964 41.8442 29.188 41.8442 23.6151C41.8419 12.9645 33.7972 4.03828 23.3386 2.83077ZM18.6996 5.22513C18.9265 5.37657 19.1933 5.45729 19.4662 5.45706C19.8314 5.45646 20.1815 5.3111 20.4398 5.05282C20.6981 4.79455 20.8435 4.44442 20.8441 4.07917C20.8443 3.80633 20.7636 3.53955 20.6121 3.31259C20.4607 3.08564 20.2453 2.90871 19.9933 2.80419C19.7413 2.69968 19.4639 2.67227 19.1963 2.72545C18.9287 2.77862 18.6828 2.90998 18.4899 3.10291C18.297 3.29584 18.1656 3.54166 18.1124 3.80928C18.0593 4.07689 18.0867 4.35426 18.1912 4.60629C18.2957 4.85832 18.4726 5.07368 18.6996 5.22513Z" fill="url(#paint5_linear_207_103)"/>
<path d="M23.6435 39.1206C22.8073 39.1223 21.9918 39.3812 21.3078 39.8622C20.6238 40.3432 20.1043 41.023 19.8199 41.8094C10.278 41.2414 2.6888 33.2978 2.6888 23.6151C2.68414 20.9021 3.28717 18.2225 4.45361 15.773C5.62005 13.3236 7.32027 11.1665 9.42946 9.46012L7.73464 7.37C5.31463 9.32853 3.36384 11.8041 2.02544 14.6149C0.687031 17.4258 -0.00503372 20.5007 2.75619e-05 23.6139C2.75619e-05 34.7734 8.78198 43.92 19.7983 44.5061C20.0405 45.2136 20.4729 45.8406 21.0481 46.3184C21.6233 46.7962 22.319 47.1062 23.0589 47.2145C23.7988 47.3228 24.5541 47.225 25.2421 46.9321C25.9301 46.6391 26.524 46.1623 26.9587 45.5539C27.3934 44.9454 27.6521 44.229 27.7062 43.4832C27.7604 42.7374 27.608 41.9911 27.2658 41.3263C26.9236 40.6614 26.4048 40.1037 25.7664 39.7145C25.128 39.3251 24.3946 39.1193 23.6469 39.1195L23.6435 39.1206ZM23.6435 44.5731C23.3709 44.5731 23.1045 44.4923 22.878 44.3409C22.6514 44.1895 22.4748 43.9743 22.3705 43.7226C22.2662 43.4708 22.2389 43.1937 22.2921 42.9264C22.3452 42.6592 22.4764 42.4136 22.6691 42.2209C22.8619 42.0282 23.1074 41.897 23.3747 41.8438C23.6419 41.7907 23.919 41.818 24.1708 41.9222C24.4225 42.0265 24.6377 42.2031 24.7892 42.4297C24.9406 42.6563 25.0214 42.9227 25.0214 43.1953C25.0202 43.56 24.8745 43.9094 24.6163 44.167C24.358 44.4246 24.0082 44.5694 23.6435 44.5697V44.5731Z" fill="url(#paint6_linear_207_103)"/>
<path d="M23.6435 39.1206C22.8073 39.1223 21.9918 39.3812 21.3078 39.8622C20.6238 40.3432 20.1043 41.023 19.8199 41.8094C10.278 41.2414 2.6888 33.2978 2.6888 23.6151C2.68414 20.9021 3.28717 18.2225 4.45361 15.773C5.62005 13.3236 7.32027 11.1665 9.42946 9.46012L7.73464 7.37C5.31463 9.32853 3.36384 11.8041 2.02544 14.6149C0.687031 17.4258 -0.00503372 20.5007 2.75619e-05 23.6139C2.75619e-05 34.7734 8.78198 43.92 19.7983 44.5061C20.0405 45.2136 20.4729 45.8406 21.0481 46.3184C21.6233 46.7962 22.319 47.1062 23.0589 47.2145C23.7988 47.3228 24.5541 47.225 25.2421 46.9321C25.9301 46.6391 26.524 46.1623 26.9587 45.5539C27.3934 44.9454 27.6521 44.229 27.7062 43.4832C27.7604 42.7374 27.608 41.9911 27.2658 41.3263C26.9236 40.6614 26.4048 40.1037 25.7664 39.7145C25.128 39.3251 24.3946 39.1193 23.6469 39.1195L23.6435 39.1206ZM23.6435 44.5731C23.3709 44.5731 23.1045 44.4923 22.878 44.3409C22.6514 44.1895 22.4748 43.9743 22.3705 43.7226C22.2662 43.4708 22.2389 43.1937 22.2921 42.9264C22.3452 42.6592 22.4764 42.4136 22.6691 42.2209C22.8619 42.0282 23.1074 41.897 23.3747 41.8438C23.6419 41.7907 23.919 41.818 24.1708 41.9222C24.4225 42.0265 24.6377 42.2031 24.7892 42.4297C24.9406 42.6563 25.0214 42.9227 25.0214 43.1953C25.0202 43.56 24.8745 43.9094 24.6163 44.167C24.358 44.4246 24.0082 44.5694 23.6435 44.5697V44.5731Z" fill="url(#paint7_linear_207_103)"/>
<path opacity="0.2" d="M36.2316 37.8836L34.4141 35.8957C34.4141 35.8957 35.6685 34.502 36.2884 33.5102C36.8563 32.6015 37.1586 32.0932 37.5947 31.1247C38.0806 30.0456 38.2763 29.4208 38.2763 29.4208L40.9457 29.932C40.9457 29.932 40.6617 30.784 40.0938 32.2039C39.6394 33.3398 39.256 33.9928 38.5602 35.0437C37.7685 36.2396 37.3107 36.8044 36.2316 37.8836Z" fill="black"/>
<path opacity="0.2" d="M22.7852 32.3755C24.0307 32.1112 25.1056 31.8212 26.292 30.9453C27.1396 30.3195 27.5088 29.7627 28.132 28.9131C28.922 27.8362 29.3997 26.8053 29.6505 25.7291L32.3102 26.1895C31.9659 27.8338 31.2401 29.3758 29.9666 30.9453C29.9666 30.9453 29.4175 31.7534 28.0377 32.8264C26.6579 33.8995 25.3205 34.5879 23.3429 35.0086L22.7852 32.3789V32.3755Z" fill="black"/>
<path d="M22.9404 25.2178L32.8479 49.7541L36.097 39.2317L46 35.7892L22.9404 25.2178Z" fill="url(#paint8_linear_207_103)"/>
<defs>
<linearGradient id="paint0_linear_207_103" x1="25.5559" y1="6.65661" x2="25.5559" y2="41.2289" gradientUnits="userSpaceOnUse">
<stop stop-color="white"/>
<stop offset="1" stop-color="#929497"/>
</linearGradient>
<linearGradient id="paint1_linear_207_103" x1="25.6464" y1="5.35558" x2="25.6464" y2="41.3678" gradientUnits="userSpaceOnUse">
<stop stop-color="#ACBDFF"/>
<stop offset="1" stop-color="#302DC6"/>
</linearGradient>
<linearGradient id="paint2_linear_207_103" x1="25.5559" y1="6.65661" x2="25.5559" y2="41.2289" gradientUnits="userSpaceOnUse">
<stop stop-color="white"/>
<stop offset="1" stop-color="#929497"/>
</linearGradient>
<linearGradient id="paint3_linear_207_103" x1="25.6464" y1="5.35558" x2="25.6464" y2="41.3678" gradientUnits="userSpaceOnUse">
<stop stop-color="#ACBDFF"/>
<stop offset="1" stop-color="#302DC6"/>
</linearGradient>
<linearGradient id="paint4_linear_207_103" x1="25.5559" y1="6.65661" x2="25.5559" y2="41.2289" gradientUnits="userSpaceOnUse">
<stop stop-color="white"/>
<stop offset="1" stop-color="#929497"/>
</linearGradient>
<linearGradient id="paint5_linear_207_103" x1="25.6464" y1="5.35558" x2="25.6464" y2="41.3678" gradientUnits="userSpaceOnUse">
<stop stop-color="#ACBDFF"/>
<stop offset="1" stop-color="#302DC6"/>
</linearGradient>
<linearGradient id="paint6_linear_207_103" x1="13.8551" y1="6.65663" x2="13.8551" y2="41.2289" gradientUnits="userSpaceOnUse">
<stop stop-color="white"/>
<stop offset="1" stop-color="#929497"/>
</linearGradient>
<linearGradient id="paint7_linear_207_103" x1="13.9339" y1="13.0073" x2="13.9339" y2="50.9142" gradientUnits="userSpaceOnUse">
<stop stop-color="#ACBDFF"/>
<stop offset="1" stop-color="#302DC6"/>
</linearGradient>
<linearGradient id="paint8_linear_207_103" x1="34.533" y1="28.6856" x2="34.533" y2="52.0036" gradientUnits="userSpaceOnUse">
<stop stop-color="#ACBDFF"/>
<stop offset="1" stop-color="#302DC6"/>
</linearGradient>
</defs>
</svg>
