<svg width="546" height="51" viewBox="0 0 546 51" fill="none" xmlns="http://www.w3.org/2000/svg">
<mask id="path-1-outside-1_406_67590" maskUnits="userSpaceOnUse" x="-1" y="-1" width="548" height="53" fill="black">
<rect fill="white" x="-1" y="-1" width="548" height="53"/>
<path d="M12.592 37.336C10.352 37.336 8.336 36.952 6.544 36.184C4.752 35.384 3.344 34.264 2.32 32.824C1.296 31.384 0.784 29.704 0.784 27.784H6.64C6.768 29.224 7.328 30.408 8.32 31.336C9.344 32.264 10.768 32.728 12.592 32.728C14.48 32.728 15.952 32.28 17.008 31.384C18.064 30.456 18.592 29.272 18.592 27.832C18.592 26.712 18.256 25.8 17.584 25.096C16.944 24.392 16.128 23.848 15.136 23.464C14.176 23.08 12.832 22.664 11.104 22.216C8.928 21.64 7.152 21.064 5.776 20.488C4.432 19.88 3.28 18.952 2.32 17.704C1.36 16.456 0.88 14.792 0.88 12.712C0.88 10.792 1.36 9.112 2.32 7.672C3.28 6.232 4.624 5.128 6.352 4.36C8.08 3.592 10.08 3.208 12.352 3.208C15.584 3.208 18.224 4.024 20.272 5.656C22.352 7.256 23.504 9.464 23.728 12.28H17.68C17.584 11.064 17.008 10.024 15.952 9.16C14.896 8.296 13.504 7.864 11.776 7.864C10.208 7.864 8.928 8.264 7.936 9.064C6.944 9.864 6.448 11.016 6.448 12.52C6.448 13.544 6.752 14.392 7.36 15.064C8 15.704 8.8 16.216 9.76 16.6C10.72 16.984 12.032 17.4 13.696 17.848C15.904 18.456 17.696 19.064 19.072 19.672C20.48 20.28 21.664 21.224 22.624 22.504C23.616 23.752 24.112 25.432 24.112 27.544C24.112 29.24 23.648 30.84 22.72 32.344C21.824 33.848 20.496 35.064 18.736 35.992C17.008 36.888 14.96 37.336 12.592 37.336ZM36.9528 15.016V29.656C36.9528 30.648 37.1768 31.368 37.6248 31.816C38.1048 32.232 38.9048 32.44 40.0248 32.44H43.3848V37H39.0648C36.6008 37 34.7128 36.424 33.4008 35.272C32.0888 34.12 31.4328 32.248 31.4328 29.656V15.016H28.3128V10.552H31.4328V3.976H36.9528V10.552H43.3848V15.016H36.9528ZM53.9001 14.392C54.7001 13.048 55.7561 12.008 57.0681 11.272C58.4121 10.504 59.9961 10.12 61.8201 10.12V15.784H60.4281C58.2841 15.784 56.6521 16.328 55.5321 17.416C54.4441 18.504 53.9001 20.392 53.9001 23.08V37H48.4281V10.552H53.9001V14.392ZM65.026 23.656C65.026 21 65.57 18.648 66.658 16.6C67.778 14.552 69.282 12.968 71.17 11.848C73.09 10.696 75.202 10.12 77.506 10.12C79.586 10.12 81.394 10.536 82.93 11.368C84.498 12.168 85.746 13.176 86.674 14.392V10.552H92.194V37H86.674V33.064C85.746 34.312 84.482 35.352 82.882 36.184C81.282 37.016 79.458 37.432 77.41 37.432C75.138 37.432 73.058 36.856 71.17 35.704C69.282 34.52 67.778 32.888 66.658 30.808C65.57 28.696 65.026 26.312 65.026 23.656ZM86.674 23.752C86.674 21.928 86.29 20.344 85.522 19C84.786 17.656 83.81 16.632 82.594 15.928C81.378 15.224 80.066 14.872 78.658 14.872C77.25 14.872 75.938 15.224 74.722 15.928C73.506 16.6 72.514 17.608 71.746 18.952C71.01 20.264 70.642 21.832 70.642 23.656C70.642 25.48 71.01 27.08 71.746 28.456C72.514 29.832 73.506 30.888 74.722 31.624C75.97 32.328 77.282 32.68 78.658 32.68C80.066 32.68 81.378 32.328 82.594 31.624C83.81 30.92 84.786 29.896 85.522 28.552C86.29 27.176 86.674 25.576 86.674 23.752ZM105.765 15.016V29.656C105.765 30.648 105.989 31.368 106.437 31.816C106.917 32.232 107.717 32.44 108.837 32.44H112.197V37H107.877C105.413 37 103.525 36.424 102.213 35.272C100.901 34.12 100.245 32.248 100.245 29.656V15.016H97.1253V10.552H100.245V3.976H105.765V10.552H112.197V15.016H105.765ZM141.481 23.128C141.481 24.12 141.417 25.016 141.289 25.816H121.081C121.241 27.928 122.025 29.624 123.433 30.904C124.841 32.184 126.569 32.824 128.617 32.824C131.561 32.824 133.641 31.592 134.857 29.128H140.761C139.961 31.56 138.505 33.56 136.393 35.128C134.313 36.664 131.721 37.432 128.617 37.432C126.089 37.432 123.817 36.872 121.801 35.752C119.817 34.6 118.249 33 117.097 30.952C115.977 28.872 115.417 26.472 115.417 23.752C115.417 21.032 115.961 18.648 117.049 16.6C118.169 14.52 119.721 12.92 121.705 11.8C123.721 10.68 126.025 10.12 128.617 10.12C131.113 10.12 133.337 10.664 135.289 11.752C137.241 12.84 138.761 14.376 139.849 16.36C140.937 18.312 141.481 20.568 141.481 23.128ZM135.769 21.4C135.737 19.384 135.017 17.768 133.609 16.552C132.201 15.336 130.457 14.728 128.377 14.728C126.489 14.728 124.873 15.336 123.529 16.552C122.185 17.736 121.385 19.352 121.129 21.4H135.769ZM157.522 10.12C159.57 10.12 161.378 10.536 162.946 11.368C164.546 12.168 165.794 13.176 166.69 14.392V10.552H172.21V37.432C172.21 39.864 171.698 42.024 170.674 43.912C169.65 45.832 168.162 47.336 166.21 48.424C164.29 49.512 161.986 50.056 159.298 50.056C155.714 50.056 152.738 49.208 150.37 47.512C148.002 45.848 146.658 43.576 146.338 40.696H151.762C152.178 42.072 153.058 43.176 154.402 44.008C155.778 44.872 157.41 45.304 159.298 45.304C161.506 45.304 163.282 44.632 164.626 43.288C166.002 41.944 166.69 39.992 166.69 37.432V33.016C165.762 34.264 164.498 35.32 162.898 36.184C161.33 37.016 159.538 37.432 157.522 37.432C155.218 37.432 153.106 36.856 151.186 35.704C149.298 34.52 147.794 32.888 146.674 30.808C145.586 28.696 145.042 26.312 145.042 23.656C145.042 21 145.586 18.648 146.674 16.6C147.794 14.552 149.298 12.968 151.186 11.848C153.106 10.696 155.218 10.12 157.522 10.12ZM166.69 23.752C166.69 21.928 166.306 20.344 165.538 19C164.802 17.656 163.826 16.632 162.61 15.928C161.394 15.224 160.082 14.872 158.674 14.872C157.266 14.872 155.954 15.224 154.738 15.928C153.522 16.6 152.53 17.608 151.762 18.952C151.026 20.264 150.658 21.832 150.658 23.656C150.658 25.48 151.026 27.08 151.762 28.456C152.53 29.832 153.522 30.888 154.738 31.624C155.986 32.328 157.298 32.68 158.674 32.68C160.082 32.68 161.394 32.328 162.61 31.624C163.826 30.92 164.802 29.896 165.538 28.552C166.306 27.176 166.69 25.576 166.69 23.752ZM182.181 7.048C181.189 7.048 180.357 6.712 179.685 6.04C179.013 5.368 178.677 4.536 178.677 3.544C178.677 2.552 179.013 1.72 179.685 1.048C180.357 0.375998 181.189 0.0399981 182.181 0.0399981C183.141 0.0399981 183.957 0.375998 184.629 1.048C185.301 1.72 185.637 2.552 185.637 3.544C185.637 4.536 185.301 5.368 184.629 6.04C183.957 6.712 183.141 7.048 182.181 7.048ZM184.869 10.552V37H179.397V10.552H184.869ZM190.229 23.752C190.229 21.032 190.773 18.648 191.861 16.6C192.981 14.52 194.517 12.92 196.469 11.8C198.421 10.68 200.661 10.12 203.189 10.12C206.389 10.12 209.029 10.888 211.109 12.424C213.221 13.928 214.645 16.088 215.381 18.904H209.477C208.997 17.592 208.229 16.568 207.173 15.832C206.117 15.096 204.789 14.728 203.189 14.728C200.949 14.728 199.157 15.528 197.813 17.128C196.501 18.696 195.845 20.904 195.845 23.752C195.845 26.6 196.501 28.824 197.813 30.424C199.157 32.024 200.949 32.824 203.189 32.824C206.357 32.824 208.453 31.432 209.477 28.648H215.381C214.613 31.336 213.173 33.48 211.061 35.08C208.949 36.648 206.325 37.432 203.189 37.432C200.661 37.432 198.421 36.872 196.469 35.752C194.517 34.6 192.981 33 191.861 30.952C190.773 28.872 190.229 26.472 190.229 23.752ZM254.855 3.64V8.104H245.975V37H240.503V8.104H231.575V3.64H254.855ZM284.637 23.128C284.637 24.12 284.573 25.016 284.445 25.816H264.237C264.397 27.928 265.181 29.624 266.589 30.904C267.997 32.184 269.725 32.824 271.773 32.824C274.717 32.824 276.797 31.592 278.013 29.128H283.917C283.117 31.56 281.661 33.56 279.549 35.128C277.469 36.664 274.877 37.432 271.773 37.432C269.245 37.432 266.973 36.872 264.957 35.752C262.973 34.6 261.405 33 260.253 30.952C259.133 28.872 258.573 26.472 258.573 23.752C258.573 21.032 259.117 18.648 260.205 16.6C261.325 14.52 262.877 12.92 264.861 11.8C266.877 10.68 269.181 10.12 271.773 10.12C274.269 10.12 276.493 10.664 278.445 11.752C280.397 12.84 281.917 14.376 283.005 16.36C284.093 18.312 284.637 20.568 284.637 23.128ZM278.925 21.4C278.893 19.384 278.173 17.768 276.765 16.552C275.357 15.336 273.613 14.728 271.533 14.728C269.645 14.728 268.029 15.336 266.685 16.552C265.341 17.736 264.541 19.352 264.285 21.4H278.925ZM288.198 23.752C288.198 21.032 288.742 18.648 289.83 16.6C290.95 14.52 292.486 12.92 294.438 11.8C296.39 10.68 298.63 10.12 301.158 10.12C304.358 10.12 306.998 10.888 309.078 12.424C311.19 13.928 312.614 16.088 313.35 18.904H307.446C306.966 17.592 306.198 16.568 305.142 15.832C304.086 15.096 302.758 14.728 301.158 14.728C298.918 14.728 297.126 15.528 295.782 17.128C294.47 18.696 293.814 20.904 293.814 23.752C293.814 26.6 294.47 28.824 295.782 30.424C297.126 32.024 298.918 32.824 301.158 32.824C304.326 32.824 306.422 31.432 307.446 28.648H313.35C312.582 31.336 311.142 33.48 309.03 35.08C306.918 36.648 304.294 37.432 301.158 37.432C298.63 37.432 296.39 36.872 294.438 35.752C292.486 34.6 290.95 33 289.83 30.952C288.742 28.872 288.198 26.472 288.198 23.752ZM332.483 10.12C334.499 10.12 336.291 10.552 337.859 11.416C339.459 12.28 340.707 13.56 341.603 15.256C342.531 16.952 342.995 19 342.995 21.4V37H337.571V22.216C337.571 19.848 336.979 18.04 335.795 16.792C334.611 15.512 332.995 14.872 330.947 14.872C328.899 14.872 327.267 15.512 326.051 16.792C324.867 18.04 324.275 19.848 324.275 22.216V37H318.803V1.48H324.275V13.624C325.203 12.504 326.371 11.64 327.779 11.032C329.219 10.424 330.787 10.12 332.483 10.12ZM367.916 3.64V37H362.444V3.64H367.916ZM388.444 10.12C390.524 10.12 392.38 10.552 394.012 11.416C395.676 12.28 396.972 13.56 397.9 15.256C398.828 16.952 399.292 19 399.292 21.4V37H393.868V22.216C393.868 19.848 393.276 18.04 392.092 16.792C390.908 15.512 389.292 14.872 387.244 14.872C385.196 14.872 383.564 15.512 382.348 16.792C381.164 18.04 380.572 19.848 380.572 22.216V37H375.1V10.552H380.572V13.576C381.468 12.488 382.604 11.64 383.98 11.032C385.388 10.424 386.876 10.12 388.444 10.12ZM415.872 37.432C413.792 37.432 411.92 37.064 410.256 36.328C408.624 35.56 407.328 34.536 406.368 33.256C405.408 31.944 404.896 30.488 404.832 28.888H410.496C410.592 30.008 411.12 30.952 412.08 31.72C413.072 32.456 414.304 32.824 415.776 32.824C417.312 32.824 418.496 32.536 419.328 31.96C420.192 31.352 420.624 30.584 420.624 29.656C420.624 28.664 420.144 27.928 419.184 27.448C418.256 26.968 416.768 26.44 414.72 25.864C412.736 25.32 411.12 24.792 409.872 24.28C408.624 23.768 407.536 22.984 406.608 21.928C405.712 20.872 405.264 19.48 405.264 17.752C405.264 16.344 405.68 15.064 406.512 13.912C407.344 12.728 408.528 11.8 410.064 11.128C411.632 10.456 413.424 10.12 415.44 10.12C418.448 10.12 420.864 10.888 422.688 12.424C424.544 13.928 425.536 15.992 425.664 18.616H420.192C420.096 17.432 419.616 16.488 418.752 15.784C417.888 15.08 416.72 14.728 415.248 14.728C413.808 14.728 412.704 15 411.936 15.544C411.168 16.088 410.784 16.808 410.784 17.704C410.784 18.408 411.04 19 411.552 19.48C412.064 19.96 412.688 20.344 413.424 20.632C414.16 20.888 415.248 21.224 416.688 21.64C418.608 22.152 420.176 22.68 421.392 23.224C422.64 23.736 423.712 24.504 424.608 25.528C425.504 26.552 425.968 27.912 426 29.608C426 31.112 425.584 32.456 424.752 33.64C423.92 34.824 422.736 35.752 421.2 36.424C419.696 37.096 417.92 37.432 415.872 37.432ZM434.697 7.048C433.705 7.048 432.873 6.712 432.201 6.04C431.529 5.368 431.193 4.536 431.193 3.544C431.193 2.552 431.529 1.72 432.201 1.048C432.873 0.375998 433.705 0.0399981 434.697 0.0399981C435.657 0.0399981 436.473 0.375998 437.145 1.048C437.817 1.72 438.153 2.552 438.153 3.544C438.153 4.536 437.817 5.368 437.145 6.04C436.473 6.712 435.657 7.048 434.697 7.048ZM437.385 10.552V37H431.913V10.552H437.385ZM455.225 10.12C457.273 10.12 459.081 10.536 460.649 11.368C462.249 12.168 463.497 13.176 464.393 14.392V10.552H469.913V37.432C469.913 39.864 469.401 42.024 468.377 43.912C467.353 45.832 465.865 47.336 463.913 48.424C461.993 49.512 459.689 50.056 457.001 50.056C453.417 50.056 450.441 49.208 448.073 47.512C445.705 45.848 444.361 43.576 444.041 40.696H449.465C449.881 42.072 450.761 43.176 452.105 44.008C453.481 44.872 455.113 45.304 457.001 45.304C459.209 45.304 460.985 44.632 462.329 43.288C463.705 41.944 464.393 39.992 464.393 37.432V33.016C463.465 34.264 462.201 35.32 460.601 36.184C459.033 37.016 457.241 37.432 455.225 37.432C452.921 37.432 450.809 36.856 448.889 35.704C447.001 34.52 445.497 32.888 444.377 30.808C443.289 28.696 442.745 26.312 442.745 23.656C442.745 21 443.289 18.648 444.377 16.6C445.497 14.552 447.001 12.968 448.889 11.848C450.809 10.696 452.921 10.12 455.225 10.12ZM464.393 23.752C464.393 21.928 464.009 20.344 463.241 19C462.505 17.656 461.529 16.632 460.313 15.928C459.097 15.224 457.785 14.872 456.377 14.872C454.969 14.872 453.657 15.224 452.441 15.928C451.225 16.6 450.233 17.608 449.465 18.952C448.729 20.264 448.361 21.832 448.361 23.656C448.361 25.48 448.729 27.08 449.465 28.456C450.233 29.832 451.225 30.888 452.441 31.624C453.689 32.328 455.001 32.68 456.377 32.68C457.785 32.68 459.097 32.328 460.313 31.624C461.529 30.92 462.505 29.896 463.241 28.552C464.009 27.176 464.393 25.576 464.393 23.752ZM490.78 10.12C492.796 10.12 494.588 10.552 496.156 11.416C497.756 12.28 499.004 13.56 499.9 15.256C500.828 16.952 501.292 19 501.292 21.4V37H495.868V22.216C495.868 19.848 495.276 18.04 494.092 16.792C492.908 15.512 491.292 14.872 489.244 14.872C487.196 14.872 485.564 15.512 484.348 16.792C483.164 18.04 482.572 19.848 482.572 22.216V37H477.1V1.48H482.572V13.624C483.5 12.504 484.668 11.64 486.076 11.032C487.516 10.424 489.084 10.12 490.78 10.12ZM514.656 15.016V29.656C514.656 30.648 514.88 31.368 515.328 31.816C515.808 32.232 516.608 32.44 517.728 32.44H521.088V37H516.768C514.304 37 512.416 36.424 511.104 35.272C509.792 34.12 509.136 32.248 509.136 29.656V15.016H506.016V10.552H509.136V3.976H514.656V10.552H521.088V15.016H514.656ZM535.731 37.432C533.651 37.432 531.779 37.064 530.115 36.328C528.483 35.56 527.187 34.536 526.227 33.256C525.267 31.944 524.755 30.488 524.691 28.888H530.355C530.451 30.008 530.979 30.952 531.939 31.72C532.931 32.456 534.163 32.824 535.635 32.824C537.171 32.824 538.355 32.536 539.187 31.96C540.051 31.352 540.483 30.584 540.483 29.656C540.483 28.664 540.003 27.928 539.043 27.448C538.115 26.968 536.627 26.44 534.579 25.864C532.595 25.32 530.979 24.792 529.731 24.28C528.483 23.768 527.395 22.984 526.467 21.928C525.571 20.872 525.123 19.48 525.123 17.752C525.123 16.344 525.539 15.064 526.371 13.912C527.203 12.728 528.387 11.8 529.923 11.128C531.491 10.456 533.283 10.12 535.299 10.12C538.307 10.12 540.723 10.888 542.547 12.424C544.403 13.928 545.395 15.992 545.523 18.616H540.051C539.955 17.432 539.475 16.488 538.611 15.784C537.747 15.08 536.579 14.728 535.107 14.728C533.667 14.728 532.563 15 531.795 15.544C531.027 16.088 530.643 16.808 530.643 17.704C530.643 18.408 530.899 19 531.411 19.48C531.923 19.96 532.547 20.344 533.283 20.632C534.019 20.888 535.107 21.224 536.547 21.64C538.467 22.152 540.035 22.68 541.251 23.224C542.499 23.736 543.571 24.504 544.467 25.528C545.363 26.552 545.827 27.912 545.859 29.608C545.859 31.112 545.443 32.456 544.611 33.64C543.779 34.824 542.595 35.752 541.059 36.424C539.555 37.096 537.779 37.432 535.731 37.432Z"/>
</mask>
<path d="M6.544 36.184L6.13635 37.0971L6.14319 37.1002L6.15008 37.1031L6.544 36.184ZM2.32 32.824L3.13496 32.2445L2.32 32.824ZM0.784 27.784V26.784H-0.216V27.784H0.784ZM6.64 27.784L7.63607 27.6955L7.55505 26.784H6.64V27.784ZM8.32 31.336L7.63684 32.0663L7.64262 32.0717L7.64848 32.077L8.32 31.336ZM17.008 31.384L17.655 32.1465L17.6616 32.1409L17.6681 32.1352L17.008 31.384ZM17.584 25.096L16.8441 25.7687L16.8522 25.7777L16.8606 25.7865L17.584 25.096ZM15.136 23.464L14.7646 24.3925L14.775 24.3966L15.136 23.464ZM11.104 22.216L10.8481 23.1827L10.853 23.184L11.104 22.216ZM5.776 20.488L5.36383 21.3991L5.37677 21.405L5.38986 21.4104L5.776 20.488ZM2.32 7.672L3.15205 8.2267H3.15205L2.32 7.672ZM6.352 4.36L6.75814 5.27381H6.75814L6.352 4.36ZM20.272 5.656L19.6488 6.43806L19.6555 6.4434L19.6623 6.44862L20.272 5.656ZM23.728 12.28V13.28H24.8107L24.7249 12.2007L23.728 12.28ZM17.68 12.28L16.6831 12.3587L16.7558 13.28H17.68V12.28ZM7.936 9.064L8.56375 9.84241L8.56375 9.84241L7.936 9.064ZM7.36 15.064L6.61846 15.7349L6.63523 15.7534L6.65289 15.7711L7.36 15.064ZM13.696 17.848L13.9615 16.8839L13.956 16.8824L13.696 17.848ZM19.072 19.672L18.6678 20.5867L18.6756 20.5901L19.072 19.672ZM22.624 22.504L21.824 23.104L21.8324 23.1152L21.8412 23.1262L22.624 22.504ZM22.72 32.344L21.869 31.8189L21.8649 31.8255L21.8609 31.8322L22.72 32.344ZM18.736 35.992L19.1963 36.8798L19.2024 36.8766L18.736 35.992ZM12.592 36.336C10.4674 36.336 8.58826 35.9721 6.93792 35.2649L6.15008 37.1031C8.08374 37.9319 10.2366 38.336 12.592 38.336V36.336ZM6.95165 35.2709C5.30426 34.5354 4.04427 33.5232 3.13496 32.2445L1.50504 33.4035C2.64373 35.0048 4.19974 36.2326 6.13635 37.0971L6.95165 35.2709ZM3.13496 32.2445C2.24185 30.9885 1.784 29.5152 1.784 27.784H-0.216C-0.216 29.8928 0.350149 31.7795 1.50504 33.4035L3.13496 32.2445ZM0.784 28.784H6.64V26.784H0.784V28.784ZM5.64393 27.8725C5.79219 29.5405 6.45292 30.9587 7.63684 32.0663L9.00316 30.6057C8.20308 29.8573 7.74381 28.9075 7.63607 27.6955L5.64393 27.8725ZM7.64848 32.077C8.90878 33.2191 10.6009 33.728 12.592 33.728V31.728C10.9351 31.728 9.77922 31.3089 8.99152 30.595L7.64848 32.077ZM12.592 33.728C14.6308 33.728 16.3619 33.2436 17.655 32.1465L16.361 30.6215C15.5421 31.3164 14.3292 31.728 12.592 31.728V33.728ZM17.6681 32.1352C18.9461 31.0121 19.592 29.5516 19.592 27.832H17.592C17.592 28.9924 17.1819 29.8999 16.3479 30.6328L17.6681 32.1352ZM19.592 27.832C19.592 26.4966 19.1838 25.3237 18.3074 24.4055L16.8606 25.7865C17.3282 26.2763 17.592 26.9274 17.592 27.832H19.592ZM18.3239 24.4233C17.5677 23.5915 16.6165 22.9648 15.497 22.5314L14.775 24.3966C15.6395 24.7312 16.3203 25.1925 16.8441 25.7687L18.3239 24.4233ZM15.5074 22.5355C14.4899 22.1285 13.0991 21.7002 11.355 21.248L10.853 23.184C12.5649 23.6278 13.8621 24.0315 14.7646 24.3925L15.5074 22.5355ZM11.3599 21.2493C9.20837 20.6798 7.4803 20.1173 6.16214 19.5656L5.38986 21.4104C6.8237 22.0107 8.64763 22.6002 10.8481 23.1827L11.3599 21.2493ZM6.18817 19.5769C5.00386 19.0411 3.97942 18.2211 3.11262 17.0943L1.52738 18.3137C2.58058 19.6829 3.86014 20.7189 5.36383 21.3991L6.18817 19.5769ZM3.11262 17.0943C2.32466 16.0699 1.88 14.6422 1.88 12.712H-0.12C-0.12 14.9418 0.395345 16.8421 1.52738 18.3137L3.11262 17.0943ZM1.88 12.712C1.88 10.967 2.31338 9.4847 3.15205 8.2267L1.48795 7.1173C0.40662 8.73929 -0.12 10.617 -0.12 12.712H1.88ZM3.15205 8.2267C3.9973 6.95883 5.18661 5.97227 6.75814 5.27381L5.94586 3.44619C4.06139 4.28373 2.5627 5.50517 1.48795 7.1173L3.15205 8.2267ZM6.75814 5.27381C8.3352 4.57289 10.1922 4.208 12.352 4.208V2.208C9.96776 2.208 7.8248 2.6111 5.94586 3.44619L6.75814 5.27381ZM12.352 4.208C15.412 4.208 17.8162 4.97772 19.6488 6.43806L20.8952 4.87394C18.6318 3.07028 15.756 2.208 12.352 2.208V4.208ZM19.6623 6.44862C21.4997 7.86198 22.5276 9.80088 22.7311 12.3593L24.7249 12.2007C24.4804 9.12711 23.2043 6.65001 20.8817 4.86337L19.6623 6.44862ZM23.728 11.28H17.68V13.28H23.728V11.28ZM18.6769 12.2013C18.5568 10.6802 17.8246 9.40006 16.5852 8.38604L15.3188 9.93395C16.1914 10.6479 16.6112 11.4478 16.6831 12.3587L18.6769 12.2013ZM16.5852 8.38604C15.3073 7.34048 13.672 6.864 11.776 6.864V8.864C13.336 8.864 14.4847 9.25152 15.3188 9.93395L16.5852 8.38604ZM11.776 6.864C10.0338 6.864 8.51608 7.31152 7.30825 8.28559L8.56375 9.84241C9.33992 9.21647 10.3822 8.864 11.776 8.864V6.864ZM7.30825 8.28559C6.03729 9.31055 5.448 10.7744 5.448 12.52H7.448C7.448 11.2576 7.85071 10.4174 8.56375 9.84241L7.30825 8.28559ZM5.448 12.52C5.448 13.7573 5.82227 14.8549 6.61846 15.7349L8.10154 14.3931C7.68173 13.9291 7.448 13.3307 7.448 12.52H5.448ZM6.65289 15.7711C7.40135 16.5196 8.32068 17.1013 9.38861 17.5285L10.1314 15.6715C9.27932 15.3307 8.59866 14.8884 8.06711 14.3569L6.65289 15.7711ZM9.38861 17.5285C10.4009 17.9334 11.7555 18.3612 13.436 18.8136L13.956 16.8824C12.3085 16.4388 11.0391 16.0346 10.1314 15.6715L9.38861 17.5285ZM13.4305 18.8121C15.6129 19.4131 17.3535 20.006 18.6678 20.5867L19.4762 18.7573C18.0385 18.122 16.1951 17.4989 13.9615 16.8839L13.4305 18.8121ZM18.6756 20.5901C19.9166 21.126 20.9638 21.9571 21.824 23.104L23.424 21.904C22.3642 20.4909 21.0434 19.434 19.4684 18.7539L18.6756 20.5901ZM21.8412 23.1262C22.6527 24.1472 23.112 25.5844 23.112 27.544H25.112C25.112 25.2796 24.5793 23.3568 23.4068 21.8818L21.8412 23.1262ZM23.112 27.544C23.112 29.0465 22.7039 30.4658 21.869 31.8189L23.571 32.8691C24.5921 31.2142 25.112 29.4335 25.112 27.544H23.112ZM21.8609 31.8322C21.0714 33.1575 19.8896 34.2532 18.2696 35.1074L19.2024 36.8766C21.1024 35.8748 22.5766 34.5385 23.5791 32.8558L21.8609 31.8322ZM18.2757 35.1042C16.7175 35.9122 14.8341 36.336 12.592 36.336V38.336C15.0859 38.336 17.2985 37.8638 19.1963 36.8798L18.2757 35.1042ZM36.9528 15.016V14.016H35.9528V15.016H36.9528ZM37.6248 31.816L36.9176 32.5231L36.9429 32.5483L36.9698 32.5717L37.6248 31.816ZM43.3848 32.44H44.3848V31.44H43.3848V32.44ZM43.3848 37V38H44.3848V37H43.3848ZM33.4007 35.272L32.7409 36.0234L33.4007 35.272ZM31.4328 15.016H32.4328V14.016H31.4328V15.016ZM28.3127 15.016H27.3127V16.016H28.3127V15.016ZM28.3127 10.552V9.552H27.3127V10.552H28.3127ZM31.4328 10.552V11.552H32.4328V10.552H31.4328ZM31.4328 3.976V2.976H30.4328V3.976H31.4328ZM36.9528 3.976H37.9528V2.976H36.9528V3.976ZM36.9528 10.552H35.9528V11.552H36.9528V10.552ZM43.3848 10.552H44.3848V9.552H43.3848V10.552ZM43.3848 15.016V16.016H44.3848V15.016H43.3848ZM35.9528 15.016V29.656H37.9528V15.016H35.9528ZM35.9528 29.656C35.9528 30.7675 36.1995 31.805 36.9176 32.5231L38.3319 31.1089C38.154 30.931 37.9528 30.5285 37.9528 29.656H35.9528ZM36.9698 32.5717C37.7267 33.2276 38.8301 33.44 40.0247 33.44V31.44C38.9794 31.44 38.4828 31.2364 38.2797 31.0603L36.9698 32.5717ZM40.0247 33.44H43.3848V31.44H40.0247V33.44ZM42.3848 32.44V37H44.3848V32.44H42.3848ZM43.3848 36H39.0648V38H43.3848V36ZM39.0648 36C36.7444 36 35.1273 35.4572 34.0606 34.5206L32.7409 36.0234C34.2982 37.3908 36.4571 38 39.0648 38V36ZM34.0606 34.5206C33.0521 33.6351 32.4328 32.1015 32.4328 29.656H30.4328C30.4328 32.3945 31.1254 34.6049 32.7409 36.0234L34.0606 34.5206ZM32.4328 29.656V15.016H30.4328V29.656H32.4328ZM31.4328 14.016H28.3127V16.016H31.4328V14.016ZM29.3127 15.016V10.552H27.3127V15.016H29.3127ZM28.3127 11.552H31.4328V9.552H28.3127V11.552ZM32.4328 10.552V3.976H30.4328V10.552H32.4328ZM31.4328 4.976H36.9528V2.976H31.4328V4.976ZM35.9528 3.976V10.552H37.9528V3.976H35.9528ZM36.9528 11.552H43.3848V9.552H36.9528V11.552ZM42.3848 10.552V15.016H44.3848V10.552H42.3848ZM43.3848 14.016H36.9528V16.016H43.3848V14.016ZM53.9001 14.392H52.9001V18.0271L54.7594 14.9035L53.9001 14.392ZM57.0681 11.272L57.5574 12.1442L57.5643 12.1402L57.0681 11.272ZM61.8201 10.12H62.8201V9.12H61.8201V10.12ZM61.8201 15.784V16.784H62.8201V15.784H61.8201ZM55.5321 17.416L54.8353 16.6987L54.8301 16.7038L54.825 16.7089L55.5321 17.416ZM53.9001 37V38H54.9001V37H53.9001ZM48.4281 37H47.4281V38H48.4281V37ZM48.4281 10.552V9.552H47.4281V10.552H48.4281ZM53.9001 10.552H54.9001V9.552H53.9001V10.552ZM54.7594 14.9035C55.4735 13.7038 56.4044 12.7909 57.5574 12.1441L56.5789 10.3999C55.1079 11.2251 53.9267 12.3922 53.0408 13.8805L54.7594 14.9035ZM57.5643 12.1402C58.7322 11.4729 60.1389 11.12 61.8201 11.12V9.12C59.8533 9.12 58.0921 9.53515 56.572 10.4038L57.5643 12.1402ZM60.8201 10.12V15.784H62.8201V10.12H60.8201ZM61.8201 14.784H60.4281V16.784H61.8201V14.784ZM60.4281 14.784C58.1227 14.784 56.2025 15.3706 54.8353 16.6987L56.2289 18.1333C57.1017 17.2854 58.4455 16.784 60.4281 16.784V14.784ZM54.825 16.7089C53.4507 18.0832 52.9001 20.3102 52.9001 23.08H54.9001C54.9001 20.4738 55.4375 18.9248 56.2392 18.1231L54.825 16.7089ZM52.9001 23.08V37H54.9001V23.08H52.9001ZM53.9001 36H48.4281V38H53.9001V36ZM49.4281 37V10.552H47.4281V37H49.4281ZM48.4281 11.552H53.9001V9.552H48.4281V11.552ZM52.9001 10.552V14.392H54.9001V10.552H52.9001ZM66.658 16.6L65.7806 16.1202L65.7749 16.1308L66.658 16.6ZM71.17 11.848L71.6802 12.7081L71.6845 12.7055L71.17 11.848ZM82.93 11.368L82.4537 12.2473L82.4646 12.2532L82.4755 12.2588L82.93 11.368ZM86.674 14.392L85.8791 14.9987L87.674 17.3507V14.392H86.674ZM86.674 10.552V9.552H85.674V10.552H86.674ZM92.194 10.552H93.194V9.552H92.194V10.552ZM92.194 37V38H93.194V37H92.194ZM86.674 37H85.674V38H86.674V37ZM86.674 33.064H87.674V30.0433L85.8715 32.4673L86.674 33.064ZM82.882 36.184L82.4206 35.2968L82.882 36.184ZM71.17 35.704L70.6387 36.5513L70.6491 36.5576L71.17 35.704ZM66.658 30.808L65.769 31.266L65.7732 31.2741L65.7775 31.2821L66.658 30.808ZM85.522 19L84.6449 19.4803L84.6493 19.4883L84.6538 19.4961L85.522 19ZM82.594 15.928L82.093 16.7934L82.594 15.928ZM74.722 15.928L75.2057 16.8032L75.2144 16.7984L75.223 16.7934L74.722 15.928ZM71.746 18.952L70.8777 18.4558L70.8739 18.4627L71.746 18.952ZM71.746 28.456L70.8642 28.9277L70.8684 28.9355L70.8728 28.9434L71.746 28.456ZM74.722 31.624L74.2042 32.4795L74.2173 32.4874L74.2307 32.495L74.722 31.624ZM82.594 31.624L83.095 32.4894L82.594 31.624ZM85.522 28.552L84.6488 28.0646L84.6449 28.0717L85.522 28.552ZM66.026 23.656C66.026 21.1396 66.5404 18.9529 67.5411 17.0692L65.7749 16.1308C64.5996 18.3431 64.026 20.8604 64.026 23.656H66.026ZM67.5354 17.0798C68.575 15.1788 69.9563 13.7307 71.6802 12.7081L70.6598 10.9879C68.6077 12.2053 66.981 13.9252 65.7806 16.1202L67.5354 17.0798ZM71.6845 12.7055C73.4444 11.6495 75.3777 11.12 77.506 11.12V9.12C75.0263 9.12 72.7356 9.74246 70.6555 10.9905L71.6845 12.7055ZM77.506 11.12C79.4513 11.12 81.0895 11.5083 82.4537 12.2473L83.4063 10.4887C81.6985 9.56367 79.7207 9.12 77.506 9.12V11.12ZM82.4755 12.2588C83.9303 13.001 85.0546 13.9184 85.8791 14.9987L87.469 13.7853C86.4374 12.4336 85.0657 11.335 83.3845 10.4772L82.4755 12.2588ZM87.674 14.392V10.552H85.674V14.392H87.674ZM86.674 11.552H92.194V9.552H86.674V11.552ZM91.194 10.552V37H93.194V10.552H91.194ZM92.194 36H86.674V38H92.194V36ZM87.674 37V33.064H85.674V37H87.674ZM85.8715 32.4673C85.0472 33.5759 83.9078 34.5235 82.4206 35.2968L83.3434 37.0712C85.0562 36.1805 86.4448 35.048 87.4765 33.6607L85.8715 32.4673ZM82.4206 35.2968C80.9814 36.0452 79.3194 36.432 77.41 36.432V38.432C79.5966 38.432 81.5826 37.9868 83.3434 37.0712L82.4206 35.2968ZM77.41 36.432C75.3165 36.432 73.4175 35.9039 71.6909 34.8504L70.6491 36.5576C72.6984 37.8081 74.9595 38.432 77.41 38.432V36.432ZM71.7013 34.8568C69.9689 33.7704 68.5815 32.2709 67.5385 30.3339L65.7775 31.2821C66.9745 33.5051 68.5951 35.2696 70.6387 36.5512L71.7013 34.8568ZM67.547 30.35C66.5402 28.3957 66.026 26.1717 66.026 23.656H64.026C64.026 26.4523 64.5998 28.9963 65.769 31.266L67.547 30.35ZM87.674 23.752C87.674 21.7852 87.2589 20.0239 86.3902 18.5039L84.6538 19.4961C85.3212 20.6641 85.674 22.0708 85.674 23.752H87.674ZM86.3991 18.5197C85.5835 17.0304 84.4834 15.8664 83.095 15.0626L82.093 16.7934C83.1366 17.3976 83.9885 18.2816 84.6449 19.4803L86.3991 18.5197ZM83.095 15.0626C81.7264 14.2702 80.2416 13.872 78.658 13.872V15.872C79.8904 15.872 81.0296 16.1778 82.093 16.7934L83.095 15.0626ZM78.658 13.872C77.0744 13.872 75.5896 14.2702 74.221 15.0626L75.223 16.7934C76.2864 16.1778 77.4256 15.872 78.658 15.872V13.872ZM74.2383 15.0528C72.8439 15.8233 71.7261 16.9713 70.8778 18.4559L72.6142 19.4481C73.3019 18.2447 74.1681 17.3767 75.2057 16.8032L74.2383 15.0528ZM70.8739 18.4627C70.0379 19.9529 69.642 21.6969 69.642 23.656H71.642C71.642 21.9671 71.9821 20.5751 72.6181 19.4412L70.8739 18.4627ZM69.642 23.656C69.642 25.6167 70.0384 27.3838 70.8642 28.9277L72.6278 27.9843C71.9816 26.7762 71.642 25.3433 71.642 23.656H69.642ZM70.8728 28.9434C71.7159 30.454 72.8241 31.6442 74.2042 32.4795L75.2398 30.7685C74.1879 30.1318 73.3121 29.21 72.6192 27.9686L70.8728 28.9434ZM74.2307 32.495C75.6222 33.2799 77.1026 33.68 78.658 33.68V31.68C77.4614 31.68 76.3178 31.3761 75.2133 30.753L74.2307 32.495ZM78.658 33.68C80.2416 33.68 81.7264 33.2818 83.095 32.4894L82.093 30.7586C81.0296 31.3742 79.8904 31.68 78.658 31.68V33.68ZM83.095 32.4894C84.4834 31.6856 85.5835 30.5216 86.3991 29.0323L84.6449 28.0717C83.9885 29.2704 83.1366 30.1544 82.093 30.7586L83.095 32.4894ZM86.3952 29.0394C87.2586 27.4924 87.674 25.7195 87.674 23.752H85.674C85.674 25.4325 85.3214 26.8596 84.6488 28.0646L86.3952 29.0394ZM105.765 15.016V14.016H104.765V15.016H105.765ZM106.437 31.816L105.73 32.5231L105.755 32.5483L105.782 32.5717L106.437 31.816ZM112.197 32.44H113.197V31.44H112.197V32.44ZM112.197 37V38H113.197V37H112.197ZM102.213 35.272L101.553 36.0234L102.213 35.272ZM100.245 15.016H101.245V14.016H100.245V15.016ZM97.1253 15.016H96.1253V16.016H97.1253V15.016ZM97.1253 10.552V9.552H96.1253V10.552H97.1253ZM100.245 10.552V11.552H101.245V10.552H100.245ZM100.245 3.976V2.976H99.2452V3.976H100.245ZM105.765 3.976H106.765V2.976H105.765V3.976ZM105.765 10.552H104.765V11.552H105.765V10.552ZM112.197 10.552H113.197V9.552H112.197V10.552ZM112.197 15.016V16.016H113.197V15.016H112.197ZM104.765 15.016V29.656H106.765V15.016H104.765ZM104.765 29.656C104.765 30.7675 105.012 31.805 105.73 32.5231L107.144 31.1089C106.966 30.931 106.765 30.5285 106.765 29.656H104.765ZM105.782 32.5717C106.539 33.2276 107.643 33.44 108.837 33.44V31.44C107.792 31.44 107.295 31.2364 107.092 31.0603L105.782 32.5717ZM108.837 33.44H112.197V31.44H108.837V33.44ZM111.197 32.44V37H113.197V32.44H111.197ZM112.197 36H107.877V38H112.197V36ZM107.877 36C105.557 36 103.94 35.4572 102.873 34.5206L101.553 36.0234C103.111 37.3908 105.27 38 107.877 38V36ZM102.873 34.5206C101.865 33.6351 101.245 32.1015 101.245 29.656H99.2452C99.2452 32.3945 99.9379 34.6049 101.553 36.0234L102.873 34.5206ZM101.245 29.656V15.016H99.2452V29.656H101.245ZM100.245 14.016H97.1253V16.016H100.245V14.016ZM98.1253 15.016V10.552H96.1253V15.016H98.1253ZM97.1253 11.552H100.245V9.552H97.1253V11.552ZM101.245 10.552V3.976H99.2452V10.552H101.245ZM100.245 4.976H105.765V2.976H100.245V4.976ZM104.765 3.976V10.552H106.765V3.976H104.765ZM105.765 11.552H112.197V9.552H105.765V11.552ZM111.197 10.552V15.016H113.197V10.552H111.197ZM112.197 14.016H105.765V16.016H112.197V14.016ZM141.289 25.816V26.816H142.141L142.276 25.974L141.289 25.816ZM121.081 25.816V24.816H120.002L120.083 25.8915L121.081 25.816ZM123.433 30.904L122.76 31.6439L123.433 30.904ZM134.857 29.128V28.128H134.235L133.96 28.6855L134.857 29.128ZM140.761 29.128L141.711 29.4405L142.142 28.128H140.761V29.128ZM136.393 35.128L136.987 35.9324L136.989 35.9309L136.393 35.128ZM121.801 35.752L121.298 36.6168L121.307 36.6216L121.315 36.6262L121.801 35.752ZM117.097 30.952L116.216 31.4261L116.221 31.4342L116.225 31.4423L117.097 30.952ZM117.049 16.6L116.168 16.1259L116.166 16.1308L117.049 16.6ZM121.705 11.8L121.219 10.9258L121.213 10.9292L121.705 11.8ZM135.289 11.752L135.775 10.8785L135.289 11.752ZM139.849 16.36L138.972 16.8408L138.975 16.8469L139.849 16.36ZM135.769 21.4V22.4H136.785L136.768 21.3841L135.769 21.4ZM133.609 16.552L134.262 15.7952H134.262L133.609 16.552ZM123.529 16.552L124.19 17.3024L124.2 17.2935L123.529 16.552ZM121.129 21.4L120.136 21.276L119.996 22.4H121.129V21.4ZM140.481 23.128C140.481 24.0784 140.419 24.9203 140.301 25.658L142.276 25.974C142.414 25.1117 142.481 24.1616 142.481 23.128H140.481ZM141.289 24.816H121.081V26.816H141.289V24.816ZM120.083 25.8915C120.26 28.227 121.141 30.1721 122.76 31.6439L124.105 30.1641C122.908 29.0759 122.221 27.629 122.078 25.7405L120.083 25.8915ZM122.76 31.6439C124.367 33.1047 126.341 33.824 128.617 33.824V31.824C126.797 31.824 125.314 31.2633 124.105 30.1641L122.76 31.6439ZM128.617 33.824C130.229 33.824 131.67 33.4858 132.894 32.7604C134.123 32.0326 135.072 30.952 135.753 29.5705L133.96 28.6855C133.426 29.768 132.726 30.5354 131.875 31.0396C131.02 31.5462 129.948 31.824 128.617 31.824V33.824ZM134.857 30.128H140.761V28.128H134.857V30.128ZM139.811 28.8155C139.077 31.0458 137.748 32.8765 135.797 34.3251L136.989 35.9309C139.262 34.2435 140.844 32.0742 141.711 29.4405L139.811 28.8155ZM135.799 34.3236C133.923 35.7087 131.551 36.432 128.617 36.432V38.432C131.89 38.432 134.702 37.6193 136.987 35.9324L135.799 34.3236ZM128.617 36.432C126.242 36.432 124.14 35.9075 122.286 34.8778L121.315 36.6262C123.494 37.8365 125.935 38.432 128.617 38.432V36.432ZM122.303 34.8872C120.477 33.8271 119.035 32.3581 117.968 30.4617L116.225 31.4423C117.462 33.6419 119.156 35.3729 121.298 36.6168L122.303 34.8872ZM117.977 30.4779C116.947 28.5643 116.417 26.3318 116.417 23.752H114.417C114.417 26.6122 115.007 29.1797 116.216 31.4261L117.977 30.4779ZM116.417 23.752C116.417 21.1673 116.933 18.9496 117.932 17.0692L116.166 16.1308C114.988 18.3464 114.417 20.8967 114.417 23.752H116.417ZM117.929 17.0741C118.963 15.154 120.383 13.6944 122.196 12.6708L121.213 10.9292C119.058 12.1456 117.374 13.886 116.168 16.1259L117.929 17.0741ZM122.19 12.6742C124.04 11.6465 126.173 11.12 128.617 11.12V9.12C125.876 9.12 123.401 9.71349 121.219 10.9258L122.19 12.6742ZM128.617 11.12C130.963 11.12 133.015 11.6298 134.802 12.6255L135.775 10.8785C133.658 9.69819 131.263 9.12 128.617 9.12V11.12ZM134.802 12.6255C136.587 13.6207 137.973 15.0196 138.972 16.8408L140.725 15.8792C139.548 13.7324 137.894 12.0593 135.775 10.8785L134.802 12.6255ZM138.975 16.8469C139.969 18.6295 140.481 20.7133 140.481 23.128H142.481C142.481 20.4227 141.904 17.9945 140.722 15.8731L138.975 16.8469ZM136.768 21.3841C136.732 19.1099 135.906 17.2144 134.262 15.7952L132.955 17.3088C134.128 18.3216 134.741 19.6581 134.769 21.4159L136.768 21.3841ZM134.262 15.7952C132.651 14.4036 130.666 13.728 128.377 13.728V15.728C130.247 15.728 131.75 16.2684 132.955 17.3088L134.262 15.7952ZM128.377 13.728C126.252 13.728 124.394 14.4207 122.858 15.8105L124.2 17.2935C125.351 16.2513 126.725 15.728 128.377 15.728V13.728ZM122.868 15.8016C121.313 17.1714 120.418 19.025 120.136 21.276L122.121 21.524C122.352 19.679 123.056 18.3006 124.19 17.3024L122.868 15.8016ZM121.129 22.4H135.769V20.4H121.129V22.4ZM162.946 11.368L162.477 12.2513L162.488 12.257L162.498 12.2624L162.946 11.368ZM166.69 14.392L165.885 14.9852L167.69 17.4349V14.392H166.69ZM166.69 10.552V9.552H165.69V10.552H166.69ZM172.21 10.552H173.21V9.552H172.21V10.552ZM170.674 43.912L169.795 43.4352L169.791 43.4414L170.674 43.912ZM166.21 48.424L165.723 47.5505L165.717 47.554L166.21 48.424ZM150.37 47.512L150.952 46.699L150.945 46.6938L150.37 47.512ZM146.338 40.696V39.696H145.22L145.344 40.8064L146.338 40.696ZM151.762 40.696L152.719 40.4066L152.504 39.696H151.762V40.696ZM154.402 44.008L154.933 43.1611L154.928 43.1577L154.402 44.008ZM164.626 43.288L163.927 42.5726L163.919 42.5809L164.626 43.288ZM166.69 33.016H167.69V29.9953L165.887 32.4193L166.69 33.016ZM162.898 36.184L163.366 37.0674L163.373 37.0639L162.898 36.184ZM151.186 35.704L150.654 36.5512L150.663 36.5564L150.671 36.5615L151.186 35.704ZM146.674 30.808L145.785 31.266L145.789 31.2741L145.793 31.2821L146.674 30.808ZM146.674 16.6L145.796 16.1202L145.791 16.1308L146.674 16.6ZM151.186 11.848L151.696 12.7081L151.7 12.7055L151.186 11.848ZM165.538 19L164.661 19.4803L164.665 19.4883L164.669 19.4961L165.538 19ZM162.61 15.928L162.109 16.7934L162.61 15.928ZM154.738 15.928L155.221 16.8032L155.23 16.7984L155.239 16.7934L154.738 15.928ZM151.762 18.952L150.893 18.4558L150.889 18.4627L151.762 18.952ZM151.762 28.456L150.88 28.9277L150.884 28.9355L150.888 28.9434L151.762 28.456ZM154.738 31.624L154.22 32.4795L154.233 32.4874L154.246 32.495L154.738 31.624ZM162.61 31.624L163.111 32.4894L162.61 31.624ZM165.538 28.552L164.664 28.0646L164.661 28.0717L165.538 28.552ZM157.522 11.12C159.431 11.12 161.074 11.507 162.477 12.2513L163.414 10.4846C161.681 9.56502 159.708 9.12 157.522 9.12V11.12ZM162.498 12.2624C163.983 13.0047 165.098 13.9179 165.885 14.9852L167.495 13.7988C166.489 12.4341 165.108 11.3313 163.393 10.4736L162.498 12.2624ZM167.69 14.392V10.552H165.69V14.392H167.69ZM166.69 11.552H172.21V9.552H166.69V11.552ZM171.21 10.552V37.432H173.21V10.552H171.21ZM171.21 37.432C171.21 39.7198 170.729 41.7121 169.795 43.4352L171.553 44.3888C172.666 42.3359 173.21 40.0082 173.21 37.432H171.21ZM169.791 43.4414C168.86 45.1871 167.512 46.5534 165.723 47.5505L166.696 49.2975C168.811 48.1186 170.439 46.4769 171.556 44.3826L169.791 43.4414ZM165.717 47.554C163.977 48.54 161.85 49.056 159.298 49.056V51.056C162.121 51.056 164.603 50.484 166.703 49.294L165.717 47.554ZM159.298 49.056C155.874 49.056 153.114 48.2477 150.952 46.699L149.787 48.325C152.361 50.1683 155.554 51.056 159.298 51.056V49.056ZM150.945 46.6938C148.812 45.195 147.62 43.1809 147.332 40.5856L145.344 40.8064C145.695 43.9711 147.192 46.501 149.795 48.3302L150.945 46.6938ZM146.338 41.696H151.762V39.696H146.338V41.696ZM150.804 40.9854C151.298 42.6185 152.346 43.9118 153.875 44.8583L154.928 43.1577C153.769 42.4402 153.057 41.5255 152.719 40.4066L150.804 40.9854ZM153.87 44.8549C155.43 45.8343 157.253 46.304 159.298 46.304V44.304C157.567 44.304 156.126 43.9097 154.933 43.1611L153.87 44.8549ZM159.298 46.304C161.724 46.304 163.771 45.5571 165.333 43.9951L163.919 42.5809C162.792 43.7069 161.287 44.304 159.298 44.304V46.304ZM165.324 44.0034C166.95 42.4152 167.69 40.1688 167.69 37.432H165.69C165.69 39.8152 165.053 41.4728 163.927 42.5726L165.324 44.0034ZM167.69 37.432V33.016H165.69V37.432H167.69ZM165.887 32.4193C165.06 33.5319 163.916 34.4978 162.422 35.3041L163.373 37.0639C165.08 36.1422 166.463 34.9961 167.492 33.6127L165.887 32.4193ZM162.429 35.3007C161.024 36.0462 159.397 36.432 157.522 36.432V38.432C159.679 38.432 161.635 37.9858 163.366 37.0673L162.429 35.3007ZM157.522 36.432C155.393 36.432 153.46 35.9025 151.7 34.8465L150.671 36.5615C152.751 37.8095 155.042 38.432 157.522 38.432V36.432ZM151.717 34.8568C149.985 33.7704 148.597 32.2709 147.554 30.3339L145.793 31.2821C146.99 33.5051 148.611 35.2696 150.654 36.5512L151.717 34.8568ZM147.563 30.35C146.556 28.3957 146.042 26.1717 146.042 23.656H144.042C144.042 26.4523 144.615 28.9963 145.785 31.266L147.563 30.35ZM146.042 23.656C146.042 21.1396 146.556 18.9529 147.557 17.0692L145.791 16.1308C144.615 18.3431 144.042 20.8604 144.042 23.656H146.042ZM147.551 17.0798C148.591 15.1788 149.972 13.7307 151.696 12.7081L150.675 10.9879C148.623 12.2053 146.997 13.9252 145.796 16.1202L147.551 17.0798ZM151.7 12.7055C153.46 11.6495 155.393 11.12 157.522 11.12V9.12C155.042 9.12 152.751 9.74246 150.671 10.9905L151.7 12.7055ZM167.69 23.752C167.69 21.7852 167.274 20.0239 166.406 18.5039L164.669 19.4961C165.337 20.6641 165.69 22.0708 165.69 23.752H167.69ZM166.415 18.5197C165.599 17.0304 164.499 15.8664 163.111 15.0626L162.109 16.7934C163.152 17.3976 164.004 18.2816 164.661 19.4803L166.415 18.5197ZM163.111 15.0626C161.742 14.2702 160.257 13.872 158.674 13.872V15.872C159.906 15.872 161.045 16.1778 162.109 16.7934L163.111 15.0626ZM158.674 13.872C157.09 13.872 155.605 14.2702 154.237 15.0626L155.239 16.7934C156.302 16.1778 157.441 15.872 158.674 15.872V13.872ZM154.254 15.0528C152.86 15.8233 151.742 16.9713 150.893 18.4559L152.63 19.4481C153.318 18.2447 154.184 17.3767 155.221 16.8032L154.254 15.0528ZM150.889 18.4627C150.054 19.9529 149.658 21.6969 149.658 23.656H151.658C151.658 21.9671 151.998 20.5751 152.634 19.4412L150.889 18.4627ZM149.658 23.656C149.658 25.6167 150.054 27.3838 150.88 28.9277L152.643 27.9843C151.997 26.7762 151.658 25.3433 151.658 23.656H149.658ZM150.888 28.9434C151.732 30.454 152.84 31.6442 154.22 32.4795L155.255 30.7685C154.203 30.1318 153.328 29.21 152.635 27.9686L150.888 28.9434ZM154.246 32.495C155.638 33.2799 157.118 33.68 158.674 33.68V31.68C157.477 31.68 156.333 31.3761 155.229 30.753L154.246 32.495ZM158.674 33.68C160.257 33.68 161.742 33.2818 163.111 32.4894L162.109 30.7586C161.045 31.3742 159.906 31.68 158.674 31.68V33.68ZM163.111 32.4894C164.499 31.6856 165.599 30.5216 166.415 29.0323L164.661 28.0717C164.004 29.2704 163.152 30.1544 162.109 30.7586L163.111 32.4894ZM166.411 29.0394C167.274 27.4924 167.69 25.7195 167.69 23.752H165.69C165.69 25.4325 165.337 26.8596 164.664 28.0646L166.411 29.0394ZM179.685 6.04L180.392 5.33289V5.33289L179.685 6.04ZM179.685 1.048L180.392 1.75511V1.75511L179.685 1.048ZM184.629 1.048L183.922 1.75511V1.75511L184.629 1.048ZM184.629 6.04L183.922 5.33289V5.33289L184.629 6.04ZM184.869 10.552H185.869V9.552H184.869V10.552ZM184.869 37V38H185.869V37H184.869ZM179.397 37H178.397V38H179.397V37ZM179.397 10.552V9.552H178.397V10.552H179.397ZM182.181 6.048C181.441 6.048 180.867 5.80839 180.392 5.33289L178.978 6.7471C179.846 7.61561 180.937 8.048 182.181 8.048V6.048ZM180.392 5.33289C179.916 4.85739 179.677 4.28374 179.677 3.544H177.677C177.677 4.78826 178.109 5.8786 178.978 6.7471L180.392 5.33289ZM179.677 3.544C179.677 2.80426 179.916 2.2306 180.392 1.75511L178.978 0.340892C178.109 1.20939 177.677 2.29974 177.677 3.544H179.677ZM180.392 1.75511C180.867 1.27961 181.441 1.04 182.181 1.04V-0.960002C180.937 -0.960002 179.846 -0.527611 178.978 0.340893L180.392 1.75511ZM182.181 1.04C182.879 1.04 183.439 1.27277 183.922 1.75511L185.336 0.340893C184.474 -0.520774 183.403 -0.960002 182.181 -0.960002V1.04ZM183.922 1.75511C184.397 2.2306 184.637 2.80426 184.637 3.544H186.637C186.637 2.29974 186.204 1.20939 185.336 0.340892L183.922 1.75511ZM184.637 3.544C184.637 4.28374 184.397 4.85739 183.922 5.33289L185.336 6.7471C186.204 5.8786 186.637 4.78826 186.637 3.544H184.637ZM183.922 5.33289C183.439 5.81523 182.879 6.048 182.181 6.048V8.048C183.403 8.048 184.474 7.60877 185.336 6.7471L183.922 5.33289ZM183.869 10.552V37H185.869V10.552H183.869ZM184.869 36H179.397V38H184.869V36ZM180.397 37V10.552H178.397V37H180.397ZM179.397 11.552H184.869V9.552H179.397V11.552ZM191.861 16.6L190.981 16.1259L190.978 16.1308L191.861 16.6ZM196.469 11.8L195.971 10.9326V10.9326L196.469 11.8ZM211.109 12.424L210.515 13.2284L210.522 13.2336L210.529 13.2386L211.109 12.424ZM215.381 18.904V19.904H216.676L216.349 18.6511L215.381 18.904ZM209.477 18.904L208.538 19.2476L208.778 19.904H209.477V18.904ZM197.813 17.128L197.047 16.4848L197.046 16.4863L197.813 17.128ZM197.813 30.424L197.04 31.0581L197.047 31.0672L197.813 30.424ZM209.477 28.648V27.648H208.779L208.539 28.3028L209.477 28.648ZM215.381 28.648L216.343 28.9227L216.707 27.648H215.381V28.648ZM211.061 35.08L211.657 35.8829L211.665 35.8771L211.061 35.08ZM196.469 35.752L195.961 36.6133L195.971 36.6194L196.469 35.752ZM191.861 30.952L190.975 31.4155L190.979 31.4237L190.984 31.4318L191.861 30.952ZM191.229 23.752C191.229 21.1673 191.745 18.9496 192.744 17.0692L190.978 16.1308C189.801 18.3464 189.229 20.8967 189.229 23.752H191.229ZM192.742 17.0741C193.778 15.1498 195.185 13.6898 196.967 12.6674L195.971 10.9326C193.849 12.1502 192.184 13.8902 190.981 16.1259L192.742 17.0741ZM196.967 12.6674C198.749 11.6446 200.814 11.12 203.189 11.12V9.12C200.508 9.12 198.093 9.71541 195.971 10.9326L196.967 12.6674ZM203.189 11.12C206.227 11.12 208.644 11.847 210.515 13.2284L211.703 11.6196C209.414 9.92896 206.551 9.12 203.189 9.12V11.12ZM210.529 13.2386C212.427 14.5898 213.729 16.5381 214.414 19.1569L216.349 18.6511C215.561 15.6379 214.016 13.2662 211.689 11.6094L210.529 13.2386ZM215.381 17.904H209.477V19.904H215.381V17.904ZM210.416 18.5604C209.872 17.0728 208.984 15.8752 207.745 15.0116L206.601 16.6524C207.474 17.2608 208.122 18.1112 208.538 19.2476L210.416 18.5604ZM207.745 15.0116C206.484 14.133 204.943 13.728 203.189 13.728V15.728C204.635 15.728 205.75 16.059 206.601 16.6524L207.745 15.0116ZM203.189 13.728C200.678 13.728 198.596 14.6407 197.047 16.4848L198.579 17.7712C199.718 16.4153 201.22 15.728 203.189 15.728V13.728ZM197.046 16.4863C195.534 18.2937 194.845 20.7608 194.845 23.752H196.845C196.845 21.0472 197.468 19.0983 198.58 17.7697L197.046 16.4863ZM194.845 23.752C194.845 26.7448 195.535 29.2223 197.04 31.0581L198.586 29.7899C197.468 28.4257 196.845 26.4552 196.845 23.752H194.845ZM197.047 31.0672C198.596 32.9113 200.678 33.824 203.189 33.824V31.824C201.22 31.824 199.718 31.1367 198.579 29.7808L197.047 31.0672ZM203.189 33.824C204.919 33.824 206.441 33.443 207.69 32.613C208.945 31.7795 209.844 30.5478 210.416 28.9932L208.539 28.3028C208.086 29.5322 207.425 30.3885 206.584 30.947C205.738 31.509 204.627 31.824 203.189 31.824V33.824ZM209.477 29.648H215.381V27.648H209.477V29.648ZM214.42 28.3733C213.708 30.8653 212.387 32.8212 210.457 34.2829L211.665 35.8771C213.96 34.1388 215.519 31.8067 216.343 28.9227L214.42 28.3733ZM210.465 34.2771C208.557 35.6939 206.153 36.432 203.189 36.432V38.432C206.497 38.432 209.342 37.6021 211.657 35.8829L210.465 34.2771ZM203.189 36.432C200.814 36.432 198.749 35.9074 196.967 34.8846L195.971 36.6194C198.093 37.8366 200.508 38.432 203.189 38.432V36.432ZM196.977 34.8908C195.185 33.8332 193.775 32.3671 192.738 30.4722L190.984 31.4318C192.187 33.6329 193.849 35.3668 195.961 36.6132L196.977 34.8908ZM192.747 30.4885C191.745 28.5727 191.229 26.3363 191.229 23.752H189.229C189.229 26.6077 189.801 29.1713 190.975 31.4155L192.747 30.4885ZM254.855 3.64H255.855V2.64H254.855V3.64ZM254.855 8.104V9.104H255.855V8.104H254.855ZM245.975 8.104V7.104H244.975V8.104H245.975ZM245.975 37V38H246.975V37H245.975ZM240.503 37H239.503V38H240.503V37ZM240.503 8.104H241.503V7.104H240.503V8.104ZM231.575 8.104H230.575V9.104H231.575V8.104ZM231.575 3.64V2.64H230.575V3.64H231.575ZM253.855 3.64V8.104H255.855V3.64H253.855ZM254.855 7.104H245.975V9.104H254.855V7.104ZM244.975 8.104V37H246.975V8.104H244.975ZM245.975 36H240.503V38H245.975V36ZM241.503 37V8.104H239.503V37H241.503ZM240.503 7.104H231.575V9.104H240.503V7.104ZM232.575 8.104V3.64H230.575V8.104H232.575ZM231.575 4.64H254.855V2.64H231.575V4.64ZM284.445 25.816V26.816H285.298L285.432 25.974L284.445 25.816ZM264.237 25.816V24.816H263.158L263.24 25.8915L264.237 25.816ZM266.589 30.904L265.916 31.6439L266.589 30.904ZM278.013 29.128V28.128H277.391L277.116 28.6855L278.013 29.128ZM283.917 29.128L284.867 29.4405L285.299 28.128H283.917V29.128ZM279.549 35.128L280.143 35.9324L280.145 35.9309L279.549 35.128ZM264.957 35.752L264.455 36.6168L264.463 36.6216L264.471 36.6262L264.957 35.752ZM260.253 30.952L259.372 31.4261L259.377 31.4342L259.381 31.4423L260.253 30.952ZM260.205 16.6L259.324 16.1259L259.322 16.1308L260.205 16.6ZM264.861 11.8L264.375 10.9258L264.369 10.9292L264.861 11.8ZM278.445 11.752L278.932 10.8785L278.445 11.752ZM283.005 16.36L282.128 16.8408L282.131 16.8469L283.005 16.36ZM278.925 21.4V22.4H279.941L279.925 21.3841L278.925 21.4ZM276.765 16.552L277.418 15.7952L276.765 16.552ZM266.685 16.552L267.346 17.3024L267.356 17.2935L266.685 16.552ZM264.285 21.4L263.293 21.276L263.152 22.4H264.285V21.4ZM283.637 23.128C283.637 24.0784 283.575 24.9203 283.457 25.658L285.432 25.974C285.57 25.1117 285.637 24.1616 285.637 23.128H283.637ZM284.445 24.816H264.237V26.816H284.445V24.816ZM263.24 25.8915C263.417 28.227 264.297 30.1721 265.916 31.6439L267.262 30.1641C266.065 29.0759 265.377 27.629 265.234 25.7405L263.24 25.8915ZM265.916 31.6439C267.523 33.1047 269.497 33.824 271.773 33.824V31.824C269.953 31.824 268.471 31.2633 267.262 30.1641L265.916 31.6439ZM271.773 33.824C273.385 33.824 274.826 33.4858 276.051 32.7604C277.279 32.0326 278.228 30.952 278.91 29.5705L277.116 28.6855C276.582 29.768 275.882 30.5354 275.031 31.0396C274.176 31.5462 273.105 31.824 271.773 31.824V33.824ZM278.013 30.128H283.917V28.128H278.013V30.128ZM282.967 28.8155C282.233 31.0458 280.904 32.8765 278.953 34.3251L280.145 35.9309C282.418 34.2435 284 32.0742 284.867 29.4405L282.967 28.8155ZM278.955 34.3236C277.079 35.7087 274.707 36.432 271.773 36.432V38.432C275.047 38.432 277.859 37.6193 280.143 35.9324L278.955 34.3236ZM271.773 36.432C269.398 36.432 267.296 35.9075 265.443 34.8778L264.471 36.6262C266.65 37.8365 269.092 38.432 271.773 38.432V36.432ZM265.459 34.8872C263.633 33.8271 262.191 32.3581 261.124 30.4617L259.381 31.4423C260.619 33.6419 262.312 35.3729 264.455 36.6168L265.459 34.8872ZM261.133 30.4779C260.103 28.5643 259.573 26.3318 259.573 23.752H257.573C257.573 26.6122 258.163 29.1797 259.372 31.4261L261.133 30.4779ZM259.573 23.752C259.573 21.1673 260.089 18.9496 261.088 17.0692L259.322 16.1308C258.145 18.3464 257.573 20.8967 257.573 23.752H259.573ZM261.085 17.0741C262.119 15.154 263.539 13.6944 265.352 12.6708L264.369 10.9292C262.215 12.1456 260.53 13.886 259.324 16.1259L261.085 17.0741ZM265.347 12.6742C267.196 11.6465 269.329 11.12 271.773 11.12V9.12C269.032 9.12 266.557 9.71349 264.375 10.9258L265.347 12.6742ZM271.773 11.12C274.119 11.12 276.172 11.6298 277.958 12.6255L278.932 10.8785C276.814 9.69819 274.419 9.12 271.773 9.12V11.12ZM277.958 12.6255C279.744 13.6207 281.129 15.0196 282.128 16.8408L283.882 15.8792C282.704 13.7324 281.05 12.0593 278.932 10.8785L277.958 12.6255ZM282.131 16.8469C283.125 18.6295 283.637 20.7133 283.637 23.128H285.637C285.637 20.4227 285.061 17.9945 283.878 15.8731L282.131 16.8469ZM279.925 21.3841C279.889 19.1099 279.062 17.2144 277.418 15.7952L276.111 17.3088C277.284 18.3216 277.897 19.6581 277.925 21.4159L279.925 21.3841ZM277.418 15.7952C275.807 14.4036 273.823 13.728 271.533 13.728V15.728C273.403 15.728 274.907 16.2684 276.111 17.3088L277.418 15.7952ZM271.533 13.728C269.408 13.728 267.55 14.4207 266.014 15.8105L267.356 17.2935C268.508 16.2513 269.881 15.728 271.533 15.728V13.728ZM266.024 15.8016C264.469 17.1714 263.574 19.025 263.293 21.276L265.277 21.524C265.508 19.679 266.213 18.3006 267.346 17.3024L266.024 15.8016ZM264.285 22.4H278.925V20.4H264.285V22.4ZM289.83 16.6L288.949 16.1259L288.947 16.1308L289.83 16.6ZM294.438 11.8L293.94 10.9326V10.9326L294.438 11.8ZM309.078 12.424L308.484 13.2284L308.491 13.2336L308.498 13.2386L309.078 12.424ZM313.35 18.904V19.904H314.645L314.317 18.6511L313.35 18.904ZM307.446 18.904L306.507 19.2476L306.747 19.904H307.446V18.904ZM295.782 17.128L295.016 16.4848L295.015 16.4863L295.782 17.128ZM295.782 30.424L295.009 31.0581L295.016 31.0672L295.782 30.424ZM307.446 28.648V27.648H306.748L306.507 28.3028L307.446 28.648ZM313.35 28.648L314.311 28.9227L314.676 27.648H313.35V28.648ZM309.03 35.08L309.626 35.8829L309.634 35.8771L309.03 35.08ZM294.438 35.752L293.93 36.6133L293.94 36.6194L294.438 35.752ZM289.83 30.952L288.944 31.4155L288.948 31.4237L288.953 31.4318L289.83 30.952ZM289.198 23.752C289.198 21.1673 289.714 18.9496 290.713 17.0692L288.947 16.1308C287.77 18.3464 287.198 20.8967 287.198 23.752H289.198ZM290.71 17.0741C291.747 15.1498 293.154 13.6898 294.936 12.6674L293.94 10.9326C291.818 12.1502 290.153 13.8902 288.949 16.1259L290.71 17.0741ZM294.936 12.6674C296.718 11.6446 298.783 11.12 301.158 11.12V9.12C298.477 9.12 296.062 9.71541 293.94 10.9326L294.936 12.6674ZM301.158 11.12C304.196 11.12 306.613 11.847 308.484 13.2284L309.672 11.6196C307.383 9.92896 304.52 9.12 301.158 9.12V11.12ZM308.498 13.2386C310.395 14.5898 311.698 16.5381 312.382 19.1569L314.317 18.6511C313.53 15.6379 311.984 13.2662 309.658 11.6094L308.498 13.2386ZM313.35 17.904H307.446V19.904H313.35V17.904ZM308.385 18.5604C307.841 17.0728 306.953 15.8752 305.714 15.0116L304.57 16.6524C305.443 17.2608 306.091 18.1112 306.507 19.2476L308.385 18.5604ZM305.714 15.0116C304.453 14.133 302.912 13.728 301.158 13.728V15.728C302.604 15.728 303.719 16.059 304.57 16.6524L305.714 15.0116ZM301.158 13.728C298.647 13.728 296.565 14.6407 295.016 16.4848L296.548 17.7712C297.687 16.4153 299.189 15.728 301.158 15.728V13.728ZM295.015 16.4863C293.503 18.2937 292.814 20.7608 292.814 23.752H294.814C294.814 21.0472 295.437 19.0983 296.549 17.7697L295.015 16.4863ZM292.814 23.752C292.814 26.7448 293.503 29.2223 295.009 31.0581L296.555 29.7899C295.436 28.4257 294.814 26.4552 294.814 23.752H292.814ZM295.016 31.0672C296.565 32.9113 298.647 33.824 301.158 33.824V31.824C299.189 31.824 297.687 31.1367 296.548 29.7808L295.016 31.0672ZM301.158 33.824C302.888 33.824 304.409 33.443 305.659 32.613C306.914 31.7795 307.813 30.5478 308.384 28.9932L306.507 28.3028C306.055 29.5322 305.394 30.3885 304.553 30.947C303.706 31.509 302.596 31.824 301.158 31.824V33.824ZM307.446 29.648H313.35V27.648H307.446V29.648ZM312.388 28.3733C311.676 30.8653 310.355 32.8212 308.426 34.2829L309.634 35.8771C311.928 34.1388 313.487 31.8067 314.311 28.9227L312.388 28.3733ZM308.434 34.2771C306.525 35.6939 304.122 36.432 301.158 36.432V38.432C304.466 38.432 307.31 37.6021 309.626 35.8829L308.434 34.2771ZM301.158 36.432C298.783 36.432 296.718 35.9074 294.936 34.8846L293.94 36.6194C296.062 37.8366 298.477 38.432 301.158 38.432V36.432ZM294.946 34.8908C293.154 33.8332 291.743 32.3671 290.707 30.4722L288.953 31.4318C290.156 33.6329 291.818 35.3668 293.93 36.6132L294.946 34.8908ZM290.716 30.4885C289.714 28.5727 289.198 26.3363 289.198 23.752H287.198C287.198 26.6077 287.77 29.1713 288.944 31.4155L290.716 30.4885ZM337.859 11.416L337.376 12.2919L337.384 12.2959L337.859 11.416ZM341.603 15.256L340.719 15.7231L340.722 15.7296L340.726 15.736L341.603 15.256ZM342.995 37V38H343.995V37H342.995ZM337.571 37H336.571V38H337.571V37ZM335.795 16.792L335.061 17.4711L335.07 17.4803L335.795 16.792ZM326.051 16.792L325.326 16.1032L325.326 16.1037L326.051 16.792ZM324.275 37V38H325.275V37H324.275ZM318.803 37H317.803V38H318.803V37ZM318.803 1.48V0.48H317.803V1.48H318.803ZM324.275 1.48H325.275V0.48H324.275V1.48ZM324.275 13.624H323.275V16.3983L325.045 14.262L324.275 13.624ZM327.779 11.032L327.39 10.1107L327.383 10.1139L327.779 11.032ZM332.483 11.12C334.352 11.12 335.974 11.5191 337.377 12.2918L338.342 10.5402C336.608 9.58488 334.646 9.12 332.483 9.12V11.12ZM337.384 12.2959C338.8 13.0605 339.91 14.1921 340.719 15.7231L342.487 14.7889C341.504 12.9279 340.118 11.4995 338.334 10.5361L337.384 12.2959ZM340.726 15.736C341.556 17.2534 341.995 19.1278 341.995 21.4H343.995C343.995 18.8722 343.506 16.6506 342.48 14.776L340.726 15.736ZM341.995 21.4V37H343.995V21.4H341.995ZM342.995 36H337.571V38H342.995V36ZM338.571 37V22.216H336.571V37H338.571ZM338.571 22.216C338.571 19.6896 337.938 17.598 336.521 16.1037L335.07 17.4803C336.02 18.482 336.571 20.0064 336.571 22.216H338.571ZM336.529 16.113C335.123 14.5924 333.221 13.872 330.947 13.872V15.872C332.769 15.872 334.1 16.4316 335.061 17.471L336.529 16.113ZM330.947 13.872C328.673 13.872 326.762 14.5923 325.326 16.1032L326.776 17.4807C327.773 16.4317 329.125 15.872 330.947 15.872V13.872ZM325.326 16.1037C323.908 17.598 323.275 19.6896 323.275 22.216H325.275C325.275 20.0064 325.826 18.482 326.777 17.4803L325.326 16.1037ZM323.275 22.216V37H325.275V22.216H323.275ZM324.275 36H318.803V38H324.275V36ZM319.803 37V1.48H317.803V37H319.803ZM318.803 2.48H324.275V0.48H318.803V2.48ZM323.275 1.48V13.624H325.275V1.48H323.275ZM325.045 14.262C325.867 13.2702 326.904 12.499 328.176 11.9501L327.383 10.1139C325.838 10.781 324.539 11.7378 323.505 12.986L325.045 14.262ZM328.168 11.9532C329.475 11.4015 330.909 11.12 332.483 11.12V9.12C330.665 9.12 328.963 9.4465 327.39 10.1108L328.168 11.9532ZM367.916 3.64H368.916V2.64H367.916V3.64ZM367.916 37V38H368.916V37H367.916ZM362.444 37H361.444V38H362.444V37ZM362.444 3.64V2.64H361.444V3.64H362.444ZM366.916 3.64V37H368.916V3.64H366.916ZM367.916 36H362.444V38H367.916V36ZM363.444 37V3.64H361.444V37H363.444ZM362.444 4.64H367.916V2.64H362.444V4.64ZM394.012 11.416L393.544 12.2998L393.551 12.3035L394.012 11.416ZM397.9 15.256L397.023 15.736V15.736L397.9 15.256ZM399.292 37V38H400.292V37H399.292ZM393.868 37H392.868V38H393.868V37ZM392.092 16.792L391.358 17.4711L391.367 17.4803L392.092 16.792ZM382.348 16.792L381.623 16.1032L381.623 16.1037L382.348 16.792ZM380.572 37V38H381.572V37H380.572ZM375.1 37H374.1V38H375.1V37ZM375.1 10.552V9.552H374.1V10.552H375.1ZM380.572 10.552H381.572V9.552H380.572V10.552ZM380.572 13.576H379.572V16.3633L381.344 14.2117L380.572 13.576ZM383.98 11.032L383.584 10.1139L383.576 10.1173L383.98 11.032ZM388.444 11.12C390.382 11.12 392.074 11.5213 393.544 12.2998L394.48 10.5322C392.686 9.58269 390.666 9.12 388.444 9.12V11.12ZM393.551 12.3035C395.033 13.073 396.187 14.2084 397.023 15.736L398.777 14.776C397.757 12.9116 396.319 11.487 394.473 10.5285L393.551 12.3035ZM397.023 15.736C397.853 17.2534 398.292 19.1278 398.292 21.4H400.292C400.292 18.8722 399.803 16.6506 398.777 14.776L397.023 15.736ZM398.292 21.4V37H400.292V21.4H398.292ZM399.292 36H393.868V38H399.292V36ZM394.868 37V22.216H392.868V37H394.868ZM394.868 22.216C394.868 19.6896 394.235 17.598 392.817 16.1037L391.367 17.4803C392.317 18.482 392.868 20.0064 392.868 22.216H394.868ZM392.826 16.113C391.42 14.5924 389.518 13.872 387.244 13.872V15.872C389.066 15.872 390.396 16.4316 391.358 17.471L392.826 16.113ZM387.244 13.872C384.97 13.872 383.058 14.5923 381.623 16.1032L383.073 17.4807C384.07 16.4317 385.422 15.872 387.244 15.872V13.872ZM381.623 16.1037C380.205 17.598 379.572 19.6896 379.572 22.216H381.572C381.572 20.0064 382.123 18.482 383.073 17.4803L381.623 16.1037ZM379.572 22.216V37H381.572V22.216H379.572ZM380.572 36H375.1V38H380.572V36ZM376.1 37V10.552H374.1V37H376.1ZM375.1 11.552H380.572V9.552H375.1V11.552ZM379.572 10.552V13.576H381.572V10.552H379.572ZM381.344 14.2117C382.134 13.2521 383.141 12.496 384.384 11.9467L383.576 10.1173C382.067 10.784 380.802 11.7239 379.8 12.9403L381.344 14.2117ZM384.376 11.9501C385.656 11.3973 387.009 11.12 388.444 11.12V9.12C386.743 9.12 385.12 9.45065 383.584 10.1139L384.376 11.9501ZM410.256 36.328L409.83 37.2328L409.841 37.2378L409.851 37.2425L410.256 36.328ZM406.368 33.256L405.561 33.8465L405.568 33.856L406.368 33.256ZM404.832 28.888V27.888H403.791L403.833 28.928L404.832 28.888ZM410.496 28.888L411.492 28.8026L411.414 27.888H410.496V28.888ZM412.08 31.72L411.455 32.5009L411.469 32.5122L411.484 32.5231L412.08 31.72ZM419.328 31.96L419.897 32.7822L419.903 32.7778L419.328 31.96ZM419.184 27.448L418.724 28.3363L418.737 28.3424L419.184 27.448ZM414.72 25.864L414.991 24.9013L414.984 24.8996L414.72 25.864ZM409.872 24.28L409.492 25.2052L409.872 24.28ZM406.608 21.928L405.845 22.575L405.851 22.5816L405.857 22.5881L406.608 21.928ZM406.512 13.912L407.323 14.4975L407.33 14.4869L406.512 13.912ZM410.064 11.128L409.67 10.2088L409.663 10.2118L410.064 11.128ZM422.688 12.424L422.044 13.1889L422.051 13.195L422.058 13.2009L422.688 12.424ZM425.664 18.616V19.616H426.714L426.663 18.5673L425.664 18.616ZM420.192 18.616L419.195 18.6968L419.27 19.616H420.192V18.616ZM418.752 15.784L419.384 15.0088L418.752 15.784ZM411.936 15.544L411.358 14.728L411.936 15.544ZM411.552 19.48L410.868 20.2095V20.2095L411.552 19.48ZM413.424 20.632L413.059 21.5632L413.077 21.5702L413.095 21.5765L413.424 20.632ZM416.688 21.64L416.41 22.6007L416.42 22.6036L416.43 22.6062L416.688 21.64ZM421.392 23.224L420.984 24.1368L420.998 24.1432L421.012 24.1492L421.392 23.224ZM424.608 25.528L423.855 26.1865L424.608 25.528ZM426 29.608H427V29.5986L427 29.5891L426 29.608ZM424.752 33.64L423.934 33.0651L424.752 33.64ZM421.2 36.424L420.799 35.5078L420.792 35.511L421.2 36.424ZM415.872 36.432C413.911 36.432 412.18 36.0856 410.66 35.4135L409.851 37.2425C411.66 38.0424 413.672 38.432 415.872 38.432V36.432ZM410.682 35.4232C409.178 34.7157 408.018 33.7895 407.168 32.656L405.568 33.856C406.638 35.2825 408.069 36.4043 409.83 37.2328L410.682 35.4232ZM407.175 32.6655C406.33 31.5112 405.887 30.2463 405.831 28.848L403.833 28.928C403.905 30.7297 404.485 32.3768 405.561 33.8465L407.175 32.6655ZM404.832 29.888H410.496V27.888H404.832V29.888ZM409.5 28.9734C409.621 30.3935 410.303 31.5795 411.455 32.5009L412.705 30.9391C411.936 30.3245 411.562 29.6225 411.492 28.8026L409.5 28.9734ZM411.484 32.5231C412.68 33.4101 414.132 33.824 415.776 33.824V31.824C414.476 31.824 413.464 31.5019 412.676 30.9169L411.484 32.5231ZM415.776 33.824C417.417 33.824 418.832 33.5197 419.897 32.7822L418.759 31.1378C418.16 31.5523 417.207 31.824 415.776 31.824V33.824ZM419.903 32.7778C420.991 32.0125 421.624 30.9583 421.624 29.656H419.624C419.624 30.2097 419.393 30.6915 418.752 31.1422L419.903 32.7778ZM421.624 29.656C421.624 28.9918 421.461 28.3646 421.102 27.8137C420.745 27.2674 420.235 26.8554 419.631 26.5536L418.737 28.3424C419.093 28.5206 419.303 28.7166 419.426 28.9063C419.547 29.0914 419.624 29.3282 419.624 29.656H421.624ZM419.643 26.5598C418.621 26.0309 417.051 25.4809 414.991 24.9013L414.449 26.8266C416.484 27.3991 417.891 27.9051 418.724 28.3362L419.643 26.5598ZM414.984 24.8996C413.021 24.3614 411.448 23.8457 410.251 23.3548L409.492 25.2052C410.792 25.7383 412.45 26.2786 414.455 26.8284L414.984 24.8996ZM410.251 23.3548C409.152 22.9038 408.19 22.2131 407.359 21.2679L405.857 22.5881C406.882 23.7549 408.096 24.6322 409.492 25.2052L410.251 23.3548ZM407.37 21.281C406.663 20.4471 406.264 19.3036 406.264 17.752H404.264C404.264 19.6564 404.761 21.2969 405.845 22.575L407.37 21.281ZM406.264 17.752C406.264 16.5563 406.612 15.4808 407.323 14.4975L405.701 13.3265C404.747 14.6472 404.264 16.1317 404.264 17.752H406.264ZM407.33 14.4869C408.041 13.4752 409.069 12.6546 410.465 12.0442L409.663 10.2118C407.986 10.9454 406.647 11.9808 405.694 13.3371L407.33 14.4869ZM410.458 12.0471C411.881 11.4373 413.535 11.12 415.44 11.12V9.12C413.313 9.12 411.383 9.47472 409.67 10.2089L410.458 12.0471ZM415.44 11.12C418.275 11.12 420.443 11.8411 422.044 13.1889L423.332 11.6591C421.285 9.93495 418.62 9.12 415.44 9.12V11.12ZM422.058 13.2009C423.67 14.5067 424.549 16.2932 424.665 18.6647L426.663 18.5673C426.522 15.6908 425.418 13.3493 423.317 11.6471L422.058 13.2009ZM425.664 17.616H420.192V19.616H425.664V17.616ZM421.189 18.5352C421.072 17.0996 420.474 15.8971 419.384 15.0088L418.12 16.5592C418.758 17.0789 419.12 17.7644 419.195 18.6968L421.189 18.5352ZM419.384 15.0088C418.291 14.1185 416.876 13.728 415.248 13.728V15.728C416.564 15.728 417.485 16.0415 418.12 16.5592L419.384 15.0088ZM415.248 13.728C413.704 13.728 412.363 14.0161 411.358 14.728L412.514 16.36C413.045 15.9839 413.912 15.728 415.248 15.728V13.728ZM411.358 14.728C410.341 15.4483 409.784 16.4648 409.784 17.704H411.784C411.784 17.1512 411.995 16.7277 412.514 16.36L411.358 14.728ZM409.784 17.704C409.784 18.6834 410.154 19.5398 410.868 20.2095L412.236 18.7505C411.926 18.4602 411.784 18.1326 411.784 17.704H409.784ZM410.868 20.2095C411.484 20.7868 412.22 21.2347 413.059 21.5632L413.788 19.7008C413.156 19.4533 412.644 19.1332 412.236 18.7505L410.868 20.2095ZM413.095 21.5765C413.857 21.8415 414.966 22.1834 416.41 22.6007L416.965 20.6793C415.53 20.2646 414.463 19.9345 413.752 19.6875L413.095 21.5765ZM416.43 22.6062C418.321 23.1105 419.834 23.6224 420.984 24.1368L421.8 22.3112C420.518 21.7376 418.895 21.1935 416.946 20.6738L416.43 22.6062ZM421.012 24.1492C422.116 24.6018 423.06 25.278 423.855 26.1865L425.36 24.8695C424.363 23.73 423.164 22.8702 421.771 22.2988L421.012 24.1492ZM423.855 26.1865C424.561 26.9927 424.971 28.1066 425 29.6269L427 29.5891C426.964 27.7174 426.447 26.1113 425.36 24.8695L423.855 26.1865ZM425 29.608C425 30.9148 424.643 32.0563 423.934 33.0651L425.57 34.2149C426.525 32.8557 427 31.3092 427 29.608H425ZM423.934 33.0651C423.223 34.0768 422.194 34.8974 420.799 35.5078L421.601 37.3402C423.277 36.6066 424.617 35.5712 425.57 34.2149L423.934 33.0651ZM420.792 35.511C419.444 36.1135 417.813 36.432 415.872 36.432V38.432C418.027 38.432 419.948 38.0785 421.608 37.337L420.792 35.511ZM432.201 6.04L432.908 5.33289V5.33289L432.201 6.04ZM432.201 1.048L432.908 1.75511V1.75511L432.201 1.048ZM437.145 1.048L436.437 1.75511V1.75511L437.145 1.048ZM437.145 6.04L436.437 5.33289V5.33289L437.145 6.04ZM437.384 10.552H438.384V9.552H437.384V10.552ZM437.384 37V38H438.384V37H437.384ZM431.913 37H430.913V38H431.913V37ZM431.913 10.552V9.552H430.913V10.552H431.913ZM434.697 6.048C433.957 6.048 433.383 5.80839 432.908 5.33289L431.493 6.7471C432.362 7.61561 433.452 8.048 434.697 8.048V6.048ZM432.908 5.33289C432.432 4.85739 432.193 4.28374 432.193 3.544H430.193C430.193 4.78826 430.625 5.8786 431.493 6.7471L432.908 5.33289ZM432.193 3.544C432.193 2.80426 432.432 2.2306 432.908 1.75511L431.493 0.340892C430.625 1.20939 430.193 2.29974 430.193 3.544H432.193ZM432.908 1.75511C433.383 1.27961 433.957 1.04 434.697 1.04V-0.960002C433.452 -0.960002 432.362 -0.527611 431.493 0.340893L432.908 1.75511ZM434.697 1.04C435.394 1.04 435.955 1.27277 436.437 1.75511L437.852 0.340893C436.99 -0.520774 435.919 -0.960002 434.697 -0.960002V1.04ZM436.437 1.75511C436.913 2.2306 437.152 2.80426 437.152 3.544H439.152C439.152 2.29974 438.72 1.20939 437.852 0.340892L436.437 1.75511ZM437.152 3.544C437.152 4.28374 436.913 4.85739 436.437 5.33289L437.852 6.7471C438.72 5.8786 439.152 4.78826 439.152 3.544H437.152ZM436.437 5.33289C435.955 5.81523 435.394 6.048 434.697 6.048V8.048C435.919 8.048 436.99 7.60877 437.852 6.7471L436.437 5.33289ZM436.384 10.552V37H438.384V10.552H436.384ZM437.384 36H431.913V38H437.384V36ZM432.913 37V10.552H430.913V37H432.913ZM431.913 11.552H437.384V9.552H431.913V11.552ZM460.649 11.368L460.18 12.2513L460.191 12.257L460.202 12.2624L460.649 11.368ZM464.393 14.392L463.588 14.9852L465.393 17.4349V14.392H464.393ZM464.393 10.552V9.552H463.393V10.552H464.393ZM469.913 10.552H470.913V9.552H469.913V10.552ZM468.377 43.912L467.498 43.4352L467.494 43.4414L468.377 43.912ZM463.913 48.424L463.426 47.5505L463.42 47.554L463.913 48.424ZM448.073 47.512L448.655 46.699L448.648 46.6938L448.073 47.512ZM444.041 40.696V39.696H442.923L443.047 40.8064L444.041 40.696ZM449.465 40.696L450.422 40.4066L450.207 39.696H449.465V40.696ZM452.105 44.008L452.637 43.1611L452.631 43.1577L452.105 44.008ZM462.329 43.288L461.63 42.5726L461.622 42.5809L462.329 43.288ZM464.393 33.016H465.393V29.9953L463.59 32.4193L464.393 33.016ZM460.601 36.184L461.069 37.0674L461.076 37.0639L460.601 36.184ZM448.889 35.704L448.357 36.5512L448.366 36.5564L448.374 36.5615L448.889 35.704ZM444.377 30.808L443.488 31.266L443.492 31.2741L443.496 31.2821L444.377 30.808ZM444.377 16.6L443.499 16.1202L443.494 16.1308L444.377 16.6ZM448.889 11.848L449.399 12.7081L449.403 12.7055L448.889 11.848ZM463.241 19L462.364 19.4803L462.368 19.4883L462.372 19.4961L463.241 19ZM460.313 15.928L459.812 16.7934L460.313 15.928ZM452.441 15.928L452.924 16.8032L452.933 16.7984L452.942 16.7934L452.441 15.928ZM449.465 18.952L448.596 18.4558L448.593 18.4627L449.465 18.952ZM449.465 28.456L448.583 28.9277L448.587 28.9355L448.592 28.9434L449.465 28.456ZM452.441 31.624L451.923 32.4795L451.936 32.4874L451.949 32.495L452.441 31.624ZM460.313 31.624L460.814 32.4894L460.313 31.624ZM463.241 28.552L462.368 28.0646L462.364 28.0717L463.241 28.552ZM455.225 11.12C457.135 11.12 458.777 11.507 460.18 12.2513L461.117 10.4846C459.384 9.56502 457.411 9.12 455.225 9.12V11.12ZM460.202 12.2624C461.686 13.0047 462.801 13.9179 463.588 14.9852L465.198 13.7988C464.192 12.4341 462.811 11.3313 461.096 10.4736L460.202 12.2624ZM465.393 14.392V10.552H463.393V14.392H465.393ZM464.393 11.552H469.913V9.552H464.393V11.552ZM468.913 10.552V37.432H470.913V10.552H468.913ZM468.913 37.432C468.913 39.7198 468.432 41.7121 467.498 43.4352L469.256 44.3888C470.369 42.3359 470.913 40.0082 470.913 37.432H468.913ZM467.494 43.4414C466.563 45.1871 465.215 46.5534 463.426 47.5505L464.4 49.2975C466.515 48.1186 468.142 46.4769 469.259 44.3826L467.494 43.4414ZM463.42 47.554C461.68 48.54 459.553 49.056 457.001 49.056V51.056C459.824 51.056 462.306 50.484 464.406 49.294L463.42 47.554ZM457.001 49.056C453.577 49.056 450.817 48.2477 448.655 46.699L447.49 48.325C450.064 50.1683 453.257 51.056 457.001 51.056V49.056ZM448.648 46.6938C446.515 45.195 445.323 43.1809 445.035 40.5856L443.047 40.8064C443.398 43.9711 444.895 46.501 447.498 48.3302L448.648 46.6938ZM444.041 41.696H449.465V39.696H444.041V41.696ZM448.508 40.9854C449.001 42.6185 450.049 43.9118 451.578 44.8583L452.631 43.1577C451.472 42.4402 450.76 41.5255 450.422 40.4066L448.508 40.9854ZM451.573 44.8549C453.133 45.8343 454.956 46.304 457.001 46.304V44.304C455.27 44.304 453.829 43.9097 452.637 43.1611L451.573 44.8549ZM457.001 46.304C459.428 46.304 461.474 45.5571 463.036 43.9951L461.622 42.5809C460.496 43.7069 458.99 44.304 457.001 44.304V46.304ZM463.027 44.0034C464.654 42.4152 465.393 40.1688 465.393 37.432H463.393C463.393 39.8152 462.756 41.4728 461.63 42.5726L463.027 44.0034ZM465.393 37.432V33.016H463.393V37.432H465.393ZM463.59 32.4193C462.763 33.5319 461.619 34.4978 460.126 35.3041L461.076 37.0639C462.783 36.1422 464.167 34.9961 465.195 33.6127L463.59 32.4193ZM460.132 35.3007C458.727 36.0462 457.1 36.432 455.225 36.432V38.432C457.382 38.432 459.339 37.9858 461.069 37.0673L460.132 35.3007ZM455.225 36.432C453.096 36.432 451.163 35.9025 449.403 34.8465L448.374 36.5615C450.454 37.8095 452.745 38.432 455.225 38.432V36.432ZM449.42 34.8568C447.688 33.7704 446.3 32.2709 445.257 30.3339L443.496 31.2821C444.693 33.5051 446.314 35.2696 448.357 36.5512L449.42 34.8568ZM445.266 30.35C444.259 28.3957 443.745 26.1717 443.745 23.656H441.745C441.745 26.4523 442.319 28.9963 443.488 31.266L445.266 30.35ZM443.745 23.656C443.745 21.1396 444.259 18.9529 445.26 17.0692L443.494 16.1308C442.318 18.3431 441.745 20.8604 441.745 23.656H443.745ZM445.254 17.0798C446.294 15.1788 447.675 13.7307 449.399 12.7081L448.379 10.9879C446.326 12.2053 444.7 13.9252 443.499 16.1202L445.254 17.0798ZM449.403 12.7055C451.163 11.6495 453.096 11.12 455.225 11.12V9.12C452.745 9.12 450.454 9.74246 448.374 10.9905L449.403 12.7055ZM465.393 23.752C465.393 21.7852 464.978 20.0239 464.109 18.5039L462.372 19.4961C463.04 20.6641 463.393 22.0708 463.393 23.752H465.393ZM464.118 18.5197C463.302 17.0304 462.202 15.8664 460.814 15.0626L459.812 16.7934C460.855 17.3976 461.707 18.2816 462.364 19.4803L464.118 18.5197ZM460.814 15.0626C459.445 14.2702 457.96 13.872 456.377 13.872V15.872C457.609 15.872 458.748 16.1778 459.812 16.7934L460.814 15.0626ZM456.377 13.872C454.793 13.872 453.308 14.2702 451.94 15.0626L452.942 16.7934C454.005 16.1778 455.144 15.872 456.377 15.872V13.872ZM451.957 15.0528C450.563 15.8233 449.445 16.9713 448.596 18.4559L450.333 19.4481C451.021 18.2447 451.887 17.3767 452.924 16.8032L451.957 15.0528ZM448.593 18.4627C447.757 19.9529 447.361 21.6969 447.361 23.656H449.361C449.361 21.9671 449.701 20.5751 450.337 19.4412L448.593 18.4627ZM447.361 23.656C447.361 25.6167 447.757 27.3838 448.583 28.9277L450.347 27.9843C449.7 26.7762 449.361 25.3433 449.361 23.656H447.361ZM448.592 28.9434C449.435 30.454 450.543 31.6442 451.923 32.4795L452.959 30.7685C451.907 30.1318 451.031 29.21 450.338 27.9686L448.592 28.9434ZM451.949 32.495C453.341 33.2799 454.821 33.68 456.377 33.68V31.68C455.18 31.68 454.037 31.3761 452.932 30.753L451.949 32.495ZM456.377 33.68C457.96 33.68 459.445 33.2818 460.814 32.4894L459.812 30.7586C458.748 31.3742 457.609 31.68 456.377 31.68V33.68ZM460.814 32.4894C462.202 31.6856 463.302 30.5216 464.118 29.0323L462.364 28.0717C461.707 29.2704 460.855 30.1544 459.812 30.7586L460.814 32.4894ZM464.114 29.0394C464.977 27.4924 465.393 25.7195 465.393 23.752H463.393C463.393 25.4325 463.04 26.8596 462.368 28.0646L464.114 29.0394ZM496.156 11.416L495.673 12.2919L495.681 12.2959L496.156 11.416ZM499.9 15.256L499.016 15.7231L499.019 15.7296L499.023 15.736L499.9 15.256ZM501.292 37V38H502.292V37H501.292ZM495.868 37H494.868V38H495.868V37ZM494.092 16.792L493.358 17.4711L493.367 17.4803L494.092 16.792ZM484.348 16.792L483.623 16.1032L483.623 16.1037L484.348 16.792ZM482.572 37V38H483.572V37H482.572ZM477.1 37H476.1V38H477.1V37ZM477.1 1.48V0.48H476.1V1.48H477.1ZM482.572 1.48H483.572V0.48H482.572V1.48ZM482.572 13.624H481.572V16.3983L483.342 14.262L482.572 13.624ZM486.076 11.032L485.687 10.1107L485.68 10.1139L486.076 11.032ZM490.78 11.12C492.649 11.12 494.271 11.5191 495.673 12.2918L496.639 10.5402C494.905 9.58488 492.943 9.12 490.78 9.12V11.12ZM495.681 12.2959C497.097 13.0605 498.207 14.1921 499.016 15.7231L500.784 14.7889C499.801 12.9279 498.415 11.4995 496.631 10.5361L495.681 12.2959ZM499.023 15.736C499.853 17.2534 500.292 19.1278 500.292 21.4H502.292C502.292 18.8722 501.803 16.6506 500.777 14.776L499.023 15.736ZM500.292 21.4V37H502.292V21.4H500.292ZM501.292 36H495.868V38H501.292V36ZM496.868 37V22.216H494.868V37H496.868ZM496.868 22.216C496.868 19.6896 496.235 17.598 494.817 16.1037L493.367 17.4803C494.317 18.482 494.868 20.0064 494.868 22.216H496.868ZM494.826 16.113C493.42 14.5924 491.518 13.872 489.244 13.872V15.872C491.066 15.872 492.396 16.4316 493.358 17.471L494.826 16.113ZM489.244 13.872C486.97 13.872 485.058 14.5923 483.623 16.1032L485.073 17.4807C486.07 16.4317 487.422 15.872 489.244 15.872V13.872ZM483.623 16.1037C482.205 17.598 481.572 19.6896 481.572 22.216H483.572C483.572 20.0064 484.123 18.482 485.073 17.4803L483.623 16.1037ZM481.572 22.216V37H483.572V22.216H481.572ZM482.572 36H477.1V38H482.572V36ZM478.1 37V1.48H476.1V37H478.1ZM477.1 2.48H482.572V0.48H477.1V2.48ZM481.572 1.48V13.624H483.572V1.48H481.572ZM483.342 14.262C484.164 13.2702 485.201 12.499 486.472 11.9501L485.68 10.1139C484.135 10.781 482.836 11.7378 481.802 12.986L483.342 14.262ZM486.465 11.9532C487.772 11.4015 489.206 11.12 490.78 11.12V9.12C488.962 9.12 487.26 9.4465 485.687 10.1108L486.465 11.9532ZM514.656 15.016V14.016H513.656V15.016H514.656ZM515.328 31.816L514.621 32.5231L514.646 32.5483L514.673 32.5717L515.328 31.816ZM521.088 32.44H522.088V31.44H521.088V32.44ZM521.088 37V38H522.088V37H521.088ZM511.104 35.272L510.444 36.0234L511.104 35.272ZM509.136 15.016H510.136V14.016H509.136V15.016ZM506.016 15.016H505.016V16.016H506.016V15.016ZM506.016 10.552V9.552H505.016V10.552H506.016ZM509.136 10.552V11.552H510.136V10.552H509.136ZM509.136 3.976V2.976H508.136V3.976H509.136ZM514.656 3.976H515.656V2.976H514.656V3.976ZM514.656 10.552H513.656V11.552H514.656V10.552ZM521.088 10.552H522.088V9.552H521.088V10.552ZM521.088 15.016V16.016H522.088V15.016H521.088ZM513.656 15.016V29.656H515.656V15.016H513.656ZM513.656 29.656C513.656 30.7675 513.903 31.805 514.621 32.5231L516.035 31.1089C515.857 30.931 515.656 30.5285 515.656 29.656H513.656ZM514.673 32.5717C515.43 33.2276 516.533 33.44 517.728 33.44V31.44C516.682 31.44 516.186 31.2364 515.983 31.0603L514.673 32.5717ZM517.728 33.44H521.088V31.44H517.728V33.44ZM520.088 32.44V37H522.088V32.44H520.088ZM521.088 36H516.768V38H521.088V36ZM516.768 36C514.448 36 512.83 35.4572 511.764 34.5206L510.444 36.0234C512.001 37.3908 514.16 38 516.768 38V36ZM511.764 34.5206C510.755 33.6351 510.136 32.1015 510.136 29.656H508.136C508.136 32.3945 508.829 34.6049 510.444 36.0234L511.764 34.5206ZM510.136 29.656V15.016H508.136V29.656H510.136ZM509.136 14.016H506.016V16.016H509.136V14.016ZM507.016 15.016V10.552H505.016V15.016H507.016ZM506.016 11.552H509.136V9.552H506.016V11.552ZM510.136 10.552V3.976H508.136V10.552H510.136ZM509.136 4.976H514.656V2.976H509.136V4.976ZM513.656 3.976V10.552H515.656V3.976H513.656ZM514.656 11.552H521.088V9.552H514.656V11.552ZM520.088 10.552V15.016H522.088V10.552H520.088ZM521.088 14.016H514.656V16.016H521.088V14.016ZM530.115 36.328L529.689 37.2328L529.7 37.2378L529.711 37.2425L530.115 36.328ZM526.227 33.256L525.42 33.8465L525.427 33.856L526.227 33.256ZM524.691 28.888V27.888H523.65L523.692 28.928L524.691 28.888ZM530.355 28.888L531.352 28.8026L531.273 27.888H530.355V28.888ZM531.939 31.72L531.315 32.5009L531.329 32.5122L531.343 32.5231L531.939 31.72ZM539.187 31.96L539.756 32.7822L539.763 32.7778L539.187 31.96ZM539.043 27.448L538.584 28.3363L538.596 28.3424L539.043 27.448ZM534.579 25.864L534.85 24.9013L534.844 24.8996L534.579 25.864ZM529.731 24.28L529.352 25.2052L529.731 24.28ZM526.467 21.928L525.705 22.575L525.71 22.5816L525.716 22.5881L526.467 21.928ZM526.371 13.912L527.182 14.4975L527.189 14.4869L526.371 13.912ZM529.923 11.128L529.529 10.2088L529.522 10.2118L529.923 11.128ZM542.547 12.424L541.903 13.1889L541.91 13.195L541.918 13.2009L542.547 12.424ZM545.523 18.616V19.616H546.573L546.522 18.5673L545.523 18.616ZM540.051 18.616L539.055 18.6968L539.129 19.616H540.051V18.616ZM538.611 15.784L539.243 15.0088L538.611 15.784ZM531.795 15.544L531.217 14.728L531.795 15.544ZM531.411 19.48L530.727 20.2095V20.2095L531.411 19.48ZM533.283 20.632L532.919 21.5632L532.937 21.5702L532.955 21.5765L533.283 20.632ZM536.547 21.64L536.27 22.6007L536.28 22.6036L536.29 22.6062L536.547 21.64ZM541.251 23.224L540.843 24.1368L540.857 24.1432L540.872 24.1492L541.251 23.224ZM544.467 25.528L543.715 26.1865L544.467 25.528ZM545.859 29.608H546.859V29.5986L546.859 29.5891L545.859 29.608ZM544.611 33.64L543.793 33.0651L544.611 33.64ZM541.059 36.424L540.658 35.5078L540.651 35.511L541.059 36.424ZM535.731 36.432C533.771 36.432 532.039 36.0856 530.52 35.4135L529.711 37.2425C531.519 38.0424 533.532 38.432 535.731 38.432V36.432ZM530.541 35.4232C529.038 34.7157 527.877 33.7895 527.027 32.656L525.427 33.856C526.497 35.2825 527.929 36.4043 529.689 37.2328L530.541 35.4232ZM527.034 32.6655C526.19 31.5112 525.746 30.2463 525.69 28.848L523.692 28.928C523.764 30.7297 524.345 32.3768 525.42 33.8465L527.034 32.6655ZM524.691 29.888H530.355V27.888H524.691V29.888ZM529.359 28.9734C529.481 30.3935 530.163 31.5795 531.315 32.5009L532.564 30.9391C531.796 30.3245 531.422 29.6225 531.352 28.8026L529.359 28.9734ZM531.343 32.5231C532.539 33.4101 533.991 33.824 535.635 33.824V31.824C534.336 31.824 533.324 31.5019 532.535 30.9169L531.343 32.5231ZM535.635 33.824C537.276 33.824 538.691 33.5197 539.756 32.7822L538.618 31.1378C538.019 31.5523 537.067 31.824 535.635 31.824V33.824ZM539.763 32.7778C540.85 32.0125 541.483 30.9583 541.483 29.656H539.483C539.483 30.2097 539.252 30.6915 538.612 31.1422L539.763 32.7778ZM541.483 29.656C541.483 28.9918 541.32 28.3646 540.961 27.8137C540.605 27.2674 540.094 26.8554 539.49 26.5536L538.596 28.3424C538.952 28.5206 539.162 28.7166 539.286 28.9063C539.406 29.0914 539.483 29.3282 539.483 29.656H541.483ZM539.503 26.5598C538.48 26.0309 536.911 25.4809 534.85 24.9013L534.309 26.8266C536.344 27.3991 537.75 27.9051 538.584 28.3362L539.503 26.5598ZM534.844 24.8996C532.881 24.3614 531.307 23.8457 530.111 23.3548L529.352 25.2052C530.651 25.7383 532.31 26.2786 534.315 26.8284L534.844 24.8996ZM530.111 23.3548C529.012 22.9038 528.049 22.2131 527.218 21.2679L525.716 22.5881C526.741 23.7549 527.955 24.6322 529.352 25.2052L530.111 23.3548ZM527.23 21.281C526.522 20.4471 526.123 19.3036 526.123 17.752H524.123C524.123 19.6564 524.62 21.2969 525.705 22.575L527.23 21.281ZM526.123 17.752C526.123 16.5563 526.472 15.4808 527.182 14.4975L525.561 13.3265C524.607 14.6472 524.123 16.1317 524.123 17.752H526.123ZM527.189 14.4869C527.9 13.4752 528.929 12.6546 530.324 12.0442L529.522 10.2118C527.846 10.9454 526.506 11.9808 525.553 13.3371L527.189 14.4869ZM530.317 12.0471C531.74 11.4373 533.394 11.12 535.299 11.12V9.12C533.172 9.12 531.242 9.47472 529.529 10.2089L530.317 12.0471ZM535.299 11.12C538.135 11.12 540.303 11.8411 541.903 13.1889L543.191 11.6591C541.144 9.93495 538.48 9.12 535.299 9.12V11.12ZM541.918 13.2009C543.529 14.5067 544.409 16.2932 544.524 18.6647L546.522 18.5673C546.382 15.6908 545.277 13.3493 543.177 11.6471L541.918 13.2009ZM545.523 17.616H540.051V19.616H545.523V17.616ZM541.048 18.5352C540.932 17.0996 540.333 15.8971 539.243 15.0088L537.98 16.5592C538.617 17.0789 538.979 17.7644 539.055 18.6968L541.048 18.5352ZM539.243 15.0088C538.15 14.1185 536.735 13.728 535.107 13.728V15.728C536.423 15.728 537.344 16.0415 537.98 16.5592L539.243 15.0088ZM535.107 13.728C533.563 13.728 532.222 14.0161 531.217 14.728L532.373 16.36C532.904 15.9839 533.771 15.728 535.107 15.728V13.728ZM531.217 14.728C530.2 15.4483 529.643 16.4648 529.643 17.704H531.643C531.643 17.1512 531.854 16.7277 532.373 16.36L531.217 14.728ZM529.643 17.704C529.643 18.6834 530.013 19.5398 530.727 20.2095L532.095 18.7505C531.786 18.4602 531.643 18.1326 531.643 17.704H529.643ZM530.727 20.2095C531.343 20.7868 532.079 21.2347 532.919 21.5632L533.648 19.7008C533.015 19.4533 532.503 19.1332 532.095 18.7505L530.727 20.2095ZM532.955 21.5765C533.717 21.8415 534.825 22.1834 536.27 22.6007L536.825 20.6793C535.389 20.2646 534.322 19.9345 533.612 19.6875L532.955 21.5765ZM536.29 22.6062C538.18 23.1105 539.693 23.6224 540.843 24.1368L541.66 22.3112C540.378 21.7376 538.754 21.1935 536.805 20.6738L536.29 22.6062ZM540.872 24.1492C541.975 24.6018 542.92 25.278 543.715 26.1865L545.22 24.8695C544.223 23.73 543.023 22.8702 541.631 22.2988L540.872 24.1492ZM543.715 26.1865C544.42 26.9927 544.831 28.1066 544.859 29.6269L546.859 29.5891C546.824 27.7174 546.306 26.1113 545.22 24.8695L543.715 26.1865ZM544.859 29.608C544.859 30.9148 544.502 32.0563 543.793 33.0651L545.429 34.2149C546.385 32.8557 546.859 31.3092 546.859 29.608H544.859ZM543.793 33.0651C543.082 34.0768 542.054 34.8974 540.658 35.5078L541.46 37.3402C543.137 36.6066 544.476 35.5712 545.429 34.2149L543.793 33.0651ZM540.651 35.511C539.303 36.1135 537.672 36.432 535.731 36.432V38.432C537.887 38.432 539.808 38.0785 541.467 37.337L540.651 35.511Z" fill="#D2D5FB" mask="url(#path-1-outside-1_406_67590)"/>
</svg>
