<svg width="300" height="50" viewBox="0 0 300 50" fill="none" xmlns="http://www.w3.org/2000/svg">
<mask id="path-1-outside-1_406_67591" maskUnits="userSpaceOnUse" x="-1" y="-1" width="303" height="52" fill="black">
<rect fill="white" x="-1" y="-1" width="303" height="52"/>
<path d="M24.152 3.64V8.104H15.272V37H9.8V8.104H0.872V3.64H24.152ZM53.9338 23.128C53.9338 24.12 53.8698 25.016 53.7418 25.816H33.5338C33.6938 27.928 34.4778 29.624 35.8858 30.904C37.2938 32.184 39.0218 32.824 41.0698 32.824C44.0138 32.824 46.0938 31.592 47.3098 29.128H53.2137C52.4138 31.56 50.9578 33.56 48.8458 35.128C46.7658 36.664 44.1738 37.432 41.0698 37.432C38.5418 37.432 36.2698 36.872 34.2538 35.752C32.2698 34.6 30.7018 33 29.5498 30.952C28.4298 28.872 27.8698 26.472 27.8698 23.752C27.8698 21.032 28.4138 18.648 29.5018 16.6C30.6218 14.52 32.1738 12.92 34.1578 11.8C36.1738 10.68 38.4778 10.12 41.0698 10.12C43.5658 10.12 45.7898 10.664 47.7418 11.752C49.6938 12.84 51.2138 14.376 52.3018 16.36C53.3898 18.312 53.9338 20.568 53.9338 23.128ZM48.2218 21.4C48.1898 19.384 47.4698 17.768 46.0618 16.552C44.6538 15.336 42.9098 14.728 40.8298 14.728C38.9418 14.728 37.3258 15.336 35.9818 16.552C34.6378 17.736 33.8378 19.352 33.5818 21.4H48.2218ZM57.4948 23.752C57.4948 21.032 58.0388 18.648 59.1268 16.6C60.2468 14.52 61.7828 12.92 63.7348 11.8C65.6868 10.68 67.9268 10.12 70.4548 10.12C73.6548 10.12 76.2948 10.888 78.3748 12.424C80.4868 13.928 81.9108 16.088 82.6468 18.904H76.7428C76.2628 17.592 75.4948 16.568 74.4388 15.832C73.3828 15.096 72.0548 14.728 70.4548 14.728C68.2148 14.728 66.4228 15.528 65.0788 17.128C63.7668 18.696 63.1108 20.904 63.1108 23.752C63.1108 26.6 63.7668 28.824 65.0788 30.424C66.4228 32.024 68.2148 32.824 70.4548 32.824C73.6228 32.824 75.7188 31.432 76.7428 28.648H82.6468C81.8788 31.336 80.4388 33.48 78.3268 35.08C76.2148 36.648 73.5908 37.432 70.4548 37.432C67.9268 37.432 65.6868 36.872 63.7348 35.752C61.7828 34.6 60.2468 33 59.1268 30.952C58.0388 28.872 57.4948 26.472 57.4948 23.752ZM101.78 10.12C103.796 10.12 105.588 10.552 107.156 11.416C108.756 12.28 110.004 13.56 110.9 15.256C111.828 16.952 112.292 19 112.292 21.4V37H106.868V22.216C106.868 19.848 106.276 18.04 105.092 16.792C103.908 15.512 102.292 14.872 100.244 14.872C98.196 14.872 96.564 15.512 95.348 16.792C94.164 18.04 93.572 19.848 93.572 22.216V37H88.1V1.48H93.572V13.624C94.5 12.504 95.668 11.64 97.076 11.032C98.516 10.424 100.084 10.12 101.78 10.12ZM151.853 30.184H137.885L135.485 37H129.773L141.725 3.592H148.061L160.013 37H154.253L151.853 30.184ZM150.317 25.72L144.893 10.216L139.421 25.72H150.317ZM170.681 14.392C171.481 13.048 172.537 12.008 173.849 11.272C175.193 10.504 176.777 10.12 178.601 10.12V15.784H177.209C175.065 15.784 173.433 16.328 172.313 17.416C171.225 18.504 170.681 20.392 170.681 23.08V37H165.209V10.552H170.681V14.392ZM190.015 15.016V29.656C190.015 30.648 190.239 31.368 190.687 31.816C191.167 32.232 191.967 32.44 193.087 32.44H196.447V37H192.127C189.663 37 187.775 36.424 186.463 35.272C185.151 34.12 184.495 32.248 184.495 29.656V15.016H181.375V10.552H184.495V3.976H190.015V10.552H196.447V15.016H190.015ZM204.275 7.048C203.283 7.048 202.451 6.712 201.779 6.04C201.107 5.368 200.771 4.536 200.771 3.544C200.771 2.552 201.107 1.72 201.779 1.048C202.451 0.375998 203.283 0.0399981 204.275 0.0399981C205.235 0.0399981 206.051 0.375998 206.723 1.048C207.395 1.72 207.731 2.552 207.731 3.544C207.731 4.536 207.395 5.368 206.723 6.04C206.051 6.712 205.235 7.048 204.275 7.048ZM206.963 10.552V37H201.491V10.552H206.963ZM223.747 37.432C221.667 37.432 219.795 37.064 218.131 36.328C216.499 35.56 215.203 34.536 214.243 33.256C213.283 31.944 212.771 30.488 212.707 28.888H218.371C218.467 30.008 218.995 30.952 219.955 31.72C220.947 32.456 222.179 32.824 223.651 32.824C225.187 32.824 226.371 32.536 227.203 31.96C228.067 31.352 228.499 30.584 228.499 29.656C228.499 28.664 228.019 27.928 227.059 27.448C226.131 26.968 224.643 26.44 222.595 25.864C220.611 25.32 218.995 24.792 217.747 24.28C216.499 23.768 215.411 22.984 214.483 21.928C213.587 20.872 213.139 19.48 213.139 17.752C213.139 16.344 213.555 15.064 214.387 13.912C215.219 12.728 216.403 11.8 217.939 11.128C219.507 10.456 221.299 10.12 223.315 10.12C226.323 10.12 228.739 10.888 230.563 12.424C232.419 13.928 233.411 15.992 233.539 18.616H228.067C227.971 17.432 227.491 16.488 226.627 15.784C225.763 15.08 224.595 14.728 223.123 14.728C221.683 14.728 220.579 15 219.811 15.544C219.043 16.088 218.659 16.808 218.659 17.704C218.659 18.408 218.915 19 219.427 19.48C219.939 19.96 220.563 20.344 221.299 20.632C222.035 20.888 223.123 21.224 224.563 21.64C226.483 22.152 228.051 22.68 229.267 23.224C230.515 23.736 231.587 24.504 232.483 25.528C233.379 26.552 233.843 27.912 233.875 29.608C233.875 31.112 233.459 32.456 232.627 33.64C231.795 34.824 230.611 35.752 229.075 36.424C227.571 37.096 225.795 37.432 223.747 37.432ZM246.172 15.016V29.656C246.172 30.648 246.396 31.368 246.844 31.816C247.324 32.232 248.124 32.44 249.244 32.44H252.604V37H248.284C245.82 37 243.932 36.424 242.62 35.272C241.308 34.12 240.652 32.248 240.652 29.656V15.016H237.532V10.552H240.652V3.976H246.172V10.552H252.604V15.016H246.172ZM263.119 14.392C263.919 13.048 264.975 12.008 266.287 11.272C267.631 10.504 269.215 10.12 271.039 10.12V15.784H269.647C267.503 15.784 265.871 16.328 264.751 17.416C263.663 18.504 263.119 20.392 263.119 23.08V37H257.647V10.552H263.119V14.392ZM299.877 10.552L283.653 49.432H277.989L283.365 36.568L272.949 10.552H279.045L286.485 30.712L294.213 10.552H299.877Z"/>
</mask>
<path d="M24.152 3.64H25.152V2.64H24.152V3.64ZM24.152 8.104V9.104H25.152V8.104H24.152ZM15.272 8.104V7.104H14.272V8.104H15.272ZM15.272 37V38H16.272V37H15.272ZM9.8 37H8.8V38H9.8V37ZM9.8 8.104H10.8V7.104H9.8V8.104ZM0.872 8.104H-0.128V9.104H0.872V8.104ZM0.872 3.64V2.64H-0.128V3.64H0.872ZM23.152 3.64V8.104H25.152V3.64H23.152ZM24.152 7.104H15.272V9.104H24.152V7.104ZM14.272 8.104V37H16.272V8.104H14.272ZM15.272 36H9.8V38H15.272V36ZM10.8 37V8.104H8.8V37H10.8ZM9.8 7.104H0.872V9.104H9.8V7.104ZM1.872 8.104V3.64H-0.128V8.104H1.872ZM0.872 4.64H24.152V2.64H0.872V4.64ZM53.7418 25.816V26.816H54.5945L54.7292 25.974L53.7418 25.816ZM33.5337 25.816V24.816H32.4551L32.5366 25.8915L33.5337 25.816ZM35.8857 30.904L35.2131 31.6439L35.8857 30.904ZM47.3098 29.128V28.128H46.6881L46.413 28.6855L47.3098 29.128ZM53.2137 29.128L54.1637 29.4405L54.5954 28.128H53.2137V29.128ZM48.8458 35.128L49.4398 35.9324L49.4419 35.9309L48.8458 35.128ZM34.2537 35.752L33.7516 36.6168L33.7598 36.6216L33.7681 36.6262L34.2537 35.752ZM29.5497 30.952L28.6693 31.4261L28.6737 31.4342L28.6782 31.4423L29.5497 30.952ZM29.5018 16.6L28.6213 16.1259L28.6186 16.1308L29.5018 16.6ZM34.1577 11.8L33.6721 10.9258L33.6662 10.9292L34.1577 11.8ZM47.7418 11.752L48.2286 10.8785L47.7418 11.752ZM52.3018 16.36L51.4249 16.8408L51.4283 16.8469L52.3018 16.36ZM48.2218 21.4V22.4H49.2378L49.2216 21.3841L48.2218 21.4ZM46.0618 16.552L46.7154 15.7952L46.0618 16.552ZM35.9818 16.552L36.6428 17.3024L36.6527 17.2935L35.9818 16.552ZM33.5817 21.4L32.5895 21.276L32.449 22.4H33.5817V21.4ZM52.9338 23.128C52.9338 24.0784 52.8723 24.9203 52.7543 25.658L54.7292 25.974C54.8672 25.1117 54.9338 24.1616 54.9338 23.128H52.9338ZM53.7418 24.816H33.5337V26.816H53.7418V24.816ZM32.5366 25.8915C32.7135 28.227 33.594 30.1721 35.2131 31.6439L36.5584 30.1641C35.3615 29.0759 34.674 27.629 34.5309 25.7405L32.5366 25.8915ZM35.2131 31.6439C36.8199 33.1047 38.7937 33.824 41.0698 33.824V31.824C39.2498 31.824 37.7676 31.2633 36.5584 30.1641L35.2131 31.6439ZM41.0698 33.824C42.6821 33.824 44.1227 33.4858 45.3474 32.7604C46.5762 32.0326 47.5248 30.952 48.2065 29.5705L46.413 28.6855C45.8787 29.768 45.1793 30.5354 44.3281 31.0396C43.4728 31.5462 42.4014 31.824 41.0698 31.824V33.824ZM47.3098 30.128H53.2137V28.128H47.3098V30.128ZM52.2638 28.8155C51.5302 31.0458 50.2008 32.8765 48.2497 34.3251L49.4419 35.9309C51.7147 34.2435 53.2973 32.0742 54.1637 29.4405L52.2638 28.8155ZM48.2517 34.3236C46.376 35.7087 44.0039 36.432 41.0698 36.432V38.432C44.3436 38.432 47.1555 37.6193 49.4398 35.9324L48.2517 34.3236ZM41.0698 36.432C38.6949 36.432 36.5928 35.9075 34.7394 34.8778L33.7681 36.6262C35.9467 37.8365 38.3886 38.432 41.0698 38.432V36.432ZM34.7559 34.8872C32.9301 33.8271 31.488 32.3581 30.4213 30.4617L28.6782 31.4423C29.9155 33.6419 31.6094 35.3729 33.7516 36.6168L34.7559 34.8872ZM30.4302 30.4779C29.3998 28.5643 28.8698 26.3318 28.8698 23.752H26.8698C26.8698 26.6122 27.4597 29.1797 28.6693 31.4261L30.4302 30.4779ZM28.8698 23.752C28.8698 21.1673 29.3859 18.9496 30.3849 17.0692L28.6186 16.1308C27.4416 18.3464 26.8698 20.8967 26.8698 23.752H28.8698ZM30.3822 17.0741C31.4161 15.154 32.8361 13.6944 34.6493 12.6708L33.6662 10.9292C31.5114 12.1456 29.8274 13.886 28.6213 16.1259L30.3822 17.0741ZM34.6434 12.6742C36.4932 11.6465 38.6263 11.12 41.0698 11.12V9.12C38.3292 9.12 35.8543 9.71349 33.6721 10.9258L34.6434 12.6742ZM41.0698 11.12C43.4156 11.12 45.4685 11.6298 47.2549 12.6255L48.2286 10.8785C46.111 9.69819 43.7159 9.12 41.0698 9.12V11.12ZM47.2549 12.6255C49.0404 13.6207 50.4262 15.0196 51.4249 16.8408L53.1786 15.8792C52.0013 13.7324 50.3471 12.0593 48.2286 10.8785L47.2549 12.6255ZM51.4283 16.8469C52.4219 18.6295 52.9338 20.7133 52.9338 23.128H54.9338C54.9338 20.4227 54.3576 17.9945 53.1752 15.8731L51.4283 16.8469ZM49.2216 21.3841C49.1855 19.1099 48.3586 17.2144 46.7154 15.7952L45.4081 17.3088C46.5809 18.3216 47.194 19.6581 47.2219 21.4159L49.2216 21.3841ZM46.7154 15.7952C45.104 14.4036 43.1194 13.728 40.8298 13.728V15.728C42.7001 15.728 44.2035 16.2684 45.4081 17.3088L46.7154 15.7952ZM40.8298 13.728C38.7052 13.728 36.8469 14.4207 35.3108 15.8105L36.6527 17.2935C37.8046 16.2513 39.1783 15.728 40.8298 15.728V13.728ZM35.3207 15.8016C33.7659 17.1714 32.8708 19.025 32.5895 21.276L34.574 21.524C34.8047 19.679 35.5096 18.3006 36.6428 17.3024L35.3207 15.8016ZM33.5817 22.4H48.2218V20.4H33.5817V22.4ZM59.1268 16.6L58.2463 16.1259L58.2436 16.1308L59.1268 16.6ZM63.7347 11.8L63.2371 10.9326V10.9326L63.7347 11.8ZM78.3747 12.424L77.7807 13.2284L77.7877 13.2336L77.7947 13.2386L78.3747 12.424ZM82.6468 18.904V19.904H83.9417L83.6143 18.6511L82.6468 18.904ZM76.7428 18.904L75.8036 19.2476L76.0438 19.904H76.7428V18.904ZM65.0788 17.128L64.313 16.4848L64.3118 16.4863L65.0788 17.128ZM65.0788 30.424L64.3054 31.0581L64.313 31.0672L65.0788 30.424ZM76.7428 28.648V27.648H76.0451L75.8042 28.3028L76.7428 28.648ZM82.6468 28.648L83.6083 28.9227L83.9725 27.648H82.6468V28.648ZM78.3268 35.08L78.9229 35.8829L78.9306 35.8771L78.3268 35.08ZM63.7347 35.752L63.2265 36.6133L63.2371 36.6194L63.7347 35.752ZM59.1268 30.952L58.2407 31.4155L58.2449 31.4237L58.2494 31.4318L59.1268 30.952ZM58.4948 23.752C58.4948 21.1673 59.0109 18.9496 60.0099 17.0692L58.2436 16.1308C57.0666 18.3464 56.4948 20.8967 56.4948 23.752H58.4948ZM60.0072 17.0741C61.0434 15.1498 62.4504 13.6898 64.2324 12.6674L63.2371 10.9326C61.1151 12.1502 59.4501 13.8902 58.2463 16.1259L60.0072 17.0741ZM64.2324 12.6674C66.015 11.6446 68.0794 11.12 70.4548 11.12V9.12C67.7741 9.12 65.3585 9.71541 63.2371 10.9326L64.2324 12.6674ZM70.4548 11.12C73.4926 11.12 75.9101 11.847 77.7807 13.2284L78.9688 11.6196C76.6794 9.92896 73.8169 9.12 70.4548 9.12V11.12ZM77.7947 13.2386C79.6922 14.5898 80.9948 16.5381 81.6793 19.1569L83.6143 18.6511C82.8267 15.6379 81.2813 13.2662 78.9548 11.6094L77.7947 13.2386ZM82.6468 17.904H76.7428V19.904H82.6468V17.904ZM77.6819 18.5604C77.1376 17.0728 76.2496 15.8752 75.0105 15.0116L73.867 16.6524C74.7399 17.2608 75.3879 18.1112 75.8036 19.2476L77.6819 18.5604ZM75.0105 15.0116C73.7499 14.133 72.2091 13.728 70.4548 13.728V15.728C71.9004 15.728 73.0156 16.059 73.867 16.6524L75.0105 15.0116ZM70.4548 13.728C67.9436 13.728 65.8621 14.6407 64.313 16.4848L65.8445 17.7712C66.9834 16.4153 68.4859 15.728 70.4548 15.728V13.728ZM64.3118 16.4863C62.7995 18.2937 62.1108 20.7608 62.1108 23.752H64.1107C64.1107 21.0472 64.734 19.0983 65.8457 17.7697L64.3118 16.4863ZM62.1108 23.752C62.1108 26.7448 62.8001 29.2223 64.3055 31.0581L65.852 29.7899C64.7334 28.4257 64.1107 26.4552 64.1107 23.752H62.1108ZM64.313 31.0672C65.8621 32.9113 67.9436 33.824 70.4548 33.824V31.824C68.4859 31.824 66.9834 31.1367 65.8445 29.7808L64.313 31.0672ZM70.4548 33.824C72.1846 33.824 73.7062 33.443 74.956 32.613C76.2111 31.7795 77.1095 30.5478 77.6813 28.9932L75.8042 28.3028C75.352 29.5322 74.6904 30.3885 73.8495 30.947C73.0033 31.509 71.8929 31.824 70.4548 31.824V33.824ZM76.7428 29.648H82.6468V27.648H76.7428V29.648ZM81.6852 28.3733C80.9732 30.8653 79.6524 32.8212 77.7229 34.2829L78.9306 35.8771C81.2251 34.1388 82.7843 31.8067 83.6083 28.9227L81.6852 28.3733ZM77.7307 34.2771C75.8223 35.6939 73.4185 36.432 70.4548 36.432V38.432C73.763 38.432 76.6072 37.6021 78.9229 35.8829L77.7307 34.2771ZM70.4548 36.432C68.0794 36.432 66.015 35.9074 64.2324 34.8846L63.2371 36.6194C65.3585 37.8366 67.7741 38.432 70.4548 38.432V36.432ZM64.243 34.8908C62.4509 33.8332 61.0404 32.3671 60.0041 30.4722L58.2494 31.4318C59.4531 33.6329 61.1146 35.3668 63.2265 36.6132L64.243 34.8908ZM60.0128 30.4885C59.0107 28.5727 58.4948 26.3363 58.4948 23.752H56.4948C56.4948 26.6077 57.0668 29.1713 58.2407 31.4155L60.0128 30.4885ZM107.156 11.416L106.673 12.2919L106.681 12.2959L107.156 11.416ZM110.9 15.256L110.016 15.7231L110.019 15.7296L110.023 15.736L110.9 15.256ZM112.292 37V38H113.292V37H112.292ZM106.868 37H105.868V38H106.868V37ZM105.092 16.792L104.358 17.4711L104.367 17.4803L105.092 16.792ZM95.348 16.792L94.623 16.1032L94.6225 16.1037L95.348 16.792ZM93.572 37V38H94.572V37H93.572ZM88.1 37H87.1V38H88.1V37ZM88.1 1.48V0.48H87.1V1.48H88.1ZM93.572 1.48H94.572V0.48H93.572V1.48ZM93.572 13.624H92.572V16.3983L94.342 14.262L93.572 13.624ZM97.076 11.032L96.687 10.1107L96.6796 10.1139L97.076 11.032ZM101.78 11.12C103.649 11.12 105.271 11.5191 106.673 12.2918L107.639 10.5402C105.905 9.58488 103.943 9.12 101.78 9.12V11.12ZM106.681 12.2959C108.097 13.0605 109.207 14.1921 110.016 15.7231L111.784 14.7889C110.801 12.9279 109.415 11.4995 107.631 10.5361L106.681 12.2959ZM110.023 15.736C110.853 17.2534 111.292 19.1278 111.292 21.4H113.292C113.292 18.8722 112.803 16.6506 111.777 14.776L110.023 15.736ZM111.292 21.4V37H113.292V21.4H111.292ZM112.292 36H106.868V38H112.292V36ZM107.868 37V22.216H105.868V37H107.868ZM107.868 22.216C107.868 19.6896 107.235 17.598 105.817 16.1037L104.367 17.4803C105.317 18.482 105.868 20.0064 105.868 22.216H107.868ZM105.826 16.113C104.42 14.5924 102.518 13.872 100.244 13.872V15.872C102.066 15.872 103.396 16.4316 104.358 17.471L105.826 16.113ZM100.244 13.872C97.9697 13.872 96.0584 14.5923 94.623 16.1032L96.073 17.4807C97.0696 16.4317 98.4223 15.872 100.244 15.872V13.872ZM94.6225 16.1037C93.2049 17.598 92.572 19.6896 92.572 22.216H94.572C94.572 20.0064 95.1231 18.482 96.0735 17.4803L94.6225 16.1037ZM92.572 22.216V37H94.572V22.216H92.572ZM93.572 36H88.1V38H93.572V36ZM89.1 37V1.48H87.1V37H89.1ZM88.1 2.48H93.572V0.48H88.1V2.48ZM92.572 1.48V13.624H94.572V1.48H92.572ZM94.342 14.262C95.1638 13.2702 96.2012 12.499 97.4724 11.9501L96.6796 10.1139C95.1348 10.781 93.8362 11.7378 92.802 12.986L94.342 14.262ZM97.465 11.9532C98.7717 11.4015 100.206 11.12 101.78 11.12V9.12C99.9618 9.12 98.2603 9.4465 96.687 10.1108L97.465 11.9532ZM151.853 30.184L152.796 29.8519L152.561 29.184H151.853V30.184ZM137.885 30.184V29.184H137.177L136.941 29.8519L137.885 30.184ZM135.485 37V38H136.193L136.428 37.3321L135.485 37ZM129.773 37L128.831 36.6632L128.353 38H129.773V37ZM141.725 3.592V2.592H141.02L140.783 3.25515L141.725 3.592ZM148.061 3.592L149.002 3.25515L148.765 2.592H148.061V3.592ZM160.013 37V38H161.432L160.954 36.6632L160.013 37ZM154.253 37L153.309 37.3321L153.545 38H154.253V37ZM150.317 25.72V26.72H151.726L151.261 25.3898L150.317 25.72ZM144.893 10.216L145.837 9.88578L144.897 7.1996L143.95 9.88318L144.893 10.216ZM139.421 25.72L138.478 25.3872L138.007 26.72H139.421V25.72ZM151.853 29.184H137.885V31.184H151.853V29.184ZM136.941 29.8519L134.541 36.6679L136.428 37.3321L138.828 30.5161L136.941 29.8519ZM135.485 36H129.773V38H135.485V36ZM130.714 37.3368L142.666 3.92885L140.783 3.25515L128.831 36.6632L130.714 37.3368ZM141.725 4.592H148.061V2.592H141.725V4.592ZM147.119 3.92885L159.071 37.3368L160.954 36.6632L149.002 3.25515L147.119 3.92885ZM160.013 36H154.253V38H160.013V36ZM155.196 36.6679L152.796 29.8519L150.909 30.5161L153.309 37.3321L155.196 36.6679ZM151.261 25.3898L145.837 9.88578L143.949 10.5462L149.373 26.0502L151.261 25.3898ZM143.95 9.88318L138.478 25.3872L140.364 26.0528L145.836 10.5488L143.95 9.88318ZM139.421 26.72H150.317V24.72H139.421V26.72ZM170.681 14.392H169.681V18.0271L171.541 14.9035L170.681 14.392ZM173.849 11.272L174.339 12.1442L174.346 12.1402L173.849 11.272ZM178.601 10.12H179.601V9.12H178.601V10.12ZM178.601 15.784V16.784H179.601V15.784H178.601ZM172.313 17.416L171.617 16.6987L171.611 16.7038L171.606 16.7089L172.313 17.416ZM170.681 37V38H171.681V37H170.681ZM165.209 37H164.209V38H165.209V37ZM165.209 10.552V9.552H164.209V10.552H165.209ZM170.681 10.552H171.681V9.552H170.681V10.552ZM171.541 14.9035C172.255 13.7038 173.186 12.7909 174.339 12.1441L173.36 10.3999C171.889 11.2251 170.708 12.3922 169.822 13.8805L171.541 14.9035ZM174.346 12.1402C175.513 11.4729 176.92 11.12 178.601 11.12V9.12C176.635 9.12 174.873 9.53515 173.353 10.4038L174.346 12.1402ZM177.601 10.12V15.784H179.601V10.12H177.601ZM178.601 14.784H177.209V16.784H178.601V14.784ZM177.209 14.784C174.904 14.784 172.984 15.3706 171.617 16.6987L173.01 18.1333C173.883 17.2854 175.227 16.784 177.209 16.784V14.784ZM171.606 16.7089C170.232 18.0832 169.681 20.3102 169.681 23.08H171.681C171.681 20.4738 172.219 18.9248 173.02 18.1231L171.606 16.7089ZM169.681 23.08V37H171.681V23.08H169.681ZM170.681 36H165.209V38H170.681V36ZM166.209 37V10.552H164.209V37H166.209ZM165.209 11.552H170.681V9.552H165.209V11.552ZM169.681 10.552V14.392H171.681V10.552H169.681ZM190.015 15.016V14.016H189.015V15.016H190.015ZM190.687 31.816L189.98 32.5231L190.005 32.5483L190.032 32.5717L190.687 31.816ZM196.447 32.44H197.447V31.44H196.447V32.44ZM196.447 37V38H197.447V37H196.447ZM186.463 35.272L185.803 36.0234L186.463 35.272ZM184.495 15.016H185.495V14.016H184.495V15.016ZM181.375 15.016H180.375V16.016H181.375V15.016ZM181.375 10.552V9.552H180.375V10.552H181.375ZM184.495 10.552V11.552H185.495V10.552H184.495ZM184.495 3.976V2.976H183.495V3.976H184.495ZM190.015 3.976H191.015V2.976H190.015V3.976ZM190.015 10.552H189.015V11.552H190.015V10.552ZM196.447 10.552H197.447V9.552H196.447V10.552ZM196.447 15.016V16.016H197.447V15.016H196.447ZM189.015 15.016V29.656H191.015V15.016H189.015ZM189.015 29.656C189.015 30.7675 189.262 31.805 189.98 32.5231L191.394 31.1089C191.217 30.931 191.015 30.5285 191.015 29.656H189.015ZM190.032 32.5717C190.789 33.2276 191.893 33.44 193.087 33.44V31.44C192.042 31.44 191.545 31.2364 191.342 31.0603L190.032 32.5717ZM193.087 33.44H196.447V31.44H193.087V33.44ZM195.447 32.44V37H197.447V32.44H195.447ZM196.447 36H192.127V38H196.447V36ZM192.127 36C189.807 36 188.19 35.4572 187.123 34.5206L185.803 36.0234C187.361 37.3908 189.52 38 192.127 38V36ZM187.123 34.5206C186.115 33.6351 185.495 32.1015 185.495 29.656H183.495C183.495 32.3945 184.188 34.6049 185.803 36.0234L187.123 34.5206ZM185.495 29.656V15.016H183.495V29.656H185.495ZM184.495 14.016H181.375V16.016H184.495V14.016ZM182.375 15.016V10.552H180.375V15.016H182.375ZM181.375 11.552H184.495V9.552H181.375V11.552ZM185.495 10.552V3.976H183.495V10.552H185.495ZM184.495 4.976H190.015V2.976H184.495V4.976ZM189.015 3.976V10.552H191.015V3.976H189.015ZM190.015 11.552H196.447V9.552H190.015V11.552ZM195.447 10.552V15.016H197.447V10.552H195.447ZM196.447 14.016H190.015V16.016H196.447V14.016ZM201.779 6.04L202.486 5.33289V5.33289L201.779 6.04ZM201.779 1.048L202.486 1.75511V1.75511L201.779 1.048ZM206.723 1.048L206.016 1.75511V1.75511L206.723 1.048ZM206.723 6.04L206.016 5.33289V5.33289L206.723 6.04ZM206.963 10.552H207.963V9.552H206.963V10.552ZM206.963 37V38H207.963V37H206.963ZM201.491 37H200.491V38H201.491V37ZM201.491 10.552V9.552H200.491V10.552H201.491ZM204.275 6.048C203.535 6.048 202.961 5.80839 202.486 5.33289L201.072 6.7471C201.94 7.61561 203.03 8.048 204.275 8.048V6.048ZM202.486 5.33289C202.01 4.85739 201.771 4.28374 201.771 3.544H199.771C199.771 4.78826 200.203 5.8786 201.072 6.7471L202.486 5.33289ZM201.771 3.544C201.771 2.80426 202.01 2.2306 202.486 1.75511L201.072 0.340892C200.203 1.20939 199.771 2.29974 199.771 3.544H201.771ZM202.486 1.75511C202.961 1.27961 203.535 1.04 204.275 1.04V-0.960002C203.03 -0.960002 201.94 -0.527611 201.072 0.340893L202.486 1.75511ZM204.275 1.04C204.972 1.04 205.533 1.27277 206.016 1.75511L207.43 0.340893C206.568 -0.520774 205.497 -0.960002 204.275 -0.960002V1.04ZM206.016 1.75511C206.491 2.2306 206.731 2.80426 206.731 3.544H208.731C208.731 2.29974 208.298 1.20939 207.43 0.340892L206.016 1.75511ZM206.731 3.544C206.731 4.28374 206.491 4.85739 206.016 5.33289L207.43 6.7471C208.298 5.8786 208.731 4.78826 208.731 3.544H206.731ZM206.016 5.33289C205.533 5.81523 204.972 6.048 204.275 6.048V8.048C205.497 8.048 206.568 7.60877 207.43 6.7471L206.016 5.33289ZM205.963 10.552V37H207.963V10.552H205.963ZM206.963 36H201.491V38H206.963V36ZM202.491 37V10.552H200.491V37H202.491ZM201.491 11.552H206.963V9.552H201.491V11.552ZM218.131 36.328L217.705 37.2328L217.716 37.2378L217.726 37.2425L218.131 36.328ZM214.243 33.256L213.436 33.8465L213.443 33.856L214.243 33.256ZM212.707 28.888V27.888H211.666L211.708 28.928L212.707 28.888ZM218.371 28.888L219.367 28.8026L219.289 27.888H218.371V28.888ZM219.955 31.72L219.33 32.5009L219.344 32.5122L219.359 32.5231L219.955 31.72ZM227.203 31.96L227.772 32.7822L227.778 32.7778L227.203 31.96ZM227.059 27.448L226.599 28.3363L226.612 28.3424L227.059 27.448ZM222.595 25.864L222.866 24.9013L222.859 24.8996L222.595 25.864ZM217.747 24.28L217.367 25.2052L217.747 24.28ZM214.483 21.928L213.72 22.575L213.726 22.5816L213.732 22.5881L214.483 21.928ZM214.387 13.912L215.198 14.4975L215.205 14.4869L214.387 13.912ZM217.939 11.128L217.545 10.2088L217.538 10.2118L217.939 11.128ZM230.563 12.424L229.919 13.1889L229.926 13.195L229.933 13.2009L230.563 12.424ZM233.539 18.616V19.616H234.589L234.538 18.5673L233.539 18.616ZM228.067 18.616L227.07 18.6968L227.145 19.616H228.067V18.616ZM226.627 15.784L227.259 15.0088L226.627 15.784ZM219.811 15.544L219.233 14.728L219.811 15.544ZM219.427 19.48L218.743 20.2095V20.2095L219.427 19.48ZM221.299 20.632L220.934 21.5632L220.952 21.5702L220.97 21.5765L221.299 20.632ZM224.563 21.64L224.285 22.6007L224.295 22.6036L224.305 22.6062L224.563 21.64ZM229.267 23.224L228.859 24.1368L228.873 24.1432L228.887 24.1492L229.267 23.224ZM232.483 25.528L231.73 26.1865L232.483 25.528ZM233.875 29.608H234.875V29.5986L234.875 29.5891L233.875 29.608ZM232.627 33.64L231.809 33.0651L232.627 33.64ZM229.075 36.424L228.674 35.5078L228.667 35.511L229.075 36.424ZM223.747 36.432C221.786 36.432 220.055 36.0856 218.535 35.4135L217.726 37.2425C219.535 38.0424 221.547 38.432 223.747 38.432V36.432ZM218.557 35.4232C217.053 34.7157 215.893 33.7895 215.043 32.656L213.443 33.856C214.513 35.2825 215.944 36.4043 217.705 37.2328L218.557 35.4232ZM215.05 32.6655C214.205 31.5112 213.762 30.2463 213.706 28.848L211.708 28.928C211.78 30.7297 212.36 32.3768 213.436 33.8465L215.05 32.6655ZM212.707 29.888H218.371V27.888H212.707V29.888ZM217.375 28.9734C217.496 30.3935 218.178 31.5795 219.33 32.5009L220.58 30.9391C219.811 30.3245 219.438 29.6225 219.367 28.8026L217.375 28.9734ZM219.359 32.5231C220.555 33.4101 222.007 33.824 223.651 33.824V31.824C222.351 31.824 221.339 31.5019 220.551 30.9169L219.359 32.5231ZM223.651 33.824C225.292 33.824 226.707 33.5197 227.772 32.7822L226.634 31.1378C226.035 31.5523 225.082 31.824 223.651 31.824V33.824ZM227.778 32.7778C228.866 32.0125 229.499 30.9583 229.499 29.656H227.499C227.499 30.2097 227.268 30.6915 226.627 31.1422L227.778 32.7778ZM229.499 29.656C229.499 28.9918 229.336 28.3646 228.976 27.8137C228.62 27.2674 228.11 26.8554 227.506 26.5536L226.612 28.3424C226.968 28.5206 227.178 28.7166 227.301 28.9063C227.422 29.0914 227.499 29.3282 227.499 29.656H229.499ZM227.518 26.5598C226.496 26.0309 224.926 25.4809 222.866 24.9013L222.324 26.8266C224.359 27.3991 225.766 27.9051 226.599 28.3362L227.518 26.5598ZM222.859 24.8996C220.896 24.3614 219.323 23.8457 218.126 23.3548L217.367 25.2052C218.667 25.7383 220.325 26.2786 222.33 26.8284L222.859 24.8996ZM218.126 23.3548C217.027 22.9038 216.065 22.2131 215.234 21.2679L213.732 22.5881C214.757 23.7549 215.971 24.6322 217.367 25.2052L218.126 23.3548ZM215.245 21.281C214.538 20.4471 214.139 19.3036 214.139 17.752H212.139C212.139 19.6564 212.636 21.2969 213.72 22.575L215.245 21.281ZM214.139 17.752C214.139 16.5563 214.487 15.4808 215.198 14.4975L213.576 13.3265C212.622 14.6472 212.139 16.1317 212.139 17.752H214.139ZM215.205 14.4869C215.916 13.4752 216.944 12.6546 218.34 12.0442L217.538 10.2118C215.861 10.9454 214.522 11.9808 213.569 13.3371L215.205 14.4869ZM218.333 12.0471C219.756 11.4373 221.41 11.12 223.315 11.12V9.12C221.188 9.12 219.258 9.47472 217.545 10.2089L218.333 12.0471ZM223.315 11.12C226.15 11.12 228.318 11.8411 229.919 13.1889L231.207 11.6591C229.16 9.93495 226.495 9.12 223.315 9.12V11.12ZM229.933 13.2009C231.545 14.5067 232.424 16.2932 232.54 18.6647L234.538 18.5673C234.397 15.6908 233.293 13.3493 231.192 11.6471L229.933 13.2009ZM233.539 17.616H228.067V19.616H233.539V17.616ZM229.064 18.5352C228.947 17.0996 228.349 15.8971 227.259 15.0088L225.995 16.5592C226.633 17.0789 226.995 17.7644 227.07 18.6968L229.064 18.5352ZM227.259 15.0088C226.166 14.1185 224.751 13.728 223.123 13.728V15.728C224.439 15.728 225.36 16.0415 225.995 16.5592L227.259 15.0088ZM223.123 13.728C221.579 13.728 220.238 14.0161 219.233 14.728L220.389 16.36C220.92 15.9839 221.787 15.728 223.123 15.728V13.728ZM219.233 14.728C218.216 15.4483 217.659 16.4648 217.659 17.704H219.659C219.659 17.1512 219.87 16.7277 220.389 16.36L219.233 14.728ZM217.659 17.704C217.659 18.6834 218.029 19.5398 218.743 20.2095L220.111 18.7505C219.801 18.4602 219.659 18.1326 219.659 17.704H217.659ZM218.743 20.2095C219.359 20.7868 220.095 21.2347 220.934 21.5632L221.663 19.7008C221.031 19.4533 220.519 19.1332 220.111 18.7505L218.743 20.2095ZM220.97 21.5765C221.732 21.8415 222.841 22.1834 224.285 22.6007L224.84 20.6793C223.405 20.2646 222.338 19.9345 221.627 19.6875L220.97 21.5765ZM224.305 22.6062C226.196 23.1105 227.709 23.6224 228.859 24.1368L229.675 22.3112C228.393 21.7376 226.77 21.1935 224.821 20.6738L224.305 22.6062ZM228.887 24.1492C229.991 24.6018 230.935 25.278 231.73 26.1865L233.235 24.8695C232.238 23.73 231.039 22.8702 229.646 22.2988L228.887 24.1492ZM231.73 26.1865C232.436 26.9927 232.846 28.1066 232.875 29.6269L234.875 29.5891C234.839 27.7174 234.322 26.1113 233.235 24.8695L231.73 26.1865ZM232.875 29.608C232.875 30.9148 232.518 32.0563 231.809 33.0651L233.445 34.2149C234.4 32.8557 234.875 31.3092 234.875 29.608H232.875ZM231.809 33.0651C231.098 34.0768 230.069 34.8974 228.674 35.5078L229.476 37.3402C231.152 36.6066 232.492 35.5712 233.445 34.2149L231.809 33.0651ZM228.667 35.511C227.318 36.1135 225.688 36.432 223.747 36.432V38.432C225.902 38.432 227.823 38.0785 229.483 37.337L228.667 35.511ZM246.171 15.016V14.016H245.171V15.016H246.171ZM246.844 31.816L246.136 32.5231L246.162 32.5483L246.189 32.5717L246.844 31.816ZM252.604 32.44H253.604V31.44H252.604V32.44ZM252.604 37V38H253.604V37H252.604ZM242.62 35.272L241.96 36.0234L242.62 35.272ZM240.652 15.016H241.652V14.016H240.652V15.016ZM237.531 15.016H236.531V16.016H237.531V15.016ZM237.531 10.552V9.552H236.531V10.552H237.531ZM240.652 10.552V11.552H241.652V10.552H240.652ZM240.652 3.976V2.976H239.652V3.976H240.652ZM246.171 3.976H247.171V2.976H246.171V3.976ZM246.171 10.552H245.171V11.552H246.171V10.552ZM252.604 10.552H253.604V9.552H252.604V10.552ZM252.604 15.016V16.016H253.604V15.016H252.604ZM245.171 15.016V29.656H247.171V15.016H245.171ZM245.171 29.656C245.171 30.7675 245.418 31.805 246.136 32.5231L247.551 31.1089C247.373 30.931 247.171 30.5285 247.171 29.656H245.171ZM246.189 32.5717C246.945 33.2276 248.049 33.44 249.243 33.44V31.44C248.198 31.44 247.702 31.2364 247.498 31.0603L246.189 32.5717ZM249.243 33.44H252.604V31.44H249.243V33.44ZM251.604 32.44V37H253.604V32.44H251.604ZM252.604 36H248.283V38H252.604V36ZM248.283 36C245.963 36 244.346 35.4572 243.279 34.5206L241.96 36.0234C243.517 37.3908 245.676 38 248.283 38V36ZM243.279 34.5206C242.271 33.6351 241.652 32.1015 241.652 29.656H239.652C239.652 32.3945 240.344 34.6049 241.96 36.0234L243.279 34.5206ZM241.652 29.656V15.016H239.652V29.656H241.652ZM240.652 14.016H237.531V16.016H240.652V14.016ZM238.531 15.016V10.552H236.531V15.016H238.531ZM237.531 11.552H240.652V9.552H237.531V11.552ZM241.652 10.552V3.976H239.652V10.552H241.652ZM240.652 4.976H246.171V2.976H240.652V4.976ZM245.171 3.976V10.552H247.171V3.976H245.171ZM246.171 11.552H252.604V9.552H246.171V11.552ZM251.604 10.552V15.016H253.604V10.552H251.604ZM252.604 14.016H246.171V16.016H252.604V14.016ZM263.119 14.392H262.119V18.0271L263.978 14.9035L263.119 14.392ZM266.287 11.272L266.776 12.1442L266.783 12.1402L266.287 11.272ZM271.039 10.12H272.039V9.12H271.039V10.12ZM271.039 15.784V16.784H272.039V15.784H271.039ZM264.751 17.416L264.054 16.6987L264.049 16.7038L264.044 16.7089L264.751 17.416ZM263.119 37V38H264.119V37H263.119ZM257.647 37H256.647V38H257.647V37ZM257.647 10.552V9.552H256.647V10.552H257.647ZM263.119 10.552H264.119V9.552H263.119V10.552ZM263.978 14.9035C264.692 13.7038 265.623 12.7909 266.776 12.1441L265.798 10.3999C264.327 11.2251 263.145 12.3922 262.26 13.8805L263.978 14.9035ZM266.783 12.1402C267.951 11.4729 269.358 11.12 271.039 11.12V9.12C269.072 9.12 267.311 9.53515 265.791 10.4038L266.783 12.1402ZM270.039 10.12V15.784H272.039V10.12H270.039ZM271.039 14.784H269.647V16.784H271.039V14.784ZM269.647 14.784C267.341 14.784 265.421 15.3706 264.054 16.6987L265.448 18.1333C266.32 17.2854 267.664 16.784 269.647 16.784V14.784ZM264.044 16.7089C262.669 18.0832 262.119 20.3102 262.119 23.08H264.119C264.119 20.4738 264.656 18.9248 265.458 18.1231L264.044 16.7089ZM262.119 23.08V37H264.119V23.08H262.119ZM263.119 36H257.647V38H263.119V36ZM258.647 37V10.552H256.647V37H258.647ZM257.647 11.552H263.119V9.552H257.647V11.552ZM262.119 10.552V14.392H264.119V10.552H262.119ZM299.877 10.552L300.8 10.9371L301.378 9.552H299.877V10.552ZM283.653 49.432V50.432H284.319L284.576 49.8171L283.653 49.432ZM277.989 49.432L277.066 49.0464L276.487 50.432H277.989V49.432ZM283.365 36.568L284.287 36.9536L284.445 36.5761L284.293 36.1963L283.365 36.568ZM272.949 10.552V9.552H271.471L272.02 10.9237L272.949 10.552ZM279.045 10.552L279.983 10.2058L279.742 9.552H279.045V10.552ZM286.485 30.712L285.547 31.0582L286.467 33.5522L287.418 31.0699L286.485 30.712ZM294.213 10.552V9.552H293.525L293.279 10.1941L294.213 10.552ZM298.954 10.1669L282.73 49.0469L284.576 49.8171L300.8 10.9371L298.954 10.1669ZM283.653 48.432H277.989V50.432H283.653V48.432ZM278.911 49.8176L284.287 36.9536L282.442 36.1824L277.066 49.0464L278.911 49.8176ZM284.293 36.1963L273.877 10.1803L272.02 10.9237L282.436 36.9397L284.293 36.1963ZM272.949 11.552H279.045V9.552H272.949V11.552ZM278.107 10.8982L285.547 31.0582L287.423 30.3658L279.983 10.2058L278.107 10.8982ZM287.418 31.0699L295.146 10.9099L293.279 10.1941L285.551 30.3541L287.418 31.0699ZM294.213 11.552H299.877V9.552H294.213V11.552Z" fill="#D2D5FB" mask="url(#path-1-outside-1_406_67591)"/>
</svg>
