<svg width="10" height="14" viewBox="0 0 10 14" fill="none" xmlns="http://www.w3.org/2000/svg">
<path fill-rule="evenodd" clip-rule="evenodd" d="M5.76708 10.1816C5.76708 9.93225 5.95163 9.72353 6.19494 9.66915C8.50271 9.15339 10.1644 7.17812 9.98704 4.91245L9.7043 1.30025C9.64695 0.567627 8.97891 0 8.17402 0H1.82598C1.02109 0 0.353051 0.567626 0.295705 1.30025L0.0129634 4.91245C-0.164379 7.17811 1.49728 9.15338 3.80504 9.66915C4.04836 9.72353 4.23291 9.93225 4.23291 10.1816V11.657C4.23291 11.9992 3.96181 12.2912 3.59193 12.3475L2.57263 12.5025C2.20275 12.5588 1.93165 12.8508 1.93165 13.193V13.3C1.93165 13.6866 2.27509 14 2.69874 14H7.30126C7.72491 14 8.06835 13.6866 8.06835 13.3V13.193C8.06835 12.8508 7.79725 12.5588 7.42737 12.5025L6.40806 12.3475C6.03818 12.2912 5.76708 11.9992 5.76708 11.657V10.1816ZM8.17402 1.4L1.82598 1.4L1.6616 3.5H8.3384L8.17402 1.4Z" fill="#939AFF"/>
</svg>
