<svg width="42" height="50" viewBox="0 0 42 50" fill="none" xmlns="http://www.w3.org/2000/svg">
<path d="M9.00398 15.8368L9.21583 13.4153C9.36234 12.3745 10.26 11.6213 11.2506 11.7079L32.6631 13.5258C33.7039 13.6723 34.4572 14.57 34.3705 15.5606L32.4928 37.0233C32.4061 38.0139 31.5084 38.7672 30.4579 38.7307L28.0365 38.5189C26.9957 38.3723 26.2424 37.4746 26.2789 36.4242L27.7454 23.4654L10.5692 37.8779C9.73135 38.581 8.6307 38.4847 7.92765 37.6468L6.32068 35.7317C5.66785 34.9537 5.71393 33.7932 6.55179 33.0902L23.7279 18.6776L10.7616 17.9314C9.7208 17.7849 8.90768 16.9374 9.00398 15.8368Z" fill="#939AFF"/>
</svg>
